<?xml version="1.0" standalone="no"?>
<!DOCTYPE svg PUBLIC "-//W3C//DTD SVG 1.1//EN" "http://www.w3.org/Graphics/SVG/1.1/DTD/svg11.dtd" >
<svg>
<metadata>
Created by FontForge 20110222 at Thu Jan 30 02:29:29 2014
 By Orthosie Webhosting
Copyright (c) Tomas Brousil, 2007. All rights reserved.
</metadata>
<defs>
<font id="AtramentStdLight" horiz-adv-x="618" >
  <font-face 
    font-family="AtramentStdLight"
    font-weight="300"
    font-stretch="normal"
    units-per-em="2048"
    panose-1="2 0 5 8 2 0 0 2 0 4"
    ascent="1638"
    descent="-410"
    x-height="1128"
    cap-height="1483"
    bbox="-131.25 -420 2111 1835"
    underline-thickness="102"
    underline-position="-102"
    unicode-range="U+000D-FB04"
  />
<missing-glyph horiz-adv-x="748" 
d="M68 0v1365h544v-1365h-544zM136 68h408v1229h-408v-1229z" />
    <glyph glyph-name="uniFB01" unicode="fi" horiz-adv-x="720" 
d="M10 1053v45q0 30 31 30h102v248q0 67 10 111.5t37 80.5t78.5 53t130.5 17h129q31 0 31 -30v-45q0 -31 -31 -31h-129q-81 0 -109 -37.5t-28 -118.5v-248h346q31 0 31 -30v-1067q0 -31 -31 -31h-57q-31 0 -31 31v991h-258v-991q0 -31 -31 -31h-57q-31 0 -31 31v991h-102
q-31 0 -31 31z" />
    <glyph glyph-name="uniFB02" unicode="fl" horiz-adv-x="720" 
d="M10 1053v45q0 30 31 30h102v248q0 67 10 111.5t37 80.5t78.5 53t130.5 17h209q31 0 31 -30v-1577q0 -31 -31 -31h-57q-31 0 -31 31v1501h-121q-81 0 -109 -37.5t-28 -118.5v-248h144q30 0 30 -30v-45q0 -31 -30 -31h-144v-991q0 -31 -31 -31h-57q-31 0 -31 31v991h-102
q-31 0 -31 31z" />
    <glyph glyph-name="uniFB03" unicode="ffi" horiz-adv-x="1097" 
d="M10 1053v45q0 30 31 30h102v125q0 67 10 112t37 81t78.5 53t130.5 17h138q23 62 78 92t161 30h129q31 0 31 -30v-45q0 -31 -31 -31h-129q-81 0 -109 -37.5t-28 -118.5v-248h346q31 0 31 -30v-1067q0 -31 -31 -31h-57q-31 0 -31 31v991h-258v-991q0 -31 -31 -31h-57
q-31 0 -31 31v991h-258v-991q0 -31 -31 -31h-57q-31 0 -31 31v991h-102q-31 0 -31 31zM262 1128h258v281h-121q-81 0 -109 -37.5t-28 -118.5v-125z" />
    <glyph glyph-name="uniFB04" unicode="ffl" horiz-adv-x="1097" 
d="M10 1053v45q0 30 31 30h102v125q0 67 10 112t37 81t78.5 53t130.5 17h138q23 62 78 92t161 30h209q31 0 31 -30v-1577q0 -31 -31 -31h-57q-31 0 -31 31v1501h-121q-81 0 -109 -37.5t-28 -118.5v-248h143q31 0 31 -30v-45q0 -31 -31 -31h-143v-991q0 -31 -31 -31h-57
q-31 0 -31 31v991h-258v-991q0 -31 -31 -31h-57q-31 0 -31 31v991h-102q-31 0 -31 31zM262 1128h258v281h-121q-81 0 -109 -37.5t-28 -118.5v-125z" />
    <glyph glyph-name=".notdef" horiz-adv-x="748" 
d="M68 0v1365h544v-1365h-544zM136 68h408v1229h-408v-1229z" />
    <glyph glyph-name="glyph1" horiz-adv-x="2048" 
 />
    <glyph glyph-name="glyph1" horiz-adv-x="2048" 
 />
    <glyph glyph-name="uni000D" unicode="&#xd;" horiz-adv-x="2048" 
 />
    <glyph glyph-name="space" unicode=" " horiz-adv-x="368" 
 />
    <glyph glyph-name="exclam" unicode="!" horiz-adv-x="434" 
d="M123 84q0 41 26.5 67.5t67.5 26.5t67.5 -26.5t26.5 -67.5t-26.5 -67.5t-67.5 -26.5t-67.5 26.5t-26.5 67.5zM145 1452q0 31 31 31h82q31 0 31 -31l-21 -1051q0 -30 -30 -30h-41q-31 0 -31 30z" />
    <glyph glyph-name="quotedbl" unicode="&#x22;" horiz-adv-x="548" 
d="M82 1452q0 31 31 31h90q30 0 30 -31l-30 -440q0 -31 -31 -31h-29q-30 0 -30 31zM315 1452q0 31 31 31h90q31 0 31 -31l-31 -440q0 -31 -30 -31h-29q-31 0 -31 31z" />
    <glyph glyph-name="numbersign" unicode="#" horiz-adv-x="851" 
d="M0 465v49q0 31 31 31h139l86 393h-137q-31 0 -31 31v49q0 31 31 31h162l88 405q6 29 28 29h62q31 0 24 -35l-88 -399h193l88 405q6 29 29 29h61q32 0 25 -35l-89 -399h119q31 0 31 -31v-49q0 -31 -31 -31h-141l-86 -393h139q31 0 31 -31v-49q0 -31 -31 -31h-162l-88 -405
q-6 -29 -28 -29h-62q-31 0 -24 35l86 399h-191l-88 -405q-6 -29 -29 -29h-61q-32 0 -25 35l86 399h-116q-31 0 -31 31zM287 545h190l86 393h-190z" />
    <glyph glyph-name="dollar" unicode="$" horiz-adv-x="733" 
d="M82 283v211q0 30 31 30h65q31 0 31 -30v-211q0 -93 32 -136t126 -43t125.5 43t31.5 136q0 108 -20.5 166t-91.5 139l-205 229q-64 69 -94.5 149t-30.5 234q0 67 9 113.5t32.5 85.5t68 61t111.5 29v180q0 31 31 31h65q31 0 31 -31v-180q67 -7 111.5 -29t68 -61t32.5 -85.5
t9 -113.5v-211q0 -31 -30 -31h-66q-31 0 -31 31v211q0 93 -31.5 135.5t-125.5 42.5t-126 -42.5t-32 -135.5q0 -109 21 -166.5t92 -138.5l204 -229q32 -35 51.5 -64t38 -73.5t27 -104.5t8.5 -141q0 -139 -45.5 -208.5t-175.5 -80.5v-180q0 -31 -31 -31h-65q-31 0 -31 31v180
q-130 11 -175.5 80.5t-45.5 208.5z" />
    <glyph glyph-name="percent" unicode="%" horiz-adv-x="1019" 
d="M41 893v438q0 80 40.5 119t133.5 39t133.5 -39t40.5 -119v-438q0 -80 -40.5 -119t-133.5 -39t-133.5 39t-40.5 119zM152 893q0 -70 63 -70q64 0 64 70v438q0 70 -64 70q-35 0 -49 -17.5t-14 -52.5v-438zM186 37l529 1423q9 23 33 23h65q13 -1 19.5 -12t1.5 -25
l-529 -1423q-9 -23 -33 -23h-65q-13 1 -19.5 12t-1.5 25zM631 152v438q0 80 40.5 119t133.5 39t133.5 -39t40.5 -119v-438q0 -80 -40.5 -119t-133.5 -39t-133.5 39t-40.5 119zM741 152q0 -70 64 -70q63 0 63 70v438q0 34 -14 51.5t-49 17.5t-49.5 -17.5t-14.5 -51.5v-438z
" />
    <glyph glyph-name="ampersand" unicode="&#x26;" horiz-adv-x="806" 
d="M82 283v153q0 133 37 209t139 105v8q-53 14 -88.5 41.5t-54 69t-26 89t-7.5 113.5v129q0 75 11 124.5t41 90t87.5 59.5t145.5 19t145.5 -19t87 -59.5t40.5 -90t11 -124.5v-88q0 -31 -30 -31h-66q-31 0 -31 31v88q0 93 -31.5 135.5t-125.5 42.5t-126 -42.5t-32 -135.5
v-174q0 -56 7 -92t27 -66t59 -43.5t99 -13.5h375q31 0 31 -31v-53q0 -31 -31 -31h-125v-413q0 -75 -11 -125t-41 -90.5t-87 -59t-145 -18.5t-145.5 18.5t-87.5 59t-41 90.5t-11 125zM209 283q0 -93 32 -136t126 -43t125.5 43t31.5 136v413h-123q-60 0 -99 -14t-59 -44
t-27 -66t-7 -91v-198z" />
    <glyph glyph-name="quotesingle" unicode="'" horiz-adv-x="315" 
d="M82 1452q0 31 31 31h90q30 0 30 -31l-30 -440q0 -31 -31 -31h-29q-30 0 -30 31z" />
    <glyph glyph-name="parenleft" unicode="(" horiz-adv-x="499" 
d="M123 741q0 502 213 951q12 28 39 28h80q15 0 21 -13t-1 -30q-221 -444 -221 -936t221 -936q7 -17 1 -30t-21 -13h-80q-26 0 -39 29q-213 449 -213 950z" />
    <glyph glyph-name="parenright" unicode=")" horiz-adv-x="499" 
d="M24 -225q-6 13 1 30q221 444 221 936t-221 936q-7 17 -1 30t21 13h80q27 0 39 -28q213 -449 213 -951q0 -501 -213 -950q-13 -29 -39 -29h-80q-15 0 -21 13z" />
    <glyph glyph-name="asterisk" unicode="*" horiz-adv-x="708" 
d="M47 1008q-14 26 10 41l238 98l-238 98q-24 15 -10 41l33 57q15 27 41 11l203 -156l-33 254q0 31 31 31h65q31 0 31 -31l-37 -256l207 158q26 16 41 -11l33 -57q14 -25 -11 -41l-239 -98l239 -98q25 -16 11 -41l-33 -58q-15 -26 -41 -10l-207 158l37 -256q0 -31 -31 -31
h-65q-31 0 -31 31l35 256l-205 -158q-26 -16 -41 10z" />
    <glyph glyph-name="plus" unicode="+" horiz-adv-x="839" 
d="M82 717v53q0 31 31 31h249v250q0 30 31 30h53q31 0 31 -30v-250h250q31 0 31 -31v-53q0 -31 -31 -31h-250v-250q0 -30 -31 -30h-53q-31 0 -31 30v250h-249q-31 0 -31 31z" />
    <glyph glyph-name="comma" unicode="," horiz-adv-x="352" 
d="M90 -215l23 379q3 31 34 31h91q32 0 26 -31l-84 -379q-6 -31 -33 -31h-28q-32 0 -29 31z" />
    <glyph glyph-name="hyphen" unicode="-" horiz-adv-x="534" 
d="M41 541v53q0 31 31 31h391q31 0 31 -31v-53q0 -31 -31 -31h-391q-31 0 -31 31z" />
    <glyph glyph-name="period" unicode="." horiz-adv-x="352" 
d="M82 84q0 41 26.5 67.5t67.5 26.5t67.5 -26.5t26.5 -67.5t-26.5 -67.5t-67.5 -26.5t-67.5 26.5t-26.5 67.5z" />
    <glyph glyph-name="slash" unicode="/" horiz-adv-x="555" 
d="M-39 -203l518 1895q6 28 29 28h61q35 0 25 -34l-518 -1895q-6 -29 -29 -29h-61q-17 0 -23.5 10t-1.5 25z" />
    <glyph glyph-name="zero" unicode="0" 
d="M82 223v682q0 59 9 99t33 72.5t69.5 47.5t115.5 15q134 0 181 -56.5t47 -177.5v-682q0 -59 -9 -99t-33.5 -72t-70 -47t-115.5 -15q-134 0 -180.5 56t-46.5 177zM201 223q0 -72 25 -99.5t83 -27.5q59 0 84 27.5t25 99.5v682q0 72 -25 99.5t-84 27.5q-58 0 -83 -27.5
t-25 -99.5v-682z" />
    <glyph glyph-name="one" unicode="1" horiz-adv-x="671" 
d="M82 31v45q0 30 31 30h184v916h-184q-31 0 -31 31v45q0 30 31 30h272q31 0 31 -30v-992h184q31 0 31 -30v-45q0 -31 -31 -31h-487q-31 0 -31 31z" />
    <glyph glyph-name="two" unicode="2" 
d="M82 31v45q0 21 6 39l291 538q39 74 39 187v65q0 72 -25 99.5t-84 27.5q-58 0 -83 -27.5t-25 -99.5v-149q0 -31 -31 -31h-57q-31 0 -31 31v149q0 59 9 99t33 72.5t69.5 47.5t115.5 15q134 0 181 -56.5t47 -177.5v-47q0 -88 -14 -143.5t-48 -122.5l-264 -486h295
q31 0 31 -30v-45q0 -31 -31 -31h-393q-31 0 -31 31z" />
    <glyph glyph-name="three" unicode="3" 
d="M82 18v88q0 31 31 31h57q31 0 31 -31v-88q0 -72 25 -99.5t83 -27.5q59 0 84 27.5t25 99.5v236q0 81 -28 118.5t-109 37.5h-25q-31 0 -31 30v45q0 31 31 31h25q81 0 109 37.5t28 118.5v233q0 72 -25 99.5t-84 27.5q-58 0 -83 -27.5t-25 -99.5v-88q0 -31 -31 -31h-57
q-31 0 -31 31v88q0 59 9 99t33 72.5t69.5 47.5t115.5 15q134 0 181 -56.5t47 -177.5v-186q0 -107 -31 -168.5t-115 -81.5v-10q84 -20 115 -81.5t31 -168.5v-191q0 -59 -9 -99t-33.5 -72t-70 -47t-115.5 -15q-134 0 -180.5 56t-46.5 177z" />
    <glyph glyph-name="four" unicode="4" horiz-adv-x="643" 
d="M20 150v40q0 16 7 37l209 873q6 28 28 28h68q34 0 24 -34l-209 -869h211v295q0 31 31 31h45q31 0 31 -31v-295h147q31 0 31 -30v-45q0 -31 -31 -31h-147v-293q0 -31 -31 -31h-45q-31 0 -31 31v293h-307q-31 0 -31 31z" />
    <glyph glyph-name="five" unicode="5" 
d="M82 18v48q0 30 31 30h57q31 0 31 -30v-48q0 -72 25 -99.5t83 -27.5q59 0 84 27.5t25 99.5v381q0 72 -25 99.5t-84 27.5q-58 0 -83 -27.5t-25 -99.5v-6q0 -31 -31 -31h-57q-31 0 -31 31v705q0 30 31 30h372q31 0 31 -30v-54q0 -30 -31 -30h-292v-441q51 60 151 60
q111 0 152 -57.5t41 -176.5v-381q0 -59 -9 -99t-33.5 -72t-70 -47t-115.5 -15q-134 0 -180.5 56t-46.5 177z" />
    <glyph glyph-name="six" unicode="6" 
d="M82 223v887q0 121 46.5 177t180.5 56q70 0 115.5 -15t70 -47t33.5 -72t9 -99v-109q0 -30 -31 -30h-57q-31 0 -31 30v109q0 72 -25 99.5t-84 27.5q-58 0 -83 -27.5t-25 -99.5v-428q49 59 149 59q107 0 147 -57t40 -176v-285q0 -59 -9 -99t-33.5 -72t-70 -47t-115.5 -15
q-134 0 -180.5 56t-46.5 177zM201 223q0 -72 25 -99.5t83 -27.5q59 0 84 27.5t25 99.5v285q0 72 -25 99.5t-84 27.5q-56 0 -81.5 -25t-26.5 -88v-299z" />
    <glyph glyph-name="seven" unicode="7" horiz-adv-x="538" 
d="M41 1047v51q0 30 31 30h415q31 0 31 -30v-47q0 -19 -6 -37l-281 -1190q-6 -29 -28 -29h-62q-17 0 -23 9.5t-1 25.5l280 1186h-325q-31 0 -31 31z" />
    <glyph glyph-name="eight" unicode="8" 
d="M82 223v191q0 71 11 118t44 82.5t90 49.5v10q-57 14 -90 49.5t-44 82.5t-11 118v186q0 121 46.5 177t180.5 56q70 0 115.5 -15t70 -47t33.5 -72t9 -99v-186q0 -107 -31 -168.5t-115 -81.5v-10q84 -20 115 -81.5t31 -168.5v-191q0 -59 -9 -99t-33.5 -72t-70 -47
t-115.5 -15q-134 0 -180.5 56t-46.5 177zM201 223q0 -72 25 -99.5t83 -27.5q59 0 84 27.5t25 99.5v236q0 73 -23 109t-86 36t-85.5 -36t-22.5 -109v-236zM201 877q0 -74 22.5 -110t85.5 -36t86 36t23 110v233q0 72 -25 99.5t-84 27.5q-58 0 -83 -27.5t-25 -99.5v-233z" />
    <glyph glyph-name="nine" unicode="9" 
d="M82 20v89q0 30 31 30h57q31 0 31 -30v-89q0 -72 24.5 -99t83.5 -27t84 27t25 99v388q-50 -60 -150 -60q-106 0 -146 57.5t-40 176.5v325q0 59 9 99t33 72.5t69.5 47.5t115.5 15q134 0 181 -56.5t47 -177.5v-887q0 -59 -9 -99t-33.5 -72t-70 -47t-115.5 -15
q-134 0 -180.5 56t-46.5 177zM201 582q0 -72 25 -99.5t83 -27.5q56 0 82 24.5t27 87.5v340q0 72 -25 99.5t-84 27.5q-58 0 -83 -27.5t-25 -99.5v-325z" />
    <glyph glyph-name="colon" unicode=":" horiz-adv-x="352" 
d="M82 84q0 41 26.5 67.5t67.5 26.5t67.5 -26.5t26.5 -67.5t-26.5 -67.5t-67.5 -26.5t-67.5 26.5t-26.5 67.5zM82 1044q0 41 26.5 68t67.5 27t67.5 -27t26.5 -68t-26.5 -67.5t-67.5 -26.5t-67.5 26.5t-26.5 67.5z" />
    <glyph glyph-name="semicolon" unicode=";" horiz-adv-x="352" 
d="M82 1044q0 41 26.5 68t67.5 27t67.5 -27t26.5 -68t-26.5 -67.5t-67.5 -26.5t-67.5 26.5t-26.5 67.5zM90 -215l23 379q3 31 34 31h91q32 0 26 -31l-84 -379q-6 -31 -33 -31h-28q-32 0 -29 31z" />
    <glyph glyph-name="less" unicode="&#x3c;" horiz-adv-x="839" 
d="M82 709v69q0 28 22 37l615 252q14 5 26.5 -2t12.5 -21v-63q0 -28 -29 -37l-510 -196v-9l510 -196q29 -10 29 -37v-64q0 -14 -12.5 -20.5t-26.5 -1.5l-615 252q-22 9 -22 37z" />
    <glyph glyph-name="equal" unicode="=" horiz-adv-x="839" 
d="M82 545v53q0 31 31 31h614q31 0 31 -31v-53q0 -31 -31 -31h-614q-31 0 -31 31zM82 889v53q0 31 31 31h614q31 0 31 -31v-53q0 -31 -31 -31h-614q-31 0 -31 31z" />
    <glyph glyph-name="greater" unicode="&#x3e;" horiz-adv-x="839" 
d="M82 442v64q0 28 29 37l510 196v9l-510 196q-29 10 -29 37v63q0 14 12.5 21t26.5 2l614 -252q23 -10 23 -37v-69q0 -27 -23 -37l-614 -252q-14 -5 -26.5 1.5t-12.5 20.5z" />
    <glyph glyph-name="question" unicode="?" horiz-adv-x="692" 
d="M61 1071v129q0 75 11 124.5t41 90t87.5 59.5t145.5 19t145.5 -19t87.5 -59.5t41 -90t11 -124.5v-16q0 -74 -23 -140t-55.5 -118.5t-65.5 -107t-56 -128.5t-23 -160v-129q0 -30 -31 -30h-62q-30 0 -30 30v109q0 100 23 185t55.5 143.5t65.5 110.5t56 109.5t23 115.5v26
q0 94 -33.5 138t-128.5 44t-128.5 -44t-33.5 -138v-129q0 -31 -30 -31h-62q-31 0 -31 31zM252 84q0 41 26.5 67.5t67.5 26.5t67.5 -26.5t26.5 -67.5t-26.5 -67.5t-67.5 -26.5t-67.5 26.5t-26.5 67.5z" />
    <glyph glyph-name="at" unicode="@" horiz-adv-x="1093" 
d="M82 193v743q0 97 10.5 166t40.5 131t81.5 99.5t134 59t198.5 21.5t198.5 -21.5t134 -59t81.5 -99.5t40.5 -131t10.5 -166v-764q0 -93 -35.5 -137.5t-132.5 -44.5q-99 0 -142 67q-55 -67 -172 -67q-121 0 -166 57t-45 176v162q0 59 9 99t33.5 72t70 47t115.5 15h108v287
q0 72 -25 99.5t-83 27.5q-59 0 -84 -27.5t-25 -99.5v-108q0 -31 -30 -31h-58q-31 0 -31 31v108q0 121 47 177.5t181 56.5q70 0 115 -15t69 -47.5t33 -72t10 -99.5v-733q0 -38 12.5 -57t47.5 -19q34 0 46.5 18.5t12.5 57.5v764q0 94 -13.5 157t-50 114.5t-106 75.5t-176.5 24
t-176.5 -24t-106 -75.5t-50 -114.5t-13.5 -157v-743q0 -76 8 -130t30 -102t60.5 -77t100 -45.5t147.5 -16.5h196q31 0 31 -31v-45q0 -31 -31 -31h-196q-116 0 -198.5 21.5t-134 59t-81.5 99.5t-40.5 131.5t-10.5 166.5zM438 223q0 -72 25 -99.5t84 -27.5q58 0 83 27.5
t25 99.5v289h-108q-59 0 -84 -27.5t-25 -99.5v-162z" />
    <glyph glyph-name="A" unicode="A" horiz-adv-x="696" 
d="M23 33l219 1417q3 33 34 33h144q32 0 35 -33l219 -1417q1 -15 -6 -24t-19 -9h-74q-27 0 -30 31l-47 305h-299l-47 -305q-4 -31 -31 -31h-74q-13 0 -19 10q-5 7 -5 17v6zM215 451h264l-84 557l-43 348h-8l-43 -348z" />
    <glyph glyph-name="B" unicode="B" horiz-adv-x="712" 
d="M82 31v1421q0 31 31 31h198q99 0 163.5 -21.5t98 -67t46 -101.5t12.5 -140v-82q0 -66 -7.5 -113.5t-26 -89t-54 -69t-88.5 -41.5v-8q102 -29 139 -105t37 -209v-106q0 -85 -12.5 -141t-46 -101.5t-98 -66.5t-163.5 -21h-198q-31 0 -31 31zM209 115h102q60 0 99 13.5
t59 43t27.5 66t7.5 92.5v151q0 112 -39 163.5t-154 51.5h-102v-581zM209 811h102q60 0 99 13.5t59 43t27.5 66t7.5 92.5v127q0 112 -39 163.5t-154 51.5h-102v-557z" />
    <glyph glyph-name="C" unicode="C" horiz-adv-x="733" 
d="M82 283v917q0 75 11 124.5t41 90t87.5 59.5t145.5 19t145.5 -19t87 -59.5t40.5 -90t11 -124.5v-252q0 -30 -30 -30h-66q-31 0 -31 30v252q0 93 -31.5 135.5t-125.5 42.5t-126 -42.5t-32 -135.5v-917q0 -93 32 -136t126 -43t125.5 43t31.5 136v252q0 30 31 30h66
q30 0 30 -30v-252q0 -75 -11 -125t-41 -90.5t-87 -59t-145 -18.5t-145.5 18.5t-87.5 59t-41 90.5t-11 125z" />
    <glyph glyph-name="D" unicode="D" horiz-adv-x="712" 
d="M82 31v1421q0 31 31 31h198q99 0 163.5 -21.5t98 -67t46 -101.5t12.5 -140v-823q0 -85 -12.5 -141t-46 -101.5t-98 -66.5t-163.5 -21h-198q-31 0 -31 31zM209 115h102q60 0 99 13.5t59 43t27.5 66t7.5 92.5v823q0 112 -39 163.5t-154 51.5h-102v-1253z" />
    <glyph glyph-name="E" unicode="E" horiz-adv-x="610" 
d="M82 31v1421q0 31 31 31h446q31 0 31 -31v-53q0 -31 -31 -31h-350v-569h272q31 0 31 -31v-53q0 -31 -31 -31h-272v-569h350q31 0 31 -31v-53q0 -31 -31 -31h-446q-31 0 -31 31z" />
    <glyph glyph-name="F" unicode="F" horiz-adv-x="600" 
d="M82 31v1421q0 31 31 31h446q31 0 31 -31v-53q0 -31 -31 -31h-350v-569h272q31 0 31 -31v-53q0 -31 -31 -31h-272v-653q0 -31 -31 -31h-65q-31 0 -31 31z" />
    <glyph glyph-name="G" unicode="G" horiz-adv-x="733" 
d="M82 283v917q0 75 11 124.5t41 90t87.5 59.5t145.5 19t145.5 -19t87 -59.5t40.5 -90t11 -124.5v-170q0 -31 -30 -31h-66q-31 0 -31 31v170q0 93 -31.5 135.5t-125.5 42.5t-126 -42.5t-32 -135.5v-917q0 -93 32 -136t126 -43t125.5 43t31.5 136v344h-141q-31 0 -31 30v54
q0 30 31 30h238q30 0 30 -30v-428q0 -75 -11 -125t-41 -90.5t-87 -59t-145 -18.5t-145.5 18.5t-87.5 59t-41 90.5t-11 125z" />
    <glyph glyph-name="H" unicode="H" horiz-adv-x="733" 
d="M82 31v1421q0 31 31 31h65q31 0 31 -31v-653h315v653q0 31 31 31h66q30 0 30 -31v-1421q0 -31 -30 -31h-66q-31 0 -31 31v653h-315v-653q0 -31 -31 -31h-65q-31 0 -31 31z" />
    <glyph glyph-name="I" unicode="I" horiz-adv-x="290" 
d="M82 31v1421q0 31 31 31h65q31 0 31 -31v-1421q0 -31 -31 -31h-65q-31 0 -31 31z" />
    <glyph glyph-name="J" unicode="J" horiz-adv-x="692" 
d="M41 283v170q0 30 31 30h65q31 0 31 -30v-170q0 -93 32 -136t126 -43t125.5 43t31.5 136v1169q0 31 31 31h66q30 0 30 -31v-1169q0 -75 -11 -125t-41 -90.5t-87 -59t-145 -18.5t-145.5 18.5t-87.5 59t-41 90.5t-11 125z" />
    <glyph glyph-name="K" unicode="K" horiz-adv-x="679" 
d="M82 31v1421q0 31 31 31h65q31 0 31 -31v-633h8l318 641q11 23 32 23h80q13 -1 19 -13q3 -6 3 -12t-3 -12l-351 -705l351 -704q3 -6 3 -12q0 -7 -3 -13q-6 -12 -19 -12h-80q-21 0 -32 23l-318 641h-8v-633q0 -31 -31 -31h-65q-31 0 -31 31z" />
    <glyph glyph-name="L" unicode="L" horiz-adv-x="600" 
d="M82 31v1421q0 31 31 31h65q31 0 31 -31v-1337h350q31 0 31 -31v-53q0 -31 -31 -31h-446q-31 0 -31 31z" />
    <glyph glyph-name="M" unicode="M" horiz-adv-x="884" 
d="M82 31v1421q0 31 31 31h125q29 0 34 -31l113 -666l53 -348h8l54 348l112 666q5 31 35 31h125q31 0 31 -31v-1421q0 -31 -31 -31h-65q-31 0 -31 31v909l12 291h-8l-141 -887q-7 -33 -35 -33h-123q-28 0 -35 33l-141 887h-8l12 -291v-909q0 -31 -31 -31h-65q-31 0 -31 31z
" />
    <glyph glyph-name="N" unicode="N" horiz-adv-x="733" 
d="M82 31v1421q0 31 31 31h98q27 0 35 -31l221 -877l61 -282h9l-13 291v868q0 31 31 31h66q30 0 30 -31v-1421q0 -31 -30 -31h-99q-27 0 -35 31l-221 876l-61 283h-8l12 -291v-868q0 -31 -31 -31h-65q-31 0 -31 31z" />
    <glyph glyph-name="O" unicode="O" horiz-adv-x="733" 
d="M82 283v917q0 75 11 124.5t41 90t87.5 59.5t145.5 19t145.5 -19t87 -59.5t40.5 -90t11 -124.5v-917q0 -75 -11 -125t-41 -90.5t-87 -59t-145 -18.5t-145.5 18.5t-87.5 59t-41 90.5t-11 125zM209 283q0 -93 32 -136t126 -43t125.5 43t31.5 136v917q0 93 -31.5 135.5
t-125.5 42.5t-126 -42.5t-32 -135.5v-917z" />
    <glyph glyph-name="P" unicode="P" horiz-adv-x="671" 
d="M82 31v1421q0 31 31 31h198q99 0 163.5 -21.5t98 -67t46 -101.5t12.5 -140v-197q0 -85 -12.5 -141t-46 -101t-98 -66t-163.5 -21h-102v-596q0 -31 -31 -31h-65q-31 0 -31 31zM209 741h102q60 0 99 13.5t59 43t27.5 66t7.5 92.5v197q0 112 -39 163.5t-154 51.5h-102v-627z
" />
    <glyph glyph-name="Q" unicode="Q" horiz-adv-x="733" 
d="M82 283v917q0 75 11 124.5t41 90t87.5 59.5t145.5 19t145.5 -19t87 -59.5t40.5 -90t11 -124.5v-917q0 -154 -53 -217l129 -224q6 -11 6 -20q0 -14 -16 -23l-58 -32q-9 -5 -17 -5q-14 0 -24 17l-129 223q-49 -12 -122 -12q-88 0 -145.5 18.5t-87.5 59t-41 90.5t-11 125z
M209 283q0 -93 32 -136t126 -43t125.5 43t31.5 136v917q0 93 -31.5 135.5t-125.5 42.5t-126 -42.5t-32 -135.5v-917z" />
    <glyph glyph-name="R" unicode="R" horiz-adv-x="712" 
d="M82 31v1421q0 31 31 31h198q99 0 163.5 -21.5t98 -67t46 -101.5t12.5 -140v-139q0 -55 -5 -97t-18 -81t-35.5 -65.5t-58 -46.5t-84.5 -30l252 -657q2 -6 2 -12q0 -7 -3 -13q-6 -11 -19 -12h-78q-24 0 -33 23l-254 661h-88v-653q0 -31 -31 -31h-65q-31 0 -31 31zM209 799
h102q60 0 99 13.5t59 43t27.5 66t7.5 92.5v139q0 112 -39 163.5t-154 51.5h-102v-569z" />
    <glyph glyph-name="S" unicode="S" horiz-adv-x="733" 
d="M82 283v211q0 30 31 30h65q31 0 31 -30v-211q0 -93 32 -136t126 -43t125.5 43t31.5 136q0 108 -20.5 166t-91.5 139l-205 229q-64 69 -94.5 149t-30.5 234q0 75 11 124.5t41 90t87.5 59.5t145.5 19t145.5 -19t87 -59.5t40.5 -90t11 -124.5v-211q0 -31 -30 -31h-66
q-31 0 -31 31v211q0 93 -31.5 135.5t-125.5 42.5t-126 -42.5t-32 -135.5q0 -109 21 -166.5t92 -138.5l204 -229q32 -35 51.5 -64t38 -73.5t27 -104.5t8.5 -141q0 -75 -11 -125t-41 -90.5t-87 -59t-145 -18.5t-145.5 18.5t-87.5 59t-41 90.5t-11 125z" />
    <glyph glyph-name="T" unicode="T" horiz-adv-x="684" 
d="M0 1399v53q0 31 31 31h622q31 0 31 -31v-53q0 -31 -31 -31h-247v-1337q0 -31 -31 -31h-66q-30 0 -30 31v1337h-248q-31 0 -31 31z" />
    <glyph glyph-name="U" unicode="U" horiz-adv-x="733" 
d="M82 283v1169q0 31 31 31h65q31 0 31 -31v-1169q0 -93 32 -136t126 -43t125.5 43t31.5 136v1169q0 31 31 31h66q30 0 30 -31v-1169q0 -75 -11 -125t-41 -90.5t-87 -59t-145 -18.5t-145.5 18.5t-87.5 59t-41 90.5t-11 125z" />
    <glyph glyph-name="V" unicode="V" horiz-adv-x="696" 
d="M23 1450q-1 15 5.5 24t18.5 9h74q28 0 31 -31l149 -977l43 -348h8l43 348l150 977q4 31 30 31h74q13 1 20 -9q5 -7 5 -18v-6l-219 -1417q-3 -33 -35 -33h-144q-31 0 -34 33z" />
    <glyph glyph-name="W" unicode="W" horiz-adv-x="972" 
d="M23 1450q-1 15 5.5 24t18.5 9h74q28 0 31 -31l98 -977l22 -348h9l22 348l88 977q4 31 31 31h127q28 0 31 -31l88 -977l22 -348h8l23 348l98 977q4 31 31 31h74q14 1 20 -9q5 -7 4 -18v-6l-147 -1417q-3 -33 -35 -33h-143q-32 0 -35 33l-76 913l-23 348h-8l-22 -348
l-76 -913q-3 -33 -35 -33h-143q-32 0 -35 33z" />
    <glyph glyph-name="X" unicode="X" horiz-adv-x="704" 
d="M23 37l268 704l-268 705q-2 6 -2 12q0 7 3 13q6 11 19 12h78q24 0 33 -23l108 -291l86 -254h8l86 254l109 291q9 23 33 23h78q13 -1 19 -12q3 -6 3 -13q0 -6 -2 -12l-268 -705l268 -704q2 -6 2 -12q0 -7 -3 -13q-6 -11 -19 -12h-78q-24 0 -33 23l-109 290l-86 254h-8
l-86 -254l-108 -290q-9 -23 -33 -23h-78q-13 1 -19 12q-3 6 -3 13q0 6 2 12z" />
    <glyph glyph-name="Y" unicode="Y" horiz-adv-x="704" 
d="M23 1448q-1 5 -1 9q0 9 4 15q8 11 19 11h76q26 0 33 -23l110 -358l84 -307h8l84 307l111 358q7 23 33 23h75q12 0 19 -11q5 -7 5 -15q0 -4 -1 -9l-266 -848v-569q0 -31 -31 -31h-66q-30 0 -30 31v569z" />
    <glyph glyph-name="Z" unicode="Z" horiz-adv-x="569" 
d="M41 31v49q0 19 6 37l342 1251h-317q-31 0 -31 31v53q0 31 31 31h426q30 0 30 -31v-49q0 -19 -6 -37l-342 -1251h318q30 0 30 -31v-53q0 -31 -30 -31h-426q-31 0 -31 31z" />
    <glyph glyph-name="bracketleft" unicode="[" horiz-adv-x="512" 
d="M164 -207v1897q0 30 31 30h266q31 0 31 -30v-54q0 -30 -31 -30h-170v-1729h170q31 0 31 -31v-53q0 -31 -31 -31h-266q-31 0 -31 31z" />
    <glyph glyph-name="backslash" unicode="\" horiz-adv-x="555" 
d="M-39 1686q-10 34 25 34h61q23 0 29 -28l518 -1895q10 -35 -25 -35h-61q-23 0 -29 29z" />
    <glyph glyph-name="bracketright" unicode="]" horiz-adv-x="512" 
d="M20 -154q0 31 31 31h170v1729h-170q-31 0 -31 30v54q0 30 31 30h266q31 0 31 -30v-1897q0 -31 -31 -31h-266q-31 0 -31 31v53z" />
    <glyph glyph-name="asciicircum" unicode="^" horiz-adv-x="815" 
d="M84 846l252 614q10 23 37 23h69q27 0 37 -23l252 -614q5 -14 -1.5 -26.5t-20.5 -12.5h-64q-28 0 -37 29l-196 510h-9l-196 -510q-10 -29 -37 -29h-64q-14 0 -20.5 12.5t-1.5 26.5z" />
    <glyph glyph-name="underscore" unicode="_" horiz-adv-x="917" 
d="M0 -82q0 31 31 31h856q31 0 31 -31v-53q0 -31 -31 -31h-856q-31 0 -31 31v53z" />
    <glyph glyph-name="grave" unicode="`" horiz-adv-x="559" 
d="M135 1462q-21 24 4 43l47 41q23 18 45 -4l193 -258q21 -21 -4 -43l-21 -18q-26 -19 -43 4z" />
    <glyph glyph-name="a" unicode="a" 
d="M82 164v221q0 121 46.5 177t180.5 56h109v287q0 72 -25 99.5t-84 27.5q-58 0 -83 -27.5t-25 -99.5v-108q0 -31 -31 -31h-57q-31 0 -31 31v108q0 59 9 99t33 72.5t69.5 47.5t115.5 15t115.5 -15t69.5 -47.5t33 -72t10 -99.5v-874q0 -31 -31 -31h-57q-31 0 -31 31v35
q-36 -36 -83.5 -56t-92.5 -20q-69 0 -114.5 44t-45.5 130zM201 223q0 -74 20.5 -100.5t77.5 -26.5q119 0 119 137v279h-109q-58 0 -83 -27.5t-25 -99.5v-162z" />
    <glyph glyph-name="b" unicode="b" 
d="M82 31v1577q0 30 31 30h57q31 0 31 -30v-545q36 36 83.5 56t92.5 20q69 0 114.5 -44t45.5 -130v-801q0 -86 -45.5 -130t-114.5 -44q-45 0 -92.5 20t-83.5 56v-35q0 -31 -31 -31h-57q-31 0 -31 31zM201 233q0 -137 118 -137q57 0 78 27t21 100v682q0 73 -21 100t-78 27
q-118 0 -118 -137v-662z" />
    <glyph glyph-name="c" unicode="c" 
d="M82 223v682q0 59 9 99t33 72.5t69.5 47.5t115.5 15q134 0 181 -56.5t47 -177.5v-170q0 -30 -31 -30h-57q-31 0 -31 30v170q0 72 -25 99.5t-84 27.5q-58 0 -83 -27.5t-25 -99.5v-682q0 -72 25 -99.5t83 -27.5q59 0 84 27.5t25 99.5v170q0 31 31 31h57q31 0 31 -31v-170
q0 -59 -9 -99t-33.5 -72t-70 -47t-115.5 -15q-134 0 -180.5 56t-46.5 177z" />
    <glyph glyph-name="d" unicode="d" 
d="M82 164v801q0 86 45.5 130t114.5 44q45 0 92.5 -20t83.5 -56v545q0 30 31 30h57q31 0 31 -30v-1577q0 -31 -31 -31h-57q-31 0 -31 31v35q-36 -36 -83.5 -56t-92.5 -20q-69 0 -114.5 44t-45.5 130zM201 223q0 -74 20.5 -100.5t77.5 -26.5q119 0 119 137v662
q0 137 -119 137q-57 0 -77.5 -26.5t-20.5 -100.5v-682z" />
    <glyph glyph-name="e" unicode="e" 
d="M82 223v682q0 59 9 99t33 72.5t69.5 47.5t115.5 15q134 0 181 -56.5t47 -177.5v-362q0 -31 -31 -31h-305v-289q0 -72 25 -99.5t83 -27.5q59 0 84 27.5t25 99.5v88q0 31 31 31h57q31 0 31 -31v-88q0 -59 -9 -99t-33.5 -72t-70 -47t-115.5 -15q-134 0 -180.5 56t-46.5 177z
M201 618h217v287q0 72 -25 99.5t-84 27.5q-58 0 -83 -27.5t-25 -99.5v-287z" />
    <glyph glyph-name="f" unicode="f" horiz-adv-x="466" 
d="M10 1053v45q0 30 31 30h102v248q0 67 10 111.5t37 80.5t78.5 53t130.5 17h47q31 0 31 -30v-45q0 -31 -31 -31h-47q-81 0 -109 -37.5t-28 -118.5v-248h144q30 0 30 -30v-45q0 -31 -30 -31h-144v-991q0 -31 -31 -31h-57q-31 0 -31 31v991h-102q-31 0 -31 31z" />
    <glyph glyph-name="g" unicode="g" 
d="M82 164v801q0 86 45.5 130t114.5 44q45 0 92.5 -20t83.5 -56v35q0 30 31 30h57q31 0 31 -30v-1245q0 -67 -10 -112t-37 -81t-78.5 -53t-130.5 -17h-86q-31 0 -31 31v45q0 31 31 31h86q81 0 109 37.5t28 118.5v213q-36 -36 -83.5 -56t-92.5 -20q-69 0 -114.5 44t-45.5 130
zM201 223q0 -74 20.5 -100.5t77.5 -26.5q119 0 119 137v662q0 137 -119 137q-57 0 -77.5 -26.5t-20.5 -100.5v-682z" />
    <glyph glyph-name="h" unicode="h" 
d="M82 31v1577q0 30 31 30h57q31 0 31 -30v-545q36 36 83.5 56t92.5 20q69 0 114.5 -44t45.5 -130v-934q0 -31 -31 -31h-57q-31 0 -31 31v874q0 73 -21 100t-78 27q-118 0 -118 -137v-864q0 -31 -31 -31h-57q-31 0 -31 31z" />
    <glyph glyph-name="i" unicode="i" horiz-adv-x="282" 
d="M61 1372q0 35 22.5 57.5t57.5 22.5t57.5 -22.5t22.5 -57.5t-22.5 -57.5t-57.5 -22.5t-57.5 22.5t-22.5 57.5zM82 31v1067q0 30 31 30h57q31 0 31 -30v-1067q0 -31 -31 -31h-57q-31 0 -31 31z" />
    <glyph glyph-name="j" unicode="j" horiz-adv-x="282" 
d="M-113 -334q0 31 31 31h27q81 0 109 37.5t28 118.5v1245q0 30 31 30h57q31 0 31 -30v-1245q0 -67 -10 -112t-37 -81t-78.5 -53t-130.5 -17h-27q-31 0 -31 31v45zM61 1372q0 35 22.5 57.5t57.5 22.5t57.5 -22.5t22.5 -57.5t-22.5 -57.5t-57.5 -22.5t-57.5 22.5t-22.5 57.5z
" />
    <glyph glyph-name="k" unicode="k" horiz-adv-x="593" 
d="M82 31v1577q0 30 31 30h57q31 0 31 -30v-981h8l248 479q11 22 32 22h72q13 0 19 -12q3 -6 3 -12t-3 -12l-273 -527l273 -528q3 -6 3 -12q0 -7 -3 -13q-6 -12 -19 -12h-72q-21 0 -32 23l-248 481h-8v-473q0 -31 -31 -31h-57q-31 0 -31 31z" />
    <glyph glyph-name="l" unicode="l" horiz-adv-x="282" 
d="M82 31v1577q0 30 31 30h57q31 0 31 -30v-1577q0 -31 -31 -31h-57q-31 0 -31 31z" />
    <glyph glyph-name="m" unicode="m" horiz-adv-x="954" 
d="M82 31v1067q0 30 31 30h57q31 0 31 -30v-35q36 36 83.5 56t92.5 20q46 0 82.5 -21t56.5 -61q85 82 197 82q69 0 114 -44t45 -130v-934q0 -31 -30 -31h-58q-30 0 -30 31v874q0 73 -21 100t-78 27q-118 0 -118 -137v-864q0 -31 -31 -31h-57q-31 0 -31 31v874q0 73 -21 100
t-78 27q-118 0 -118 -137v-864q0 -31 -31 -31h-57q-31 0 -31 31z" />
    <glyph glyph-name="n" unicode="n" 
d="M82 31v1067q0 30 31 30h57q31 0 31 -30v-35q36 36 83.5 56t92.5 20q69 0 114.5 -44t45.5 -130v-934q0 -31 -31 -31h-57q-31 0 -31 31v874q0 73 -21 100t-78 27q-118 0 -118 -137v-864q0 -31 -31 -31h-57q-31 0 -31 31z" />
    <glyph glyph-name="o" unicode="o" 
d="M82 223v682q0 59 9 99t33 72.5t69.5 47.5t115.5 15q134 0 181 -56.5t47 -177.5v-682q0 -59 -9 -99t-33.5 -72t-70 -47t-115.5 -15q-134 0 -180.5 56t-46.5 177zM201 223q0 -72 25 -99.5t83 -27.5q59 0 84 27.5t25 99.5v682q0 72 -25 99.5t-84 27.5q-58 0 -83 -27.5
t-25 -99.5v-682z" />
    <glyph glyph-name="p" unicode="p" 
d="M82 -379v1477q0 30 31 30h57q31 0 31 -30v-35q36 36 83.5 56t92.5 20q69 0 114.5 -44t45.5 -130v-801q0 -86 -45.5 -130t-114.5 -44q-45 0 -92.5 20t-83.5 56v-445q0 -31 -31 -31h-57q-31 0 -31 31zM201 233q0 -137 118 -137q57 0 78 27t21 100v682q0 73 -21 100t-78 27
q-118 0 -118 -137v-662z" />
    <glyph glyph-name="q" unicode="q" 
d="M82 164v801q0 86 45.5 130t114.5 44q45 0 92.5 -20t83.5 -56v35q0 30 31 30h57q31 0 31 -30v-1477q0 -31 -31 -31h-57q-31 0 -31 31v445q-36 -36 -83.5 -56t-92.5 -20q-69 0 -114.5 44t-45.5 130zM201 223q0 -74 20.5 -100.5t77.5 -26.5q119 0 119 137v662
q0 137 -119 137q-57 0 -77.5 -26.5t-20.5 -100.5v-682z" />
    <glyph glyph-name="r" unicode="r" horiz-adv-x="577" 
d="M82 31v1067q0 30 31 30h57q31 0 31 -30v-35q36 36 83.5 56t92.5 20q69 0 114.5 -44t45.5 -130v-310q0 -30 -31 -30h-57q-31 0 -31 30v250q0 73 -21 100t-78 27q-118 0 -118 -137v-864q0 -31 -31 -31h-57q-31 0 -31 31z" />
    <glyph glyph-name="s" unicode="s" 
d="M82 223v150q0 30 31 30h57q31 0 31 -30v-150q0 -72 25 -99.5t83 -27.5q59 0 84 27.5t25 99.5q0 68 -8 104.5t-20.5 55t-49.5 57.5q-10 11 -16 17l-148 149q-49 51 -71.5 112.5t-22.5 186.5q0 59 9 99t33 72.5t69.5 47.5t115.5 15q134 0 181 -56.5t47 -177.5v-149
q0 -31 -31 -31h-57q-31 0 -31 31v149q0 72 -25 99.5t-84 27.5q-58 0 -83 -27.5t-25 -99.5q0 -23 1 -40.5t1 -32t4 -28t4.5 -21.5t8 -20t9 -16.5t13 -17.5t14 -16t18.5 -19.5t21 -21.5l147 -150q49 -51 72 -113t23 -186q0 -59 -9 -99t-33.5 -72t-70 -47t-115.5 -15
q-134 0 -180.5 56t-46.5 177z" />
    <glyph glyph-name="t" unicode="t" horiz-adv-x="487" 
d="M10 1053v45q0 30 31 30h102v324q0 31 31 31h57q31 0 31 -31v-324h144q30 0 30 -30v-45q0 -31 -30 -31h-144v-760q0 -81 28 -118.5t109 -37.5h47q31 0 31 -30v-45q0 -31 -31 -31h-47q-79 0 -130.5 17t-78.5 53t-37 80.5t-10 111.5v760h-102q-31 0 -31 31z" />
    <glyph glyph-name="u" unicode="u" 
d="M82 164v934q0 30 31 30h57q31 0 31 -30v-875q0 -74 20.5 -100.5t77.5 -26.5q119 0 119 137v865q0 30 31 30h57q31 0 31 -30v-1067q0 -31 -31 -31h-57q-31 0 -31 31v35q-36 -36 -83.5 -56t-92.5 -20q-69 0 -114.5 44t-45.5 130z" />
    <glyph glyph-name="v" unicode="v" horiz-adv-x="540" 
d="M12 1092q-1 6 -1 10q0 26 28 26h55q20 0 28 -7t11 -27l90 -596l43 -348h8l43 348l91 596q3 20 10.5 27t27.5 7h56q27 0 27 -26q0 -5 -1 -10l-163 -1059q-6 -33 -39 -33h-111q-33 0 -39 33z" />
    <glyph glyph-name="w" unicode="w" horiz-adv-x="905" 
d="M12 1092q-1 6 -1 10q0 26 28 26h55q20 0 28 -7t11 -27l78 -596l35 -348h8l39 348l74 596q3 20 11 27t28 7h94q20 0 28 -7t11 -27l73 -596l39 -348h8l35 348l78 596q3 20 11 27t28 7h55q28 0 28 -26q0 -5 -1 -10l-143 -1059q-6 -33 -39 -33h-103q-33 0 -39 33l-77 598
l-35 348h-8l-35 -348l-78 -598q-6 -33 -39 -33h-102q-33 0 -39 33z" />
    <glyph glyph-name="x" unicode="x" horiz-adv-x="569" 
d="M23 39l202 526l-202 525q-2 6 -2 12q-1 7 3 14q6 12 21 12h64q28 0 36 -28l72 -197l64 -184h8l63 184l72 197q9 28 37 28h63q14 0 21 -12q4 -7 4 -15q0 -5 -2 -11l-203 -525l203 -526q2 -6 2 -11q0 -8 -4 -16q-7 -12 -21 -12h-63q-28 0 -37 29l-72 196l-63 185h-8
l-64 -185l-72 -196q-10 -29 -36 -29h-64q-15 0 -21 12q-4 7 -3 15q0 6 2 12z" />
    <glyph glyph-name="y" unicode="y" horiz-adv-x="540" 
d="M12 1092q-1 6 -1 10q0 26 28 26h55q20 0 28 -7t11 -27l90 -596l43 -348h8l43 348l91 596q3 20 10.5 27t27.5 7h56q27 0 27 -26q0 -4 -1 -10l-223 -1467q-3 -20 -10.5 -27.5t-28.5 -7.5h-55q-33 0 -27 37l64 373h-33q-34 0 -39 33z" />
    <glyph glyph-name="z" unicode="z" horiz-adv-x="462" 
d="M20 1053v45q0 30 31 30h357q30 0 30 -30v-45q0 -21 -6 -39l-280 -908h260q30 0 30 -30v-45q0 -31 -30 -31h-357q-30 0 -30 31v45q0 21 6 39l280 907h-260q-31 0 -31 31z" />
    <glyph glyph-name="braceleft" unicode="{" horiz-adv-x="530" 
d="M0 715v53q0 31 31 31q60 0 99 13.5t59 43.5t27 66t7 92v444q0 67 10 111.5t37 80.5t78.5 53t130.5 17q31 0 31 -30v-54q0 -30 -31 -30q-75 0 -102 -38t-27 -118v-391q0 -66 -7.5 -113.5t-26 -89.5t-54 -69.5t-88.5 -41.5v-8q102 -29 139 -104.5t37 -208.5v-391
q0 -80 27 -118t102 -38q31 0 31 -31v-53q0 -31 -31 -31q-79 0 -130.5 17t-78.5 53t-37 81t-10 112v444q0 55 -7 91t-27 66t-59 44t-99 14q-31 0 -31 31z" />
    <glyph glyph-name="bar" unicode="|" horiz-adv-x="274" 
d="M82 -379v1987q0 30 31 30h49q31 0 31 -30v-1987q0 -31 -31 -31h-49q-31 0 -31 31z" />
    <glyph glyph-name="braceright" unicode="}" horiz-adv-x="530" 
d="M20 -154q0 31 31 31q75 0 102 38t27 118v391q0 66 7.5 113.5t26 89t54 69t88.5 41.5v8q-102 29 -139 105t-37 209v391q0 80 -27 118t-102 38q-31 0 -31 30v54q0 30 31 30q79 0 130.5 -17t78.5 -53t37 -80.5t10 -111.5v-444q0 -112 39 -163.5t154 -51.5q30 0 30 -31v-53
q0 -31 -30 -31q-60 0 -99 -13.5t-59 -43t-27.5 -66t-7.5 -92.5v-444q0 -67 -10 -112t-37 -81t-78.5 -53t-130.5 -17q-31 0 -31 31v53z" />
    <glyph glyph-name="asciitilde" unicode="~" horiz-adv-x="899" 
d="M82 469v53q0 63 22.5 111t60 71.5t81.5 31t90 -7t84 -46.5l149 -127q43 -37 88 -17.5t45 76.5v54q0 30 31 30h53q31 0 31 -30v-54q0 -78 -35 -131.5t-86 -71.5t-110.5 -7t-106.5 51l-149 127q-43 37 -88 17t-45 -77v-53q0 -31 -31 -31h-53q-31 0 -31 31z" />
    <glyph glyph-name="uni00A0" unicode="&#xa0;" horiz-adv-x="368" 
 />
    <glyph glyph-name="exclamdown" unicode="&#xa1;" horiz-adv-x="434" 
d="M123 1044q0 41 26.5 68t67.5 27t67.5 -27t26.5 -68t-26.5 -67.5t-67.5 -26.5t-67.5 26.5t-26.5 67.5zM145 -324l21 1051q0 31 31 31h41q30 0 30 -31l21 -1051q0 -30 -31 -30h-82q-31 0 -31 30z" />
    <glyph glyph-name="cent" unicode="&#xa2;" 
d="M82 578v682q0 106 34.5 161t129.5 68v180q0 31 30 31h66q31 0 31 -31v-180q95 -13 129.5 -68t34.5 -161v-170q0 -31 -31 -31h-57q-31 0 -31 31v170q0 72 -25 99t-84 27t-83.5 -27t-24.5 -99v-682q0 -72 25 -99.5t83 -27.5q59 0 84 27.5t25 99.5v170q0 30 31 30h57
q31 0 31 -30v-170q0 -106 -34.5 -161.5t-129.5 -68.5v-180q0 -31 -31 -31h-66q-30 0 -30 31v180q-95 13 -129.5 68.5t-34.5 161.5z" />
    <glyph glyph-name="sterling" unicode="&#xa3;" horiz-adv-x="712" 
d="M82 1200q0 75 11 124.5t41 90t87.5 59.5t145.5 19t145.5 -19t87 -59.5t40.5 -90t11 -124.5v-129q0 -31 -30 -31h-66q-31 0 -31 31v129q0 93 -31.5 135.5t-125.5 42.5t-126 -42.5t-32 -135.5q0 -70 15.5 -130.5t40 -105t49.5 -84t48.5 -86t32.5 -92.5h168q31 0 31 -30v-54
q0 -30 -31 -30h-162q-13 -116 -79 -262l-97 -211h379q31 0 31 -31v-53q0 -31 -31 -31h-487q-31 0 -31 31v49q0 25 6 37l111 239q61 134 71 232h-157q-31 0 -31 30v54q0 30 31 30h149q-10 41 -33.5 84t-48 81.5t-48.5 84t-39 109t-15 139.5z" />
    <glyph glyph-name="currency" unicode="&#xa4;" horiz-adv-x="815" 
d="M53 440q-21 22 0 43l113 113q-43 67 -43 158t43 155l-113 115q-21 22 0 43l41 41q22 22 43 0l113 -115q70 45 158 45t155 -45l115 115q22 22 43 0l41 -41q22 -21 0 -43l-115 -115q45 -67 45 -155t-45 -158l115 -113q22 -21 0 -43l-41 -41q-21 -21 -43 0l-115 113
q-64 -43 -155 -43t-158 43l-113 -113q-21 -21 -43 0zM238 754q0 -72 49 -121t121 -49t121 49t49 121t-49 121t-121 49t-121 -49t-49 -121z" />
    <glyph glyph-name="yen" unicode="&#xa5;" horiz-adv-x="704" 
d="M23 1448q-4 14 3.5 24.5t18.5 10.5h76q26 0 33 -23l110 -358l84 -307h8l84 307l111 358q7 23 33 23h75q12 0 19.5 -11t3.5 -24l-258 -817h174q31 0 31 -31v-53q0 -31 -31 -31h-182v-485q0 -31 -31 -31h-66q-30 0 -30 31v485h-183q-30 0 -30 31v53q0 31 30 31h173z" />
    <glyph glyph-name="brokenbar" unicode="&#xa6;" horiz-adv-x="274" 
d="M82 -379v768q0 31 31 31h49q31 0 31 -31v-768q0 -31 -31 -31h-49q-31 0 -31 31zM82 840v768q0 30 31 30h49q31 0 31 -30v-768q0 -31 -31 -31h-49q-31 0 -31 31z" />
    <glyph glyph-name="section" unicode="&#xa7;" horiz-adv-x="733" 
d="M82 84q0 31 31 31h65q31 0 31 -31v-211q0 -93 32 -135.5t126 -42.5q91 0 124 36.5t33 100.5q0 80 -21 132.5t-91 131.5l-205 230q-64 71 -94.5 143.5t-30.5 198.5q0 151 125 231q-64 69 -94.5 142.5t-30.5 199.5q0 46 6.5 81.5t25 68.5t49.5 54.5t82.5 34.5t121.5 13
q88 0 145.5 -19t87 -59.5t40.5 -90t11 -124.5v-211q0 -31 -30 -31h-66q-31 0 -31 31v211q0 93 -31.5 135.5t-125.5 42.5q-91 0 -124.5 -37t-33.5 -100q0 -79 21.5 -132t91.5 -132l204 -229q64 -71 94.5 -143.5t30.5 -198.5q0 -155 -125 -232q64 -69 94.5 -142.5t30.5 -199.5
q0 -59 -11 -100.5t-40.5 -78t-87.5 -55t-145 -18.5q-88 0 -145.5 19t-87.5 59.5t-41 90t-11 124.5v211zM209 668q0 -78 21.5 -132t91.5 -133l124 -141q78 49 78 144q0 78 -21 131.5t-91 132.5l-125 139q-78 -49 -78 -141z" />
    <glyph glyph-name="dieresis" unicode="&#xa8;" horiz-adv-x="659" 
d="M123 1368q0 34 21 55t55 21t54.5 -21t20.5 -55t-20.5 -55t-54.5 -21t-55 21t-21 55zM385 1368q0 34 21 55t55 21t55 -21t21 -55t-21 -55t-55 -21t-55 21t-21 55z" />
    <glyph glyph-name="copyright" unicode="&#xa9;" horiz-adv-x="1544" 
d="M20 741q0 215 96.5 387t268.5 268.5t387 96.5t387 -96.5t268.5 -268.5t96.5 -387q0 -161 -56.5 -301t-155.5 -238.5t-239 -155t-301 -56.5t-301 56.5t-239 155t-155.5 238.5t-56.5 301zM139 741q0 -281 179 -463t454 -182t454 182t179 463t-179 463t-454 182t-454 -182
t-179 -463zM545 481v518q0 59 9 99t33 72.5t69.5 47.5t115.5 15t115.5 -15t69.5 -47.5t33 -72.5t9 -99v-108q0 -31 -30 -31h-58q-30 0 -30 31v108q0 72 -25 99.5t-84 27.5q-58 0 -83 -27.5t-25 -99.5v-518q0 -72 25 -99.5t83 -27.5q59 0 84 27.5t25 99.5v109q0 31 30 31h58
q30 0 30 -31v-109q0 -121 -46.5 -177t-180.5 -56t-180.5 56t-46.5 177z" />
    <glyph glyph-name="ordfeminine" unicode="&#xaa;" horiz-adv-x="378" 
d="M41 1006v106q0 65 36 97t113 32h43v117q0 49 -43 49q-45 0 -45 -49v-29q0 -33 -30 -33h-41q-15 0 -24 9t-9 24v31q0 65 36 97t113 32t112.5 -32t35.5 -97v-422q0 -14 -9 -22.5t-22 -8.5h-43q-31 0 -31 31v8q-45 -45 -102 -45q-39 0 -64.5 27t-25.5 78zM145 1040
q0 -26 10 -37.5t33 -11.5q45 0 45 51v117h-43q-24 0 -34.5 -10.5t-10.5 -36.5v-72z" />
    <glyph glyph-name="guillemotleft" unicode="&#xab;" horiz-adv-x="741" 
d="M82 565l162 404q10 22 35 22h69q14 0 21 -12.5t2 -26.5l-154 -387l154 -387q5 -14 -2 -26.5t-21 -12.5h-69q-25 0 -35 23zM369 565l161 404q10 22 35 22h70q14 0 20.5 -12.5t1.5 -26.5l-153 -387l153 -387q5 -14 -1.5 -26.5t-20.5 -12.5h-70q-25 0 -35 23z" />
    <glyph glyph-name="logicalnot" unicode="&#xac;" horiz-adv-x="839" 
d="M82 717v53q0 31 31 31h614q31 0 31 -31v-334q0 -30 -31 -30h-53q-31 0 -31 30v250h-530q-31 0 -31 31z" />
    <glyph glyph-name="uni00AD" unicode="&#xad;" horiz-adv-x="534" 
d="M41 541v53q0 31 31 31h391q31 0 31 -31v-53q0 -31 -31 -31h-391q-31 0 -31 31z" />
    <glyph glyph-name="registered" unicode="&#xae;" horiz-adv-x="1544" 
d="M20 741q0 215 96.5 387t268.5 268.5t387 96.5t387 -96.5t268.5 -268.5t96.5 -387q0 -161 -56.5 -301t-155.5 -238.5t-239 -155t-301 -56.5t-301 56.5t-239 155t-155.5 238.5t-56.5 301zM139 741q0 -281 179 -463t454 -182t454 182t179 463t-179 463t-454 182t-454 -182
t-179 -463zM555 299v903q0 31 31 31h168q79 0 130.5 -17t78.5 -53t37 -80.5t10 -111.5v-10q0 -110 -32.5 -171.5t-115.5 -82.5l178 -400q5 -14 -1.5 -26.5t-20.5 -12.5h-72q-28 0 -37 29l-172 401h-63v-399q0 -31 -31 -31h-57q-31 0 -31 31zM674 805h80q81 0 109 37.5
t28 118.5v10q0 80 -28 117.5t-109 37.5h-80v-321z" />
    <glyph glyph-name="macron" unicode="&#xaf;" horiz-adv-x="657" 
d="M123 1327v49q0 31 31 31h350q31 0 31 -31v-49q0 -31 -31 -31h-350q-31 0 -31 31z" />
    <glyph glyph-name="degree" unicode="&#xb0;" horiz-adv-x="528" 
d="M41 1270q0 95 64 159t159 64t159 -64t64 -159t-64 -159t-159 -64t-159 64t-64 159zM135 1270q0 -57 36 -95t93 -38t93 38t36 95t-36 95t-93 38t-93 -38t-36 -95z" />
    <glyph glyph-name="plusminus" unicode="&#xb1;" horiz-adv-x="839" 
d="M82 31v53q0 31 31 31h614q31 0 31 -31v-53q0 -31 -31 -31h-614q-31 0 -31 31zM82 717v53q0 31 31 31h249v250q0 30 31 30h53q31 0 31 -30v-250h250q31 0 31 -31v-53q0 -31 -31 -31h-250v-250q0 -30 -31 -30h-53q-31 0 -31 30v250h-249q-31 0 -31 31z" />
    <glyph glyph-name="uni00B2" unicode="&#xb2;" horiz-adv-x="430" 
d="M41 1030v41q0 15 8 31l203 340q27 44 27 88v57q0 70 -64 70q-35 0 -49 -17.5t-14 -52.5v-90q0 -33 -31 -33h-47q-15 0 -24 9t-9 24v90q0 80 40.5 119t133.5 39t133.5 -39t40.5 -119v-47q0 -78 -39 -141l-184 -301h192q14 0 22.5 -9t8.5 -22v-37q0 -15 -8.5 -24t-22.5 -9
h-284q-15 0 -24 9t-9 24z" />
    <glyph glyph-name="uni00B3" unicode="&#xb3;" horiz-adv-x="430" 
d="M41 1149v72q0 30 33 30h47q31 0 31 -30v-72q0 -70 63 -70q64 0 64 70v108q0 72 -70 72h-21q-15 0 -23.5 8.5t-8.5 22.5v22q0 14 8.5 22.5t23.5 8.5h21q38 0 54 18t16 54v102q0 70 -64 70q-35 0 -49 -17.5t-14 -52.5v-69q0 -33 -31 -33h-47q-15 0 -24 9t-9 24v69
q0 80 40.5 119t133.5 39t133.5 -39t40.5 -119v-61q0 -120 -92 -152v-6q92 -32 92 -151v-68q0 -80 -40.5 -119t-133.5 -39t-133.5 39t-40.5 119z" />
    <glyph glyph-name="acute" unicode="&#xb4;" horiz-adv-x="559" 
d="M133 1284l193 258q22 22 45 4l47 -41q25 -19 4 -43l-221 -235q-17 -23 -43 -4l-21 18q-25 22 -4 43z" />
    <glyph glyph-name="paragraph" unicode="&#xb6;" horiz-adv-x="874" 
d="M20 1198q0 87 22 145t67 88t97.5 41t127.5 11h510q30 0 30 -31v-49q0 -31 -30 -31h-193v-1751q0 -31 -30 -31h-62q-31 0 -31 31v1292h-194q-75 0 -127.5 11t-97.5 41t-67 88t-22 145zM143 1198q0 -97 45.5 -135.5t137.5 -38.5h202v348h-202q-92 0 -137.5 -38.5
t-45.5 -135.5z" />
    <glyph glyph-name="periodcentered" unicode="&#xb7;" horiz-adv-x="352" 
d="M82 741q0 41 26.5 68t67.5 27t67.5 -27t26.5 -68t-26.5 -67.5t-67.5 -26.5t-67.5 26.5t-26.5 67.5z" />
    <glyph glyph-name="cedilla" unicode="&#xb8;" horiz-adv-x="522" 
d="M123 -348q0 31 31 31h71q74 0 74 59t-74 59h-51q-31 0 -31 31v31q0 9 7 26l43 111h96l-43 -109q75 -5 114 -38.5t39 -110.5q0 -85 -43.5 -118.5t-130.5 -33.5h-71q-31 0 -31 31v31z" />
    <glyph glyph-name="uni00B9" unicode="&#xb9;" horiz-adv-x="284" 
d="M10 1577v25q0 30 33 30h51q39 0 39 41v35q0 31 33 31h47q31 0 31 -31v-678q0 -33 -31 -33h-47q-15 0 -24 9t-9 24v516h-90q-33 0 -33 31z" />
    <glyph glyph-name="ordmasculine" unicode="&#xba;" horiz-adv-x="378" 
d="M41 1032v328q0 65 36 97t113 32t112.5 -32t35.5 -97v-328q0 -66 -35.5 -98.5t-112.5 -32.5q-149 0 -149 131zM145 1034q0 -49 45 -49q43 0 43 49v324q0 49 -43 49q-45 0 -45 -49v-324z" />
    <glyph glyph-name="guillemotright" unicode="&#xbb;" horiz-adv-x="741" 
d="M84 178l154 387l-154 387q-5 14 1.5 26.5t20.5 12.5h70q25 0 35 -22l162 -404l-162 -403q-10 -23 -35 -23h-70q-14 0 -20.5 12.5t-1.5 26.5zM371 178l153 387l-153 387q-5 14 1.5 26.5t20.5 12.5h70q25 0 35 -22l161 -404l-161 -403q-10 -23 -35 -23h-70
q-14 0 -20.5 12.5t-1.5 26.5z" />
    <glyph glyph-name="onequarter" unicode="&#xbc;" horiz-adv-x="868" 
d="M10 1321v25q0 30 33 30h51q39 0 39 41v35q0 31 33 31h47q31 0 31 -31v-678q0 -33 -31 -33h-47q-15 0 -24 9t-9 24v516h-90q-33 0 -33 31zM102 37l529 1423q9 23 33 23h65q13 -1 19.5 -12t1.5 -25l-529 -1423q-9 -23 -33 -23h-65q-13 1 -19.5 12t-1.5 25zM465 178v41
q0 15 6 33l135 467q6 22 31 22h51q20 0 26.5 -14t2.5 -29l-137 -450h92v149q0 31 30 31h46q32 0 32 -31v-149h58q14 0 22 -9t8 -24v-37q0 -31 -30 -31h-58v-114q0 -33 -32 -33h-46q-30 0 -30 33v114h-174q-33 0 -33 31z" />
    <glyph glyph-name="onehalf" unicode="&#xbd;" horiz-adv-x="874" 
d="M10 1321v25q0 30 33 30h51q39 0 39 41v35q0 31 33 31h47q31 0 31 -31v-678q0 -33 -31 -33h-47q-15 0 -24 9t-9 24v516h-90q-33 0 -33 31zM102 37l529 1423q9 23 33 23h65q13 -1 19.5 -12t1.5 -25l-529 -1423q-9 -23 -33 -23h-65q-13 1 -19.5 12t-1.5 25zM547 33v41
q0 14 8 30l203 340q26 42 26 88v58q0 34 -14 51.5t-49 17.5t-49.5 -17.5t-14.5 -51.5v-90q0 -33 -30 -33h-47q-15 0 -24 9t-9 24v90q0 80 40.5 119t133.5 39t133.5 -39t40.5 -119v-47q0 -79 -39 -142l-184 -301h192q14 0 22.5 -8.5t8.5 -21.5v-37q0 -15 -8.5 -24t-22.5 -9
h-284q-15 0 -24 9t-9 24z" />
    <glyph glyph-name="threequarters" unicode="&#xbe;" horiz-adv-x="952" 
d="M41 893v72q0 30 33 30h47q31 0 31 -30v-72q0 -70 63 -70q64 0 64 70v108q0 72 -70 72h-21q-15 0 -23.5 8.5t-8.5 22.5v22q0 14 8.5 22.5t23.5 8.5h21q38 0 54 18t16 54v102q0 70 -64 70q-35 0 -49 -17.5t-14 -52.5v-69q0 -33 -31 -33h-47q-15 0 -24 9t-9 24v69
q0 80 40.5 119t133.5 39t133.5 -39t40.5 -119v-61q0 -120 -92 -152v-6q92 -32 92 -151v-68q0 -80 -40.5 -119t-133.5 -39t-133.5 39t-40.5 119zM186 37l529 1423q9 23 33 23h65q13 -1 19.5 -12t1.5 -25l-529 -1423q-9 -23 -33 -23h-65q-13 1 -19.5 12t-1.5 25zM549 178v41
q0 15 6 33l135 467q6 22 31 22h51q20 0 26.5 -14t2.5 -29l-137 -450h92v149q0 31 30 31h45q33 0 33 -31v-149h58q14 0 22 -9t8 -24v-37q0 -31 -30 -31h-58v-114q0 -15 -9 -24t-24 -9h-45q-30 0 -30 33v114h-174q-33 0 -33 31z" />
    <glyph glyph-name="questiondown" unicode="&#xbf;" horiz-adv-x="692" 
d="M61 -55q0 74 23 140t56 118.5t66 106.5t56 128t23 160v129q0 31 30 31h62q31 0 31 -31v-109q0 -100 -23 -185t-56 -143.5t-66 -110.5t-56 -109t-23 -115v-27q0 -94 33.5 -138t128.5 -44t128.5 44t33.5 138v129q0 31 31 31h61q31 0 31 -31v-129q0 -75 -11 -124.5t-41 -90
t-87.5 -59.5t-145.5 -19t-145.5 19t-87.5 59.5t-41 90t-11 124.5v17zM252 1044q0 41 26.5 68t67.5 27t67.5 -27t26.5 -68t-26.5 -67.5t-67.5 -26.5t-67.5 26.5t-26.5 67.5z" />
    <glyph glyph-name="Agrave" unicode="&#xc0;" horiz-adv-x="696" 
d="M23 33l219 1417q3 33 34 33h144q32 0 35 -33l219 -1417q1 -15 -6 -24t-19 -9h-74q-27 0 -30 31l-47 305h-299l-47 -305q-4 -31 -31 -31h-74q-13 0 -19.5 9.5t-4.5 23.5zM104 1755l31 53q16 28 43 13l283 -183q26 -16 10 -41l-14 -26q-16 -26 -41 -10l-299 151
q-28 16 -13 43zM215 451h264l-84 557l-43 348h-8l-43 -348z" />
    <glyph glyph-name="Aacute" unicode="&#xc1;" horiz-adv-x="696" 
d="M23 33l219 1417q3 33 34 33h144q32 0 35 -33l219 -1417q1 -15 -6 -24t-19 -9h-74q-27 0 -30 31l-47 305h-299l-47 -305q-4 -31 -31 -31h-74q-13 0 -19.5 9.5t-4.5 23.5zM215 451h264l-84 557l-43 348h-8l-43 -348zM227 1597q-15 25 11 41l282 183q27 15 43 -13l31 -53
q15 -28 -12 -43l-299 -151q-25 -16 -41 10z" />
    <glyph glyph-name="Acircumflex" unicode="&#xc2;" horiz-adv-x="696" 
d="M23 33l219 1417q3 33 34 33h144q32 0 35 -33l219 -1417q1 -15 -6 -24t-19 -9h-74q-27 0 -30 31l-47 305h-299l-47 -305q-4 -31 -31 -31h-74q-13 0 -19.5 9.5t-4.5 23.5zM78 1593q-15 25 6 43l225 181q11 8 21 8h37q9 0 20 -8l225 -181q21 -18 6 -43l-14 -22
q-15 -24 -45 -8l-211 127l-211 -127q-30 -16 -45 8zM215 451h264l-84 557l-43 348h-8l-43 -348z" />
    <glyph glyph-name="Atilde" unicode="&#xc3;" horiz-adv-x="696" 
d="M23 33l219 1417q3 33 34 33h144q32 0 35 -33l219 -1417q1 -15 -6 -24t-19 -9h-74q-27 0 -30 31l-47 305h-299l-47 -305q-4 -31 -31 -31h-74q-13 0 -19.5 9.5t-4.5 23.5zM86 1595v33q0 78 46 121.5t107.5 41.5t108.5 -44l84 -70q25 -23 52.5 -11t27.5 52v33q0 31 31 31h37
q30 0 30 -31v-33q0 -78 -46 -121t-107.5 -41t-108.5 43l-84 70q-25 23 -52.5 11t-27.5 -52v-33q0 -30 -30 -30h-37q-31 0 -31 30zM215 451h264l-84 557l-43 348h-8l-43 -348z" />
    <glyph glyph-name="Adieresis" unicode="&#xc4;" horiz-adv-x="696" 
d="M23 33l219 1417q3 33 34 33h144q32 0 35 -33l219 -1417q1 -15 -6 -24t-19 -9h-74q-27 0 -30 31l-47 305h-299l-47 -305q-4 -31 -31 -31h-74q-13 0 -19.5 9.5t-4.5 23.5zM113 1671q0 35 22.5 57.5t57.5 22.5t57 -22.5t22 -57.5t-22 -57.5t-57 -22.5t-57.5 22.5t-22.5 57.5
zM215 451h264l-84 557l-43 348h-8l-43 -348zM424 1671q0 35 22.5 57.5t57.5 22.5t57.5 -22.5t22.5 -57.5t-22.5 -57.5t-57.5 -22.5t-57.5 22.5t-22.5 57.5z" />
    <glyph glyph-name="Aring" unicode="&#xc5;" horiz-adv-x="696" 
d="M23 33l219 1417q3 33 34 33h144q32 0 35 -33l219 -1417q1 -15 -6 -24t-19 -9h-74q-27 0 -30 31l-47 305h-299l-47 -305q-4 -31 -31 -31h-74q-13 0 -19.5 9.5t-4.5 23.5zM186 1673q0 72 45 117t117 45t117 -45t45 -117t-45 -117t-117 -45t-117 45t-45 117zM215 451h264
l-84 557l-43 348h-8l-43 -348zM270 1673q0 -36 21.5 -59t56.5 -23t56.5 23t21.5 59t-21.5 59t-56.5 23t-56.5 -23t-21.5 -59z" />
    <glyph glyph-name="AE" unicode="&#xc6;" horiz-adv-x="1034" 
d="M4 13q-6 13 0 26l418 1419q3 11 14 18t23 7h524q31 0 31 -31v-53q0 -31 -31 -31h-350v-569h272q31 0 31 -31v-53q0 -31 -31 -31h-272v-569h350q31 0 31 -31v-53q0 -31 -31 -31h-446q-31 0 -31 31v305h-287l-86 -316q-5 -20 -24 -20h-82q-17 0 -23 13zM252 451h254v897h-8
l-97 -365z" />
    <glyph glyph-name="Ccedilla" unicode="&#xc7;" horiz-adv-x="733" 
d="M82 283v917q0 75 11 124.5t41 90t87.5 59.5t145.5 19t145.5 -19t87 -59.5t40.5 -90t11 -124.5v-252q0 -30 -30 -30h-66q-31 0 -31 30v252q0 93 -31.5 135.5t-125.5 42.5t-126 -42.5t-32 -135.5v-917q0 -93 32 -136t126 -43t125.5 43t31.5 136v252q0 30 31 30h66
q30 0 30 -30v-252q0 -71 -9.5 -118.5t-34.5 -87t-74 -60.5t-123 -25l-39 -101q75 -5 114 -38.5t39 -110.5q0 -85 -43.5 -118.5t-130.5 -33.5h-71q-31 0 -31 31v31q0 31 31 31h71q74 0 74 59t-74 59h-51q-31 0 -31 31v31q0 11 6 26l39 103q-58 4 -99 19.5t-66.5 39
t-40.5 60.5t-20 77t-5 95z" />
    <glyph glyph-name="Egrave" unicode="&#xc8;" horiz-adv-x="610" 
d="M82 31v1421q0 31 31 31h446q31 0 31 -31v-53q0 -31 -31 -31h-350v-569h272q31 0 31 -31v-53q0 -31 -31 -31h-272v-569h350q31 0 31 -31v-53q0 -31 -31 -31h-446q-31 0 -31 31zM133 1755l31 53q16 28 43 13l282 -183q26 -16 11 -41l-15 -26q-16 -26 -41 -10l-299 151
q-27 15 -12 43z" />
    <glyph glyph-name="Eacute" unicode="&#xc9;" horiz-adv-x="610" 
d="M82 31v1421q0 31 31 31h446q31 0 31 -31v-53q0 -31 -31 -31h-350v-569h272q31 0 31 -31v-53q0 -31 -31 -31h-272v-569h350q31 0 31 -31v-53q0 -31 -31 -31h-446q-31 0 -31 31zM174 1597q-16 25 10 41l283 183q27 15 43 -13l31 -53q15 -27 -13 -43l-299 -151
q-25 -16 -41 10z" />
    <glyph glyph-name="Ecircumflex" unicode="&#xca;" horiz-adv-x="610" 
d="M66 1593q-15 25 6 43l225 181q11 8 20 8h37q10 0 21 -8l225 -181q21 -18 6 -43l-14 -22q-15 -24 -45 -8l-211 127l-211 -127q-30 -16 -45 8zM82 31v1421q0 31 31 31h446q31 0 31 -31v-53q0 -31 -31 -31h-350v-569h272q31 0 31 -31v-53q0 -31 -31 -31h-272v-569h350
q31 0 31 -31v-53q0 -31 -31 -31h-446q-31 0 -31 31z" />
    <glyph glyph-name="Edieresis" unicode="&#xcb;" horiz-adv-x="610" 
d="M82 31v1421q0 31 31 31h446q31 0 31 -31v-53q0 -31 -31 -31h-350v-569h272q31 0 31 -31v-53q0 -31 -31 -31h-272v-569h350q31 0 31 -31v-53q0 -31 -31 -31h-446q-31 0 -31 31zM100 1671q0 35 22.5 57.5t57.5 22.5t57.5 -22.5t22.5 -57.5t-22.5 -57.5t-57.5 -22.5
t-57.5 22.5t-22.5 57.5zM412 1671q0 35 22.5 57.5t57.5 22.5t57 -22.5t22 -57.5t-22 -57.5t-57 -22.5t-57.5 22.5t-22.5 57.5z" />
    <glyph glyph-name="Igrave" unicode="&#xcc;" horiz-adv-x="290" 
d="M-119 1755l31 53q16 28 43 13l283 -183q26 -16 10 -41l-15 -26q-16 -25 -40 -10l-299 151q-28 16 -13 43zM82 31v1421q0 31 31 31h65q31 0 31 -31v-1421q0 -31 -31 -31h-65q-31 0 -31 31z" />
    <glyph glyph-name="Iacute" unicode="&#xcd;" horiz-adv-x="290" 
d="M45 1597q-16 25 10 41l283 183q27 15 43 -13l31 -53q15 -27 -13 -43l-299 -151q-25 -16 -41 10zM82 31v1421q0 31 31 31h65q31 0 31 -31v-1421q0 -31 -31 -31h-65q-31 0 -31 31z" />
    <glyph glyph-name="Icircumflex" unicode="&#xce;" horiz-adv-x="290" 
d="M-125 1593q-15 25 6 43l225 181q11 8 21 8h37q9 0 20 -8l226 -181q21 -18 6 -43l-15 -22q-15 -24 -45 -8l-211 127l-211 -127q-30 -16 -45 8zM82 31v1421q0 31 31 31h65q31 0 31 -31v-1421q0 -31 -31 -31h-65q-31 0 -31 31z" />
    <glyph glyph-name="Idieresis" unicode="&#xcf;" horiz-adv-x="290" 
d="M-90 1671q0 35 22.5 57.5t57.5 22.5t57.5 -22.5t22.5 -57.5t-22.5 -57.5t-57.5 -22.5t-57.5 22.5t-22.5 57.5zM82 31v1421q0 31 31 31h65q31 0 31 -31v-1421q0 -31 -31 -31h-65q-31 0 -31 31zM221 1671q0 35 22.5 57.5t57.5 22.5t57.5 -22.5t22.5 -57.5t-22.5 -57.5
t-57.5 -22.5t-57.5 22.5t-22.5 57.5z" />
    <glyph glyph-name="Eth" unicode="&#xd0;" horiz-adv-x="712" 
d="M-41 717v49q0 31 31 31h92v655q0 31 31 31h198q99 0 163.5 -21.5t98 -67t46 -101.5t12.5 -140v-823q0 -85 -12.5 -141t-46 -101.5t-98 -66.5t-163.5 -21h-198q-31 0 -31 31v655h-92q-31 0 -31 31zM209 115h102q60 0 99 13.5t59 43t27.5 66t7.5 92.5v823q0 112 -39 163.5
t-154 51.5h-102v-571h135q31 0 31 -31v-49q0 -31 -31 -31h-135v-571z" />
    <glyph glyph-name="Ntilde" unicode="&#xd1;" horiz-adv-x="733" 
d="M82 31v1421q0 31 31 31h98q27 0 35 -31l221 -877l61 -282h9l-13 291v868q0 31 31 31h66q30 0 30 -31v-1421q0 -31 -30 -31h-99q-27 0 -35 31l-221 876l-61 283h-8l12 -291v-868q0 -31 -31 -31h-65q-31 0 -31 31zM104 1595v33q0 78 46 121.5t108 41.5t109 -44l84 -70
q25 -23 52 -11t27 52v33q0 31 31 31h37q31 0 31 -31v-33q0 -78 -46 -121t-107.5 -41t-108.5 43l-84 70q-25 23 -52.5 11t-27.5 -52v-33q0 -30 -31 -30h-37q-31 0 -31 30z" />
    <glyph glyph-name="Ograve" unicode="&#xd2;" horiz-adv-x="733" 
d="M82 283v917q0 75 11 124.5t41 90t87.5 59.5t145.5 19t145.5 -19t87 -59.5t40.5 -90t11 -124.5v-917q0 -75 -11 -125t-41 -90.5t-87 -59t-145 -18.5t-145.5 18.5t-87.5 59t-41 90.5t-11 125zM164 1755l31 53q16 28 43 13l282 -183q26 -16 10 -41l-14 -26q-16 -26 -41 -10
l-299 151q-27 15 -12 43zM209 283q0 -93 32 -136t126 -43t125.5 43t31.5 136v917q0 93 -31.5 135.5t-125.5 42.5t-126 -42.5t-32 -135.5v-917z" />
    <glyph glyph-name="Oacute" unicode="&#xd3;" horiz-adv-x="733" 
d="M82 283v917q0 75 11 124.5t41 90t87.5 59.5t145.5 19t145.5 -19t87 -59.5t40.5 -90t11 -124.5v-917q0 -75 -11 -125t-41 -90.5t-87 -59t-145 -18.5t-145.5 18.5t-87.5 59t-41 90.5t-11 125zM205 1597q-16 25 10 41l283 183q27 15 43 -13l30 -53q15 -28 -12 -43l-299 -151
q-25 -16 -41 10zM209 283q0 -93 32 -136t126 -43t125.5 43t31.5 136v917q0 93 -31.5 135.5t-125.5 42.5t-126 -42.5t-32 -135.5v-917z" />
    <glyph glyph-name="Ocircumflex" unicode="&#xd4;" horiz-adv-x="733" 
d="M82 283v917q0 75 11 124.5t41 90t87.5 59.5t145.5 19t145.5 -19t87 -59.5t40.5 -90t11 -124.5v-917q0 -75 -11 -125t-41 -90.5t-87 -59t-145 -18.5t-145.5 18.5t-87.5 59t-41 90.5t-11 125zM96 1593q-15 25 6 43l226 181q11 8 20 8h37q10 0 21 -8l225 -181q21 -18 6 -43
l-14 -22q-15 -24 -45 -8l-211 127l-211 -127q-30 -16 -45 8zM209 283q0 -93 32 -136t126 -43t125.5 43t31.5 136v917q0 93 -31.5 135.5t-125.5 42.5t-126 -42.5t-32 -135.5v-917z" />
    <glyph glyph-name="Otilde" unicode="&#xd5;" horiz-adv-x="733" 
d="M82 283v917q0 75 11 124.5t41 90t87.5 59.5t145.5 19t145.5 -19t87 -59.5t40.5 -90t11 -124.5v-917q0 -75 -11 -125t-41 -90.5t-87 -59t-145 -18.5t-145.5 18.5t-87.5 59t-41 90.5t-11 125zM104 1595v33q0 78 46 121.5t108 41.5t109 -44l84 -70q25 -23 52 -11t27 52v33
q0 31 31 31h37q31 0 31 -31v-33q0 -78 -46 -121t-107.5 -41t-108.5 43l-84 70q-25 23 -52.5 11t-27.5 -52v-33q0 -30 -31 -30h-37q-31 0 -31 30zM209 283q0 -93 32 -136t126 -43t125.5 43t31.5 136v917q0 93 -31.5 135.5t-125.5 42.5t-126 -42.5t-32 -135.5v-917z" />
    <glyph glyph-name="Odieresis" unicode="&#xd6;" horiz-adv-x="733" 
d="M82 283v917q0 75 11 124.5t41 90t87.5 59.5t145.5 19t145.5 -19t87 -59.5t40.5 -90t11 -124.5v-917q0 -75 -11 -125t-41 -90.5t-87 -59t-145 -18.5t-145.5 18.5t-87.5 59t-41 90.5t-11 125zM131 1671q0 35 22.5 57.5t57.5 22.5t57.5 -22.5t22.5 -57.5t-22.5 -57.5
t-57.5 -22.5t-57.5 22.5t-22.5 57.5zM209 283q0 -93 32 -136t126 -43t125.5 43t31.5 136v917q0 93 -31.5 135.5t-125.5 42.5t-126 -42.5t-32 -135.5v-917zM442 1671q0 35 22.5 57.5t57.5 22.5t57.5 -22.5t22.5 -57.5t-22.5 -57.5t-57.5 -22.5t-57.5 22.5t-22.5 57.5z" />
    <glyph glyph-name="multiply" unicode="&#xd7;" horiz-adv-x="790" 
d="M94 479q-21 21 0 45l219 219l-219 220q-21 24 0 45l37 36q21 21 45 0l219 -219l219 219q24 21 45 0l37 -36q21 -21 0 -45l-219 -220l219 -219q21 -24 0 -45l-37 -37q-21 -21 -45 0l-219 220l-219 -220q-24 -21 -45 0z" />
    <glyph glyph-name="Oslash" unicode="&#xd8;" horiz-adv-x="733" 
d="M82 283v917q0 75 11 124.5t41 90t87.5 59.5t145.5 19q89 0 145 -20l31 116q6 32 37 23l38 -10q29 -9 23 -39l-41 -150q51 -61 51 -213v-917q0 -75 -11 -125t-41 -90.5t-87 -59t-145 -18.5q-91 0 -146 18l-31 -114q-6 -32 -36 -23l-39 10q-29 9 -23 39l39 148
q-49 64 -49 215zM199 303l8 -2l84 352l188 697q-39 28 -112 28q-94 0 -126 -42.5t-32 -135.5v-522zM254 133q40 -29 113 -29q94 0 125.5 43t31.5 136v522l11 375l-9 2l-84 -353z" />
    <glyph glyph-name="Ugrave" unicode="&#xd9;" horiz-adv-x="733" 
d="M82 283v1169q0 31 31 31h65q31 0 31 -31v-1169q0 -93 32 -136t126 -43t125.5 43t31.5 136v1169q0 31 31 31h66q30 0 30 -31v-1169q0 -75 -11 -125t-41 -90.5t-87 -59t-145 -18.5t-145.5 18.5t-87.5 59t-41 90.5t-11 125zM143 1755l31 53q16 28 43 13l283 -183
q26 -16 10 -41l-14 -26q-16 -26 -41 -10l-299 151q-28 16 -13 43z" />
    <glyph glyph-name="Uacute" unicode="&#xda;" horiz-adv-x="733" 
d="M82 283v1169q0 31 31 31h65q31 0 31 -31v-1169q0 -93 32 -136t126 -43t125.5 43t31.5 136v1169q0 31 31 31h66q30 0 30 -31v-1169q0 -75 -11 -125t-41 -90.5t-87 -59t-145 -18.5t-145.5 18.5t-87.5 59t-41 90.5t-11 125zM225 1597q-15 25 11 41l282 183q27 15 43 -13
l31 -53q15 -28 -12 -43l-299 -151q-25 -16 -41 10z" />
    <glyph glyph-name="Ucircumflex" unicode="&#xdb;" horiz-adv-x="733" 
d="M82 283v1169q0 31 31 31h65q31 0 31 -31v-1169q0 -93 32 -136t126 -43t125.5 43t31.5 136v1169q0 31 31 31h66q30 0 30 -31v-1169q0 -75 -11 -125t-41 -90.5t-87 -59t-145 -18.5t-145.5 18.5t-87.5 59t-41 90.5t-11 125zM96 1593q-15 25 6 43l226 181q11 8 20 8h37
q10 0 21 -8l225 -181q21 -18 6 -43l-14 -22q-15 -24 -45 -8l-211 127l-211 -127q-30 -16 -45 8z" />
    <glyph glyph-name="Udieresis" unicode="&#xdc;" horiz-adv-x="733" 
d="M82 283v1169q0 31 31 31h65q31 0 31 -31v-1169q0 -93 32 -136t126 -43t125.5 43t31.5 136v1169q0 31 31 31h66q30 0 30 -31v-1169q0 -75 -11 -125t-41 -90.5t-87 -59t-145 -18.5t-145.5 18.5t-87.5 59t-41 90.5t-11 125zM131 1671q0 35 22.5 57.5t57.5 22.5t57.5 -22.5
t22.5 -57.5t-22.5 -57.5t-57.5 -22.5t-57.5 22.5t-22.5 57.5zM442 1671q0 35 22.5 57.5t57.5 22.5t57.5 -22.5t22.5 -57.5t-22.5 -57.5t-57.5 -22.5t-57.5 22.5t-22.5 57.5z" />
    <glyph glyph-name="Yacute" unicode="&#xdd;" horiz-adv-x="704" 
d="M23 1448q-4 14 3.5 24.5t18.5 10.5h76q26 0 33 -23l110 -358l84 -307h8l84 307l111 358q7 23 33 23h75q12 0 19.5 -11t3.5 -24l-266 -848v-569q0 -31 -31 -31h-66q-30 0 -30 31v569zM211 1597q-16 25 10 41l283 183q27 15 43 -13l31 -53q15 -27 -13 -43l-299 -151
q-25 -16 -41 10z" />
    <glyph glyph-name="Thorn" unicode="&#xde;" horiz-adv-x="671" 
d="M82 31v1421q0 31 31 31h65q31 0 31 -31v-283h102q80 0 137 -15t92.5 -41t55.5 -68.5t27.5 -90t7.5 -114.5v-197q0 -85 -12.5 -141t-46 -101.5t-98 -66.5t-163.5 -21h-102v-282q0 -31 -31 -31h-65q-31 0 -31 31zM209 428h102q60 0 99 13.5t59 43t27.5 66t7.5 92.5v197
q0 112 -39 163.5t-154 51.5h-102v-627z" />
    <glyph glyph-name="germandbls" unicode="&#xdf;" horiz-adv-x="675" 
d="M82 31v1355q0 66 10 111t37 81.5t78.5 53.5t130.5 17t130.5 -17t78.5 -53.5t37 -81.5t10 -111v-178q0 -71 -11 -118t-44 -82.5t-90 -49.5v-10q57 -14 90 -49.5t44 -82.5t11 -118v-465q0 -121 -46.5 -177t-180.5 -56h-54q-30 0 -30 31v45q0 30 30 30h54q58 0 83 27.5
t25 99.5v510q0 81 -28 118.5t-109 37.5h-25q-30 0 -30 31v45q0 31 30 31h25q81 0 109 37.5t28 117.5v225q0 81 -28 118.5t-109 37.5t-109 -37.5t-28 -118.5v-1355q0 -31 -31 -31h-57q-31 0 -31 31z" />
    <glyph glyph-name="agrave" unicode="&#xe0;" 
d="M82 164v221q0 121 46.5 177t180.5 56h109v287q0 72 -25 99.5t-84 27.5q-58 0 -83 -27.5t-25 -99.5v-108q0 -31 -31 -31h-57q-31 0 -31 31v108q0 59 9 99t33 72.5t69.5 47.5t115.5 15t115.5 -15t69.5 -47.5t33 -72t10 -99.5v-874q0 -31 -31 -31h-57q-31 0 -31 31v35
q-36 -36 -83.5 -56t-92.5 -20q-69 0 -114.5 44t-45.5 130zM125 1462q-21 24 4 43l47 41q23 18 45 -4l193 -258q21 -21 -4 -43l-21 -18q-26 -19 -43 4zM201 223q0 -74 20.5 -100.5t77.5 -26.5q119 0 119 137v279h-109q-58 0 -83 -27.5t-25 -99.5v-162z" />
    <glyph glyph-name="aacute" unicode="&#xe1;" 
d="M82 164v221q0 121 46.5 177t180.5 56h109v287q0 72 -25 99.5t-84 27.5q-58 0 -83 -27.5t-25 -99.5v-108q0 -31 -31 -31h-57q-31 0 -31 31v108q0 59 9 99t33 72.5t69.5 47.5t115.5 15t115.5 -15t69.5 -47.5t33 -72t10 -99.5v-874q0 -31 -31 -31h-57q-31 0 -31 31v35
q-36 -36 -83.5 -56t-92.5 -20q-69 0 -114.5 44t-45.5 130zM201 223q0 -74 20.5 -100.5t77.5 -26.5q119 0 119 137v279h-109q-58 0 -83 -27.5t-25 -99.5v-162zM207 1284l192 258q22 22 45 4l48 -41q25 -19 4 -43l-222 -235q-17 -23 -43 -4l-20 18q-25 22 -4 43z" />
    <glyph glyph-name="acircumflex" unicode="&#xe2;" 
d="M82 164v221q0 121 46.5 177t180.5 56h109v287q0 72 -25 99.5t-84 27.5q-58 0 -83 -27.5t-25 -99.5v-108q0 -31 -31 -31h-57q-31 0 -31 31v108q0 59 9 99t33 72.5t69.5 47.5t115.5 15t115.5 -15t69.5 -47.5t33 -72t10 -99.5v-874q0 -31 -31 -31h-57q-31 0 -31 31v35
q-36 -36 -83.5 -56t-92.5 -20q-69 0 -114.5 44t-45.5 130zM92 1282l172 260q10 17 33 17h25q22 0 32 -17l172 -260q14 -22 -6 -39l-22 -18q-23 -18 -41 6l-148 180l-147 -180q-18 -24 -41 -6l-23 18q-20 17 -6 39zM201 223q0 -74 20.5 -100.5t77.5 -26.5q119 0 119 137v279
h-109q-58 0 -83 -27.5t-25 -99.5v-162z" />
    <glyph glyph-name="atilde" unicode="&#xe3;" 
d="M57 1296v58q0 70 48.5 109.5t114.5 31.5t112 -63l45 -54q28 -30 57 -19t29 42v51q0 31 31 31h36q31 0 31 -31v-57q0 -52 -29.5 -88.5t-71.5 -48t-90 3t-83 55.5l-45 53q-28 30 -57 19.5t-29 -41.5v-52q0 -30 -31 -30h-37q-31 0 -31 30zM82 164v221q0 121 46.5 177
t180.5 56h109v287q0 72 -25 99.5t-84 27.5q-58 0 -83 -27.5t-25 -99.5v-108q0 -31 -31 -31h-57q-31 0 -31 31v108q0 59 9 99t33 72.5t69.5 47.5t115.5 15t115.5 -15t69.5 -47.5t33 -72t10 -99.5v-874q0 -31 -31 -31h-57q-31 0 -31 31v35q-36 -36 -83.5 -56t-92.5 -20
q-69 0 -114.5 44t-45.5 130zM201 223q0 -74 20.5 -100.5t77.5 -26.5q119 0 119 137v279h-109q-58 0 -83 -27.5t-25 -99.5v-162z" />
    <glyph glyph-name="adieresis" unicode="&#xe4;" 
d="M82 164v221q0 121 46.5 177t180.5 56h109v287q0 72 -25 99.5t-84 27.5q-58 0 -83 -27.5t-25 -99.5v-108q0 -31 -31 -31h-57q-31 0 -31 31v108q0 59 9 99t33 72.5t69.5 47.5t115.5 15t115.5 -15t69.5 -47.5t33 -72t10 -99.5v-874q0 -31 -31 -31h-57q-31 0 -31 31v35
q-36 -36 -83.5 -56t-92.5 -20q-69 0 -114.5 44t-45.5 130zM104 1368q0 34 21 55t55 21t55 -21t21 -55t-21 -55t-55 -21t-55 21t-21 55zM201 223q0 -74 20.5 -100.5t77.5 -26.5q119 0 119 137v279h-109q-58 0 -83 -27.5t-25 -99.5v-162zM367 1368q0 34 20.5 55t54.5 21
t55 -21t21 -55t-21 -55t-55 -21t-54.5 21t-20.5 55z" />
    <glyph glyph-name="aring" unicode="&#xe5;" 
d="M82 164v221q0 121 46.5 177t180.5 56h109v287q0 72 -25 99.5t-84 27.5q-58 0 -83 -27.5t-25 -99.5v-108q0 -31 -31 -31h-57q-31 0 -31 31v108q0 59 9 99t33 72.5t69.5 47.5t115.5 15t115.5 -15t69.5 -47.5t33 -72t10 -99.5v-874q0 -31 -31 -31h-57q-31 0 -31 31v35
q-36 -36 -83.5 -56t-92.5 -20q-69 0 -114.5 44t-45.5 130zM147 1384q0 72 45 117t117 45t117 -45t45 -117t-45 -116.5t-117 -44.5t-117 44.5t-45 116.5zM201 223q0 -74 20.5 -100.5t77.5 -26.5q119 0 119 137v279h-109q-58 0 -83 -27.5t-25 -99.5v-162zM231 1384
q0 -36 21.5 -58.5t56.5 -22.5t56.5 22.5t21.5 58.5t-21.5 59t-56.5 23t-56.5 -23t-21.5 -59z" />
    <glyph glyph-name="ae" unicode="&#xe6;" horiz-adv-x="954" 
d="M82 164v221q0 121 46.5 177t180.5 56h109v287q0 72 -25 99.5t-84 27.5q-58 0 -83 -27.5t-25 -99.5v-108q0 -31 -31 -31h-57q-31 0 -31 31v108q0 59 9 99t33 72.5t69.5 47.5t115.5 15q113 0 168 -64q55 64 168 64q70 0 115.5 -15t69.5 -47.5t33 -72.5t9 -99v-362
q0 -31 -30 -31h-305v-289q0 -72 25 -99.5t83 -27.5q59 0 84 27.5t25 99.5v88q0 31 30 31h58q30 0 30 -31v-88q0 -121 -46.5 -177t-180.5 -56q-59 0 -109 23t-69 57q-44 -46 -97.5 -63t-127.5 -17q-69 0 -114.5 44t-45.5 130zM201 223q0 -74 20.5 -100.5t77.5 -26.5
q119 0 119 137v279h-109q-58 0 -83 -27.5t-25 -99.5v-162zM537 618h217v287q0 72 -25 99.5t-84 27.5q-58 0 -83 -27.5t-25 -99.5v-287z" />
    <glyph glyph-name="ccedilla" unicode="&#xe7;" 
d="M82 223v682q0 59 9 99t33 72.5t69.5 47.5t115.5 15q134 0 181 -56.5t47 -177.5v-170q0 -30 -31 -30h-57q-31 0 -31 30v170q0 72 -25 99.5t-84 27.5q-58 0 -83 -27.5t-25 -99.5v-682q0 -72 25 -99.5t83 -27.5q59 0 84 27.5t25 99.5v170q0 31 31 31h57q31 0 31 -31v-170
q0 -109 -37 -165t-138 -66l-38 -101q75 -5 114 -38.5t39 -110.5q0 -85 -43.5 -118.5t-130.5 -33.5h-72q-30 0 -30 31v31q0 31 30 31h72q74 0 74 59t-74 59h-51q-31 0 -31 31v31q0 11 6 26l39 103q-108 7 -146 62.5t-38 168.5z" />
    <glyph glyph-name="egrave" unicode="&#xe8;" 
d="M82 223v682q0 59 9 99t33 72.5t69.5 47.5t115.5 15q134 0 181 -56.5t47 -177.5v-362q0 -31 -31 -31h-305v-289q0 -72 25 -99.5t83 -27.5q59 0 84 27.5t25 99.5v88q0 31 31 31h57q31 0 31 -31v-88q0 -59 -9 -99t-33.5 -72t-70 -47t-115.5 -15q-134 0 -180.5 56t-46.5 177z
M145 1462q-21 24 5 43l47 41q23 18 45 -4l192 -258q21 -21 -4 -43l-20 -18q-26 -19 -43 4zM201 618h217v287q0 72 -25 99.5t-84 27.5q-58 0 -83 -27.5t-25 -99.5v-287z" />
    <glyph glyph-name="eacute" unicode="&#xe9;" 
d="M82 223v682q0 59 9 99t33 72.5t69.5 47.5t115.5 15q134 0 181 -56.5t47 -177.5v-362q0 -31 -31 -31h-305v-289q0 -72 25 -99.5t83 -27.5q59 0 84 27.5t25 99.5v88q0 31 31 31h57q31 0 31 -31v-88q0 -59 -9 -99t-33.5 -72t-70 -47t-115.5 -15q-134 0 -180.5 56t-46.5 177z
M186 1284l193 258q22 22 45 4l47 -41q25 -19 4 -43l-221 -235q-17 -23 -43 -4l-21 18q-25 22 -4 43zM201 618h217v287q0 72 -25 99.5t-84 27.5q-58 0 -83 -27.5t-25 -99.5v-287z" />
    <glyph glyph-name="ecircumflex" unicode="&#xea;" 
d="M82 223v682q0 59 9 99t33 72.5t69.5 47.5t115.5 15q134 0 181 -56.5t47 -177.5v-362q0 -31 -31 -31h-305v-289q0 -72 25 -99.5t83 -27.5q59 0 84 27.5t25 99.5v88q0 31 31 31h57q31 0 31 -31v-88q0 -59 -9 -99t-33.5 -72t-70 -47t-115.5 -15q-134 0 -180.5 56t-46.5 177z
M92 1282l172 260q10 17 33 17h25q22 0 32 -17l172 -260q14 -22 -6 -39l-22 -18q-23 -18 -41 6l-148 180l-147 -180q-18 -24 -41 -6l-23 18q-20 17 -6 39zM201 618h217v287q0 72 -25 99.5t-84 27.5q-58 0 -83 -27.5t-25 -99.5v-287z" />
    <glyph glyph-name="edieresis" unicode="&#xeb;" 
d="M82 223v682q0 59 9 99t33 72.5t69.5 47.5t115.5 15q134 0 181 -56.5t47 -177.5v-362q0 -31 -31 -31h-305v-289q0 -72 25 -99.5t83 -27.5q59 0 84 27.5t25 99.5v88q0 31 31 31h57q31 0 31 -31v-88q0 -59 -9 -99t-33.5 -72t-70 -47t-115.5 -15q-134 0 -180.5 56t-46.5 177z
M102 1368q0 34 21 55t55 21t55 -21t21 -55t-21 -55t-55 -21t-55 21t-21 55zM201 618h217v287q0 72 -25 99.5t-84 27.5q-58 0 -83 -27.5t-25 -99.5v-287zM365 1368q0 34 20.5 55t54.5 21t55 -21t21 -55t-21 -55t-55 -21t-54.5 21t-20.5 55z" />
    <glyph glyph-name="igrave" unicode="&#xec;" horiz-adv-x="282" 
d="M-61 1462q-21 24 4 43l47 41q23 18 45 -4l192 -258q21 -21 -4 -43l-20 -18q-26 -19 -43 4zM82 31v1067q0 30 31 30h57q31 0 31 -30v-1067q0 -31 -31 -31h-57q-31 0 -31 31z" />
    <glyph glyph-name="iacute" unicode="&#xed;" horiz-adv-x="282" 
d="M57 1284l193 258q22 22 45 4l47 -41q25 -19 4 -43l-221 -235q-17 -23 -43 -4l-21 18q-25 22 -4 43zM82 31v1067q0 30 31 30h57q31 0 31 -30v-1067q0 -31 -31 -31h-57q-31 0 -31 31z" />
    <glyph glyph-name="icircumflex" unicode="&#xee;" horiz-adv-x="282" 
d="M-76 1282l172 260q10 17 33 17h25q22 0 32 -17l172 -260q14 -22 -6 -39l-22 -18q-23 -18 -41 6l-148 180l-147 -180q-18 -24 -41 -6l-23 18q-20 17 -6 39zM82 31v1067q0 30 31 30h57q31 0 31 -30v-1067q0 -31 -31 -31h-57q-31 0 -31 31z" />
    <glyph glyph-name="idieresis" unicode="&#xef;" horiz-adv-x="282" 
d="M-66 1368q0 34 21 55t55 21t55 -21t21 -55t-21 -55t-55 -21t-55 21t-21 55zM82 31v1067q0 30 31 30h57q31 0 31 -30v-1067q0 -31 -31 -31h-57q-31 0 -31 31zM197 1368q0 34 20.5 55t54.5 21t55 -21t21 -55t-21 -55t-55 -21t-54.5 21t-20.5 55z" />
    <glyph glyph-name="eth" unicode="&#xf0;" 
d="M82 223v742q0 86 45.5 130t114.5 44q41 0 86.5 -17t79.5 -47q-11 121 -66 264l-147 -67q-26 -15 -39 14l-19 37q-13 29 15 41l149 70q-50 95 -98 165q-9 15 -4.5 27t18.5 12h68q28 0 39 -20q35 -54 79 -137l142 65q27 12 41 -14l16 -37q13 -29 -14 -41l-142 -65
q91 -227 91 -508v-658q0 -59 -9 -99t-33.5 -72t-70 -47t-115.5 -15q-134 0 -180.5 56t-46.5 177zM201 223q0 -72 25 -99.5t83 -27.5q59 0 84 27.5t25 99.5v672q0 137 -119 137q-57 0 -77.5 -26.5t-20.5 -100.5v-682z" />
    <glyph glyph-name="ntilde" unicode="&#xf1;" 
d="M57 1296v58q0 70 48.5 109.5t114.5 31.5t112 -63l45 -54q28 -30 57 -19t29 42v51q0 31 31 31h36q31 0 31 -31v-57q0 -52 -29.5 -88.5t-71.5 -48t-90 3t-83 55.5l-45 53q-28 30 -57 19.5t-29 -41.5v-52q0 -30 -31 -30h-37q-31 0 -31 30zM82 31v1067q0 30 31 30h57
q31 0 31 -30v-35q36 36 83.5 56t92.5 20q69 0 114.5 -44t45.5 -130v-934q0 -31 -31 -31h-57q-31 0 -31 31v874q0 73 -21 100t-78 27q-118 0 -118 -137v-864q0 -31 -31 -31h-57q-31 0 -31 31z" />
    <glyph glyph-name="ograve" unicode="&#xf2;" 
d="M82 223v682q0 59 9 99t33 72.5t69.5 47.5t115.5 15q134 0 181 -56.5t47 -177.5v-682q0 -59 -9 -99t-33.5 -72t-70 -47t-115.5 -15q-134 0 -180.5 56t-46.5 177zM145 1462q-21 24 5 43l47 41q23 18 45 -4l192 -258q21 -21 -4 -43l-20 -18q-26 -19 -43 4zM201 223
q0 -72 25 -99.5t83 -27.5q59 0 84 27.5t25 99.5v682q0 72 -25 99.5t-84 27.5q-58 0 -83 -27.5t-25 -99.5v-682z" />
    <glyph glyph-name="oacute" unicode="&#xf3;" 
d="M82 223v682q0 59 9 99t33 72.5t69.5 47.5t115.5 15q134 0 181 -56.5t47 -177.5v-682q0 -59 -9 -99t-33.5 -72t-70 -47t-115.5 -15q-134 0 -180.5 56t-46.5 177zM186 1284l193 258q22 22 45 4l47 -41q25 -19 4 -43l-221 -235q-17 -23 -43 -4l-21 18q-25 22 -4 43zM201 223
q0 -72 25 -99.5t83 -27.5q59 0 84 27.5t25 99.5v682q0 72 -25 99.5t-84 27.5q-58 0 -83 -27.5t-25 -99.5v-682z" />
    <glyph glyph-name="ocircumflex" unicode="&#xf4;" 
d="M82 223v682q0 59 9 99t33 72.5t69.5 47.5t115.5 15q134 0 181 -56.5t47 -177.5v-682q0 -59 -9 -99t-33.5 -72t-70 -47t-115.5 -15q-134 0 -180.5 56t-46.5 177zM92 1282l172 260q10 17 33 17h25q22 0 32 -17l172 -260q14 -22 -6 -39l-22 -18q-23 -18 -41 6l-148 180
l-147 -180q-18 -24 -41 -6l-23 18q-20 17 -6 39zM201 223q0 -72 25 -99.5t83 -27.5q59 0 84 27.5t25 99.5v682q0 72 -25 99.5t-84 27.5q-58 0 -83 -27.5t-25 -99.5v-682z" />
    <glyph glyph-name="otilde" unicode="&#xf5;" 
d="M57 1296v58q0 70 48.5 109.5t114.5 31.5t112 -63l45 -54q28 -30 57 -19t29 42v51q0 31 31 31h36q31 0 31 -31v-57q0 -52 -29.5 -88.5t-71.5 -48t-90 3t-83 55.5l-45 53q-28 30 -57 19.5t-29 -41.5v-52q0 -30 -31 -30h-37q-31 0 -31 30zM82 223v682q0 59 9 99t33 72.5
t69.5 47.5t115.5 15q134 0 181 -56.5t47 -177.5v-682q0 -59 -9 -99t-33.5 -72t-70 -47t-115.5 -15q-134 0 -180.5 56t-46.5 177zM201 223q0 -72 25 -99.5t83 -27.5q59 0 84 27.5t25 99.5v682q0 72 -25 99.5t-84 27.5q-58 0 -83 -27.5t-25 -99.5v-682z" />
    <glyph glyph-name="odieresis" unicode="&#xf6;" 
d="M82 223v682q0 59 9 99t33 72.5t69.5 47.5t115.5 15q134 0 181 -56.5t47 -177.5v-682q0 -59 -9 -99t-33.5 -72t-70 -47t-115.5 -15q-134 0 -180.5 56t-46.5 177zM102 1368q0 34 21 55t55 21t55 -21t21 -55t-21 -55t-55 -21t-55 21t-21 55zM201 223q0 -72 25 -99.5
t83 -27.5q59 0 84 27.5t25 99.5v682q0 72 -25 99.5t-84 27.5q-58 0 -83 -27.5t-25 -99.5v-682zM365 1368q0 34 20.5 55t54.5 21t55 -21t21 -55t-21 -55t-55 -21t-54.5 21t-20.5 55z" />
    <glyph glyph-name="divide" unicode="&#xf7;" horiz-adv-x="839" 
d="M82 717v53q0 31 31 31h614q31 0 31 -31v-53q0 -31 -31 -31h-614q-31 0 -31 31zM326 391q0 41 26.5 67.5t67.5 26.5t67.5 -26.5t26.5 -67.5t-26.5 -67.5t-67.5 -26.5t-67.5 26.5t-26.5 67.5zM326 1096q0 41 26.5 67.5t67.5 26.5t67.5 -26.5t26.5 -67.5t-26.5 -68
t-67.5 -27t-67.5 27t-26.5 68z" />
    <glyph glyph-name="oslash" unicode="&#xf8;" 
d="M82 -86l39 141q-39 49 -39 168v682q0 59 9 99t33 72.5t69.5 47.5t115.5 15q60 0 107 -13l30 113q6 30 37 21l31 -9q32 -6 23 -37l-39 -141q39 -52 39 -168v-682q0 -59 -9 -99t-33.5 -72t-70 -47t-115.5 -15q-63 0 -106 12l-31 -113q-10 -29 -37 -20l-33 8q-29 6 -20 37z
M193 307l8 -2l55 242l127 465q-23 20 -74 20q-58 0 -83 -27.5t-25 -99.5v-338zM236 117q24 -21 73 -21q59 0 84 27.5t25 99.5v338l8 260l-8 2l-56 -241z" />
    <glyph glyph-name="ugrave" unicode="&#xf9;" 
d="M82 164v934q0 30 31 30h57q31 0 31 -30v-875q0 -74 20.5 -100.5t77.5 -26.5q119 0 119 137v865q0 30 31 30h57q31 0 31 -30v-1067q0 -31 -31 -31h-57q-31 0 -31 31v35q-36 -36 -83.5 -56t-92.5 -20q-69 0 -114.5 44t-45.5 130zM125 1462q-21 24 4 43l47 41q23 18 45 -4
l193 -258q21 -21 -4 -43l-21 -18q-26 -19 -43 4z" />
    <glyph glyph-name="uacute" unicode="&#xfa;" 
d="M82 164v934q0 30 31 30h57q31 0 31 -30v-875q0 -74 20.5 -100.5t77.5 -26.5q119 0 119 137v865q0 30 31 30h57q31 0 31 -30v-1067q0 -31 -31 -31h-57q-31 0 -31 31v35q-36 -36 -83.5 -56t-92.5 -20q-69 0 -114.5 44t-45.5 130zM207 1284l192 258q22 22 45 4l48 -41
q25 -19 4 -43l-222 -235q-17 -23 -43 -4l-20 18q-25 22 -4 43z" />
    <glyph glyph-name="ucircumflex" unicode="&#xfb;" 
d="M82 164v934q0 30 31 30h57q31 0 31 -30v-875q0 -74 20.5 -100.5t77.5 -26.5q119 0 119 137v865q0 30 31 30h57q31 0 31 -30v-1067q0 -31 -31 -31h-57q-31 0 -31 31v35q-36 -36 -83.5 -56t-92.5 -20q-69 0 -114.5 44t-45.5 130zM92 1282l172 260q10 17 33 17h25
q22 0 32 -17l172 -260q14 -22 -6 -39l-22 -18q-23 -18 -41 6l-148 180l-147 -180q-18 -24 -41 -6l-23 18q-20 17 -6 39z" />
    <glyph glyph-name="udieresis" unicode="&#xfc;" 
d="M82 164v934q0 30 31 30h57q31 0 31 -30v-875q0 -74 20.5 -100.5t77.5 -26.5q119 0 119 137v865q0 30 31 30h57q31 0 31 -30v-1067q0 -31 -31 -31h-57q-31 0 -31 31v35q-36 -36 -83.5 -56t-92.5 -20q-69 0 -114.5 44t-45.5 130zM102 1368q0 34 21 55t55 21t55 -21t21 -55
t-21 -55t-55 -21t-55 21t-21 55zM365 1368q0 34 20.5 55t54.5 21t55 -21t21 -55t-21 -55t-55 -21t-54.5 21t-20.5 55z" />
    <glyph glyph-name="yacute" unicode="&#xfd;" horiz-adv-x="540" 
d="M12 1092q-6 36 27 36h55q20 0 28 -7t11 -27l90 -596l43 -348h8l43 348l91 596q3 20 10.5 27t27.5 7h56q32 0 26 -36l-223 -1467q-3 -20 -10.5 -27.5t-28.5 -7.5h-55q-33 0 -27 37l64 373h-33q-34 0 -39 33zM178 1284l193 258q22 22 45 4l47 -41q25 -19 4 -43l-221 -235
q-17 -23 -43 -4l-21 18q-25 22 -4 43z" />
    <glyph glyph-name="thorn" unicode="&#xfe;" 
d="M82 -379v1987q0 30 31 30h57q31 0 31 -30v-545q36 36 83.5 56t92.5 20q69 0 114.5 -44t45.5 -130v-801q0 -86 -45.5 -130t-114.5 -44q-45 0 -92.5 20t-83.5 56v-445q0 -31 -31 -31h-57q-31 0 -31 31zM201 233q0 -137 118 -137q57 0 78 27t21 100v682q0 73 -21 100t-78 27
q-118 0 -118 -137v-662z" />
    <glyph glyph-name="ydieresis" unicode="&#xff;" horiz-adv-x="540" 
d="M12 1092q-6 36 27 36h55q20 0 28 -7t11 -27l90 -596l43 -348h8l43 348l91 596q3 20 10.5 27t27.5 7h56q32 0 26 -36l-223 -1467q-3 -20 -10.5 -27.5t-28.5 -7.5h-55q-33 0 -27 37l64 373h-33q-34 0 -39 33zM74 1368q0 34 21 55t55 21t54.5 -21t20.5 -55t-20.5 -55
t-54.5 -21t-55 21t-21 55zM336 1368q0 34 21 55t55 21t54.5 -21t20.5 -55t-20.5 -55t-54.5 -21t-55 21t-21 55z" />
    <glyph glyph-name="OE" unicode="&#x152;" horiz-adv-x="1052" 
d="M82 283v917q0 75 11 124.5t41 90t87.5 59.5t145.5 19q58 0 110 -10h524q31 0 31 -31v-53q0 -31 -31 -31h-374q24 -60 24 -168v-401h273q30 0 30 -31v-53q0 -31 -30 -31h-273v-401q0 -108 -24 -168h374q31 0 31 -31v-53q0 -31 -31 -31h-522q-52 -10 -112 -10
q-88 0 -145.5 18.5t-87.5 59t-41 90.5t-11 125zM209 283q0 -93 32 -136t126 -43t125.5 43t31.5 136v917q0 93 -31.5 135.5t-125.5 42.5t-126 -42.5t-32 -135.5v-917z" />
    <glyph glyph-name="oe" unicode="&#x153;" horiz-adv-x="954" 
d="M82 223v682q0 59 9 99t33 72.5t69.5 47.5t115.5 15q113 0 168 -64q55 64 168 64q70 0 115.5 -15t69.5 -47.5t33 -72.5t9 -99v-362q0 -31 -30 -31h-305v-289q0 -72 25 -99.5t83 -27.5q59 0 84 27.5t25 99.5v88q0 31 30 31h58q30 0 30 -31v-88q0 -121 -46.5 -177
t-180.5 -56q-114 0 -168 63q-54 -63 -168 -63q-134 0 -180.5 56t-46.5 177zM201 223q0 -72 25 -99.5t83 -27.5q59 0 84 27.5t25 99.5v682q0 72 -25 99.5t-84 27.5q-58 0 -83 -27.5t-25 -99.5v-682zM537 618h217v287q0 72 -25 99.5t-84 27.5q-58 0 -83 -27.5t-25 -99.5v-287z
" />
    <glyph glyph-name="Ydieresis" unicode="&#x178;" horiz-adv-x="704" 
d="M23 1448q-4 14 3.5 24.5t18.5 10.5h76q26 0 33 -23l110 -358l84 -307h8l84 307l111 358q7 23 33 23h75q12 0 19.5 -11t3.5 -24l-266 -848v-569q0 -31 -31 -31h-66q-30 0 -30 31v569zM117 1671q0 35 22.5 57.5t57.5 22.5t57 -22.5t22 -57.5t-22 -57.5t-57 -22.5
t-57.5 22.5t-22.5 57.5zM428 1671q0 35 22.5 57.5t57.5 22.5t57.5 -22.5t22.5 -57.5t-22.5 -57.5t-57.5 -22.5t-57.5 22.5t-22.5 57.5z" />
    <glyph glyph-name="circumflex" unicode="&#x2c6;" horiz-adv-x="696" 
d="M131 1282l172 260q10 17 33 17h24q23 0 33 -17l172 -260q14 -22 -6 -39l-22 -18q-23 -18 -41 6l-148 180l-147 -180q-18 -24 -41 -6l-23 18q-20 17 -6 39z" />
    <glyph glyph-name="tilde" unicode="&#x2dc;" horiz-adv-x="749" 
d="M123 1296v58q0 52 29.5 88.5t71.5 48t90 -3t83 -55.5l45 -54q28 -30 57 -19t29 42v51q0 31 31 31h37q31 0 31 -31v-57q0 -70 -48.5 -109.5t-114.5 -31.5t-112 63l-45 53q-28 30 -57 19.5t-29 -41.5v-52q0 -30 -31 -30h-36q-31 0 -31 30z" />
    <glyph glyph-name="uni2000" unicode="&#x2000;" horiz-adv-x="917" 
 />
    <glyph glyph-name="uni2001" unicode="&#x2001;" horiz-adv-x="1835" 
 />
    <glyph glyph-name="uni2002" unicode="&#x2002;" horiz-adv-x="917" 
 />
    <glyph glyph-name="uni2003" unicode="&#x2003;" horiz-adv-x="1835" 
 />
    <glyph glyph-name="uni2004" unicode="&#x2004;" horiz-adv-x="611" 
 />
    <glyph glyph-name="uni2005" unicode="&#x2005;" horiz-adv-x="458" 
 />
    <glyph glyph-name="uni2006" unicode="&#x2006;" horiz-adv-x="305" 
 />
    <glyph glyph-name="uni2007" unicode="&#x2007;" horiz-adv-x="305" 
 />
    <glyph glyph-name="uni2008" unicode="&#x2008;" horiz-adv-x="229" 
 />
    <glyph glyph-name="uni2009" unicode="&#x2009;" horiz-adv-x="367" 
 />
    <glyph glyph-name="uni200A" unicode="&#x200a;" horiz-adv-x="101" 
 />
    <glyph glyph-name="uni2010" unicode="&#x2010;" horiz-adv-x="534" 
d="M41 541v53q0 31 31 31h391q31 0 31 -31v-53q0 -31 -31 -31h-391q-31 0 -31 31z" />
    <glyph glyph-name="uni2011" unicode="&#x2011;" horiz-adv-x="534" 
d="M41 541v53q0 31 31 31h391q31 0 31 -31v-53q0 -31 -31 -31h-391q-31 0 -31 31z" />
    <glyph glyph-name="figuredash" unicode="&#x2012;" horiz-adv-x="534" 
d="M41 541v53q0 31 31 31h391q31 0 31 -31v-53q0 -31 -31 -31h-391q-31 0 -31 31z" />
    <glyph glyph-name="endash" unicode="&#x2013;" horiz-adv-x="1134" 
d="M41 541v53q0 31 31 31h991q31 0 31 -31v-53q0 -31 -31 -31h-991q-31 0 -31 31z" />
    <glyph glyph-name="emdash" unicode="&#x2014;" horiz-adv-x="2152" 
d="M41 541v53q0 31 31 31h2009q30 0 30 -31v-53q0 -31 -30 -31h-2009q-31 0 -31 31z" />
    <glyph glyph-name="quoteleft" unicode="&#x2018;" horiz-adv-x="352" 
d="M88 1268l84 379q6 30 33 30h28q32 0 29 -30l-22 -379q-3 -31 -35 -31h-90q-33 0 -27 31z" />
    <glyph glyph-name="quoteright" unicode="&#x2019;" horiz-adv-x="352" 
d="M90 1268l23 379q3 30 34 30h91q32 0 26 -30l-84 -379q-6 -31 -33 -31h-28q-32 0 -29 31z" />
    <glyph glyph-name="quotesinglbase" unicode="&#x201a;" horiz-adv-x="352" 
d="M90 -215l23 379q3 31 34 31h91q32 0 26 -31l-84 -379q-6 -31 -33 -31h-28q-32 0 -29 31z" />
    <glyph glyph-name="quotedblleft" unicode="&#x201c;" horiz-adv-x="577" 
d="M92 1268l84 379q6 30 33 30h29q31 0 28 -30l-22 -379q-3 -31 -35 -31h-90q-33 0 -27 31zM317 1268l84 379q6 30 33 30h29q32 0 29 -30l-23 -379q-3 -31 -35 -31h-90q-33 0 -27 31z" />
    <glyph glyph-name="quotedblright" unicode="&#x201d;" horiz-adv-x="577" 
d="M90 1268l23 379q3 30 34 30h91q32 0 26 -30l-84 -379q-6 -31 -33 -31h-28q-32 0 -29 31zM315 1268l23 379q3 30 35 30h90q32 0 26 -30l-83 -379q-6 -31 -33 -31h-29q-32 0 -29 31z" />
    <glyph glyph-name="quotedblbase" unicode="&#x201e;" horiz-adv-x="577" 
d="M90 -215l23 379q3 31 34 31h91q32 0 26 -31l-84 -379q-6 -31 -33 -31h-28q-32 0 -29 31zM315 -215l23 379q3 31 35 31h90q32 0 26 -31l-83 -379q-6 -31 -33 -31h-29q-32 0 -29 31z" />
    <glyph glyph-name="bullet" unicode="&#x2022;" horiz-adv-x="643" 
d="M82 741q0 106 67 173t173 67t172.5 -67t66.5 -173t-66.5 -172.5t-172.5 -66.5t-173 66.5t-67 172.5z" />
    <glyph glyph-name="ellipsis" unicode="&#x2026;" horiz-adv-x="1302" 
d="M82 84q0 41 26.5 67.5t67.5 26.5t67.5 -26.5t26.5 -67.5t-26.5 -67.5t-67.5 -26.5t-67.5 26.5t-26.5 67.5zM557 84q0 41 26.5 67.5t67.5 26.5t67.5 -26.5t26.5 -67.5t-26.5 -67.5t-67.5 -26.5t-67.5 26.5t-26.5 67.5zM1032 84q0 41 26.5 67.5t67.5 26.5t68 -26.5
t27 -67.5t-27 -67.5t-68 -26.5t-67.5 26.5t-26.5 67.5z" />
    <glyph glyph-name="uni202F" unicode="&#x202f;" horiz-adv-x="367" 
 />
    <glyph glyph-name="guilsinglleft" unicode="&#x2039;" horiz-adv-x="454" 
d="M82 565l162 404q10 22 35 22h69q14 0 21 -12.5t2 -26.5l-154 -387l154 -387q5 -14 -2 -26.5t-21 -12.5h-69q-25 0 -35 23z" />
    <glyph glyph-name="guilsinglright" unicode="&#x203a;" horiz-adv-x="454" 
d="M84 178l154 387l-154 387q-5 14 1.5 26.5t20.5 12.5h70q25 0 35 -22l162 -404l-162 -403q-10 -23 -35 -23h-70q-14 0 -20.5 12.5t-1.5 26.5z" />
    <glyph glyph-name="uni205F" unicode="&#x205f;" horiz-adv-x="458" 
 />
    <glyph glyph-name="Euro" unicode="&#x20ac;" horiz-adv-x="800" 
d="M41 600v53q0 31 31 31h78v115h-78q-31 0 -31 30v54q0 30 31 30h78v287q0 75 11 124.5t40.5 90t87 59.5t145.5 19t145.5 -19t87.5 -59.5t41 -90t11 -124.5v-129q0 -31 -31 -31h-65q-31 0 -31 31v129q0 93 -32 135.5t-126 42.5t-126 -42.5t-32 -135.5v-287h246q31 0 31 -30
v-54q0 -30 -31 -30h-246v-115h246q31 0 31 -31v-53q0 -31 -31 -31h-246v-286q0 -93 32 -136t126 -43t126 43t32 136v129q0 30 31 30h65q31 0 31 -30v-129q0 -75 -11 -125t-41 -90.5t-87.5 -59t-145.5 -18.5t-145 18.5t-87 59t-41 90.5t-11 125v286h-78q-31 0 -31 31z" />
    <glyph glyph-name="trademark" unicode="&#x2122;" horiz-adv-x="940" 
d="M0 1423v29q0 31 33 31h332q30 0 30 -31v-29q0 -32 -30 -32h-109v-617q0 -33 -31 -33h-53q-15 0 -24 9t-9 24v617h-106q-33 0 -33 32zM436 774v678q0 31 33 31h92q27 0 33 -29l45 -244l25 -174h8l24 174l45 244q6 29 33 29h94q31 0 31 -31v-678q0 -33 -31 -33h-41
q-32 0 -32 33v373l8 145h-6l-64 -383q-3 -24 -31 -24h-67q-26 0 -33 24l-61 383h-9l9 -145v-373q0 -33 -31 -33h-41q-15 0 -24 9t-9 24z" />
    <glyph glyph-name="uniE000" unicode="&#xe000;" horiz-adv-x="1126" 
d="M0 0v1126h1126v-1126h-1126z" />
  </font>
</defs>
</svg>
