<?xml version="1.0" standalone="no"?>
<!DOCTYPE svg PUBLIC "-//W3C//DTD SVG 1.1//EN" "http://www.w3.org/Graphics/SVG/1.1/DTD/svg11.dtd" >
<svg>
<metadata>
Created by FontForge 20110222 at Thu Jan 30 02:29:17 2014
 By Orthosie Webhosting
Copyright (c) Tomas Brousil, 2007. All rights reserved.
</metadata>
<defs>
<font id="AtramentStdBold" horiz-adv-x="847" >
  <font-face 
    font-family="AtramentStdBold"
    font-weight="700"
    font-stretch="normal"
    units-per-em="2048"
    panose-1="2 0 8 6 2 0 0 2 0 4"
    ascent="1638"
    descent="-410"
    x-height="1169"
    cap-height="1483"
    bbox="-136.68 -420 2111 1942"
    underline-thickness="102"
    underline-position="-102"
    unicode-range="U+000D-FB04"
  />
<missing-glyph horiz-adv-x="748" 
d="M68 0v1365h544v-1365h-544zM136 68h408v1229h-408v-1229z" />
    <glyph glyph-name="uniFB01" unicode="fi" horiz-adv-x="950" 
d="M10 1049v36q0 40 22 62t62 22h49v195q0 274 342 274h142q40 0 62 -22t22 -62v-36q0 -40 -22 -62t-62 -22h-142q-71 0 -71 -78v-187h370q40 0 62 -22t22 -62v-1001q0 -40 -22 -62t-62 -22h-102q-40 0 -62 22t-22 62v881h-184v-881q0 -40 -22 -62t-62 -22h-103
q-40 0 -62 22t-22 62v881h-49q-40 0 -62 22t-22 62z" />
    <glyph glyph-name="uniFB02" unicode="fl" horiz-adv-x="950" 
d="M10 1049v36q0 40 22 62t62 22h49v195q0 274 342 274h299q40 0 62 -22t22 -62v-1470q0 -40 -22 -62t-62 -22h-102q-40 0 -62 22t-22 62v1350h-113q-71 0 -71 -78v-187h28q40 0 62 -22t22 -62v-36q0 -40 -22 -62t-62 -22h-28v-881q0 -40 -22 -62t-62 -22h-103q-40 0 -62 22
t-22 62v881h-49q-40 0 -62 22t-22 62z" />
    <glyph glyph-name="uniFB03" unicode="ffi" horiz-adv-x="1404" 
d="M10 1049v36q0 40 22 62t62 22h49v127q0 275 342 275h199q88 67 256 67h141q40 0 62 -22t22 -62v-36q0 -40 -22 -62t-62 -22h-141q-72 0 -72 -78v-187h371q40 0 62 -22t22 -62v-1001q0 -40 -22 -62t-62 -22h-102q-40 0 -62 22t-22 62v881h-185v-881q0 -40 -22 -62t-62 -22
h-102q-40 0 -62 22t-22 62v881h-184v-881q0 -40 -22 -62t-62 -22h-103q-40 0 -62 22t-22 62v881h-49q-40 0 -62 22t-22 62zM414 1169h184v197h-113q-71 0 -71 -78v-119z" />
    <glyph glyph-name="uniFB04" unicode="ffl" horiz-adv-x="1404" 
d="M10 1049v36q0 40 22 62t62 22h49v127q0 275 342 275h199q88 67 256 67h299q40 0 62 -22t22 -62v-1470q0 -40 -22 -62t-62 -22h-102q-40 0 -62 22t-22 62v1350h-113q-72 0 -72 -78v-187h29q40 0 62 -22t22 -62v-36q0 -40 -22 -62t-62 -22h-29v-881q0 -40 -22 -62t-62 -22
h-102q-40 0 -62 22t-22 62v881h-184v-881q0 -40 -22 -62t-62 -22h-103q-40 0 -62 22t-22 62v881h-49q-40 0 -62 22t-22 62zM414 1169h184v197h-113q-71 0 -71 -78v-119z" />
    <glyph glyph-name=".notdef" horiz-adv-x="748" 
d="M68 0v1365h544v-1365h-544zM136 68h408v1229h-408v-1229z" />
    <glyph glyph-name="glyph1" horiz-adv-x="2048" 
 />
    <glyph glyph-name="glyph1" horiz-adv-x="2048" 
 />
    <glyph glyph-name="uni000D" unicode="&#xd;" horiz-adv-x="2048" 
 />
    <glyph glyph-name="space" unicode=" " horiz-adv-x="471" 
 />
    <glyph glyph-name="exclam" unicode="!" horiz-adv-x="589" 
d="M123 1399q-3 39 20.5 61.5t63.5 22.5h176q40 0 63.5 -22.5t20.5 -61.5l-51 -862q-6 -84 -84 -84h-74q-78 0 -84 84zM139 145q0 69 43.5 112.5t112.5 43.5t112.5 -43.5t43.5 -112.5t-43.5 -112t-112.5 -43t-112.5 43t-43.5 112z" />
    <glyph glyph-name="quotedbl" unicode="&#x22;" horiz-adv-x="823" 
d="M84 1399q-3 39 20.5 61.5t63.5 22.5h123q40 0 63.5 -22.5t20.5 -61.5l-41 -436q-6 -84 -84 -84h-41q-78 0 -84 84zM449 1399q-3 39 20 61.5t63 22.5h123q40 0 63.5 -22.5t20.5 -61.5l-41 -436q-6 -84 -84 -84h-41q-78 0 -84 84z" />
    <glyph glyph-name="numbersign" unicode="#" horiz-adv-x="1044" 
d="M0 459v61q0 40 22 62t62 22h100l60 275h-72q-40 0 -62 22t-22 62v61q0 40 22 62t62 22h123l70 322q15 53 79 53h60q54 0 72.5 -37t7.5 -78l-58 -260h152l70 322q15 53 79 53h60q54 0 72.5 -37t7.5 -78l-58 -260h52q40 0 61.5 -22t21.5 -62v-61q0 -40 -21.5 -62t-61.5 -22
h-101l-61 -275h73q40 0 62 -22t22 -62v-61q0 -40 -22 -62t-62 -22h-122l-70 -322q-15 -53 -80 -53h-59q-54 0 -72.5 37t-7.5 78l55 260h-149l-70 -322q-15 -53 -80 -53h-59q-54 0 -72.5 37t-7.5 78l55 260h-49q-40 0 -62 22t-22 62zM416 604h151l60 275h-150z" />
    <glyph glyph-name="dollar" unicode="$" horiz-adv-x="933" 
d="M61 315v146q0 40 22 62t62 22h136q40 0 62 -22t22 -62v-146q0 -43 26.5 -69.5t75.5 -26.5t75.5 26.5t26.5 69.5q0 84 -19.5 133t-80.5 99l-240 203q-104 89 -136 176t-32 241q0 277 291 318v131q0 40 22 62t62 22h62q40 0 62 -22t22 -62v-131q290 -41 290 -318v-145
q0 -40 -22 -62t-62 -22h-135q-40 0 -62 22t-22 62v145q0 43 -26.5 70t-75.5 27t-75.5 -27t-26.5 -70q0 -83 19.5 -131.5t80.5 -99.5l240 -203q104 -89 135.5 -176.5t31.5 -241.5q0 -276 -290 -317v-131q0 -40 -22 -62t-62 -22h-62q-40 0 -62 22t-22 62v131q-291 41 -291 317
z" />
    <glyph glyph-name="percent" unicode="%" horiz-adv-x="1224" 
d="M41 907v410q0 172 221 172t221 -172v-410q0 -172 -221 -172t-221 172zM205 92l631 1360q16 31 57 31h70q40 0 56 -31t1 -61l-631 -1360q-15 -31 -57 -31h-70q-40 0 -56 31t-1 61zM225 907q0 -37 37 -37t37 37v410q0 37 -37 37t-37 -37v-410zM741 166v409q0 173 222 173
q221 0 221 -173v-409q0 -172 -221 -172q-222 0 -222 172zM926 166q0 -37 37 -37q36 0 36 37v409q0 37 -36 37q-37 0 -37 -37v-409z" />
    <glyph glyph-name="ampersand" unicode="&#x26;" horiz-adv-x="1069" 
d="M82 315v123q0 221 188 293v21q-188 69 -188 292v123q0 326 405 326q406 0 406 -326v-84q0 -40 -22 -62t-62 -22h-135q-40 0 -62 22t-22 62v84q0 43 -27 70t-76 27t-75.5 -27t-26.5 -70v-215q0 -43 26.5 -69.5t75.5 -26.5h498q40 0 62 -22t22 -62v-61q0 -40 -22 -62
t-62 -22h-92v-312q0 -325 -406 -325q-405 0 -405 325zM385 315q0 -43 26.5 -69.5t75.5 -26.5t76 26.5t27 69.5v312h-103q-49 0 -75.5 -27t-26.5 -70v-215z" />
    <glyph glyph-name="quotesingle" unicode="'" horiz-adv-x="458" 
d="M84 1399q-3 39 20.5 61.5t63.5 22.5h123q40 0 63.5 -22.5t20.5 -61.5l-41 -436q-6 -84 -84 -84h-41q-78 0 -84 84z" />
    <glyph glyph-name="parenleft" unicode="(" horiz-adv-x="636" 
d="M123 741q0 503 207 936q18 43 76 43h126q32 0 52 -14t26.5 -35t5 -42.5t-9.5 -39.5q-78 -151 -129 -378.5t-51 -469.5t51 -469t129 -378q8 -18 9.5 -40t-5 -43t-26.5 -35t-52 -14h-126q-58 0 -76 43q-207 433 -207 936z" />
    <glyph glyph-name="parenright" unicode=")" horiz-adv-x="636" 
d="M21 -160.5q2 29.5 10 54.5q78 151 129 378t51 469t-51 469.5t-129 378.5q-8 25 -10 54t19.5 53t63.5 24h127q58 0 76 -43q207 -433 207 -936t-207 -936q-18 -43 -76 -43h-127q-42 0 -63.5 24t-19.5 53.5z" />
    <glyph glyph-name="asterisk" unicode="*" horiz-adv-x="770" 
d="M43 1037q6 24 33 36l153 53l-153 54q-27 12 -33 36t10 48l47 82q14 25 36.5 32t47.5 -10l123 -111l-31 164q-3 29 14.5 45.5t47.5 16.5h94q30 0 47.5 -16.5t14.5 -45.5l-33 -161l125 108q25 17 47.5 10t36.5 -32l47 -82q16 -24 10 -48t-33 -36l-157 -54l157 -53
q27 -12 33 -36t-10 -48l-47 -82q-14 -25 -36.5 -32t-47.5 10l-125 106l33 -160q3 -29 -14.5 -45t-47.5 -16h-94q-30 0 -47.5 16t-14.5 45l31 162l-123 -108q-25 -17 -47.5 -10t-36.5 32l-47 82q-16 24 -10 48z" />
    <glyph glyph-name="plus" unicode="+" horiz-adv-x="921" 
d="M82 713v61q0 40 22 62t62 22h180v180q0 40 22 62t62 22h62q40 0 61.5 -22t21.5 -62v-180h181q40 0 62 -22t22 -62v-61q0 -40 -22 -62t-62 -22h-181v-180q0 -40 -21.5 -62t-61.5 -22h-62q-40 0 -62 22t-22 62v180h-180q-40 0 -62 22t-22 62z" />
    <glyph glyph-name="comma" unicode="," horiz-adv-x="516" 
d="M94 -193l29 459q3 38 25.5 57t58.5 19h149q49 0 70.5 -33t9.5 -80l-147 -446q-19 -70 -82 -70h-31q-39 0 -62 24.5t-20 69.5z" />
    <glyph glyph-name="hyphen" unicode="-" horiz-adv-x="575" 
d="M41 555v61q0 40 22 62t62 22h326q40 0 62 -22t22 -62v-61q0 -40 -22 -62t-62 -22h-326q-40 0 -62 22t-22 62z" />
    <glyph glyph-name="period" unicode="." horiz-adv-x="516" 
d="M82 164q0 79 48.5 128.5t125.5 49.5q80 0 129 -49t49 -129q0 -77 -49.5 -125.5t-128.5 -48.5q-76 0 -125 49t-49 125z" />
    <glyph glyph-name="slash" unicode="/" horiz-adv-x="624" 
d="M-37 -123l479 1790q15 53 80 53h60q54 0 72.5 -36.5t7.5 -77.5l-480 -1790q-7 -26 -28.5 -40t-51.5 -14h-59q-54 0 -72.5 37t-7.5 78z" />
    <glyph glyph-name="zero" unicode="0" 
d="M82 264v641q0 275 342 275t342 -275v-641q0 -274 -342 -274t-342 274zM352 272q0 -77 72 -77t72 77v625q0 78 -72 78t-72 -78v-625z" />
    <glyph glyph-name="one" unicode="1" horiz-adv-x="823" 
d="M82 84v37q0 40 22 62t62 22h131v760h-131q-40 0 -62 22t-22 62v36q0 40 22 62t62 22h317q40 0 62 -22t22 -62v-880h131q40 0 62 -22t22 -62v-37q0 -40 -22 -62t-62 -22h-532q-40 0 -62 22t-22 62z" />
    <glyph glyph-name="two" unicode="2" 
d="M82 84v88q0 47 22 72l351 452q27 35 34 66.5t7 85.5v49q0 78 -72 78t-72 -78v-109q0 -40 -22 -61.5t-62 -21.5h-102q-40 0 -62 21.5t-22 61.5v117q0 275 342 275t342 -275v-51q0 -76 -14.5 -135t-57.5 -121l-284 -369h272q40 0 62 -22t22 -62v-61q0 -40 -22 -62t-62 -22
h-516q-40 0 -62 22t-22 62z" />
    <glyph glyph-name="three" unicode="3" 
d="M82 100v117q0 40 22 62t62 22h102q40 0 62 -22t22 -62v-108q0 -78 72 -78t72 78v215q0 77 -72 77h-18q-40 0 -62 22t-22 62v37q0 40 22 62t62 22h18q72 0 72 78v213q0 78 -72 78t-72 -78v-109q0 -40 -22 -61.5t-62 -21.5h-102q-40 0 -62 21.5t-22 61.5v117q0 275 342 275
t342 -275v-153q0 -176 -137 -238v-20q137 -65 137 -238v-156q0 -274 -342 -274t-342 274z" />
    <glyph glyph-name="four" unicode="4" horiz-adv-x="802" 
d="M41 205v84q0 40 14 86l197 739q16 55 82 55h80q39 0 60.5 -21.5t22 -48t-4.5 -50.5l-183 -691h103v168q0 40 22 62t62 22h82q40 0 62 -22t22 -62v-168h57q40 0 62 -22t22 -62v-69q0 -40 -22 -62t-62 -22h-57v-201q0 -40 -22 -62t-62 -22h-82q-40 0 -62 22t-22 62v201
h-287q-40 0 -62 22t-22 62z" />
    <glyph glyph-name="five" unicode="5" 
d="M82 100v58q0 40 22 62t62 22h102q40 0 62 -22t22 -62v-49q0 -78 72 -78t72 78v299q0 77 -72 77q-60 0 -68 -45l-2 -12q-9 -45 -78 -45h-110q-40 0 -62 22t-22 62v618q0 40 22 62t62 22h496q40 0 61.5 -22t21.5 -62v-69q0 -40 -21.5 -62t-61.5 -22h-330v-309
q51 33 97.5 48t111.5 15q99 0 162 -58t63 -173v-355q0 -274 -342 -274t-342 274z" />
    <glyph glyph-name="six" unicode="6" 
d="M82 264v805q0 274 342 274t342 -274v-76q0 -40 -22 -62t-62 -22h-102q-40 0 -62 22t-22 62v68q0 78 -72 78t-72 -78v-336q97 63 189 63q99 0 162 -58t63 -173v-293q0 -274 -342 -274t-342 274zM352 272q0 -77 72 -77t72 77v238q0 78 -72 78t-72 -78v-238z" />
    <glyph glyph-name="seven" unicode="7" horiz-adv-x="745" 
d="M41 1016v69q0 40 22 62t62 22h516q40 0 62 -22t22 -62v-84q0 -40 -14 -86l-299 -1026q-15 -53 -78 -53h-84q-56 0 -73 39t-5 82l285 975h-332q-40 0 -62 22t-22 62z" />
    <glyph glyph-name="eight" unicode="8" 
d="M82 264v156q0 172 137 237v21q-137 62 -137 237v154q0 274 342 274t342 -274v-154q0 -175 -137 -237v-21q137 -65 137 -237v-156q0 -274 -342 -274t-342 274zM352 272q0 -77 72 -77t72 77v215q0 78 -72 78t-72 -78v-215zM352 848q0 -78 72 -78t72 78v213q0 78 -72 78
t-72 -78v-213z" />
    <glyph glyph-name="nine" unicode="9" 
d="M82 102v66q0 40 22 62t62 22h102q40 0 62 -22t22 -62v-57q0 -78 72 -78t72 78v325q-97 -63 -189 -63q-99 0 -162 58t-63 173v303q0 275 342 275t342 -275v-805q0 -274 -342 -274t-342 274zM352 651q0 -78 72 -78t72 78v248q0 78 -72 78t-72 -78v-248z" />
    <glyph glyph-name="colon" unicode=":" horiz-adv-x="516" 
d="M82 164q0 79 48.5 128.5t125.5 49.5q80 0 129 -49t49 -129q0 -77 -49.5 -125.5t-128.5 -48.5q-76 0 -125 49t-49 125zM82 1001q0 79 48.5 129t125.5 50q79 0 128.5 -49.5t49.5 -129.5q0 -77 -49.5 -125.5t-128.5 -48.5q-76 0 -125 48.5t-49 125.5z" />
    <glyph glyph-name="semicolon" unicode=";" horiz-adv-x="516" 
d="M82 1001q0 79 48.5 129t125.5 50q79 0 128.5 -49.5t49.5 -129.5q0 -77 -49.5 -125.5t-128.5 -48.5q-76 0 -125 48.5t-49 125.5zM94 -193l29 459q3 38 25.5 57t58.5 19h149q49 0 70.5 -33t9.5 -80l-147 -446q-19 -70 -82 -70h-31q-39 0 -62 24.5t-20 69.5z" />
    <glyph glyph-name="less" unicode="&#x3c;" horiz-adv-x="923" 
d="M82 694v99q0 31 11.5 49t39.5 30l586 254q39 16 81 -2.5t42 -74.5v-78q0 -37 -16 -55.5t-46 -28.5l-381 -133v-21l381 -133q30 -10 46 -28.5t16 -55.5v-78q0 -57 -41 -76t-82 -2l-586 254q-51 22 -51 80z" />
    <glyph glyph-name="equal" unicode="=" horiz-adv-x="921" 
d="M82 483v62q0 40 22 62t62 22h590q40 0 62 -22t22 -62v-62q0 -40 -22 -62t-62 -22h-590q-40 0 -62 22t-22 62zM82 942v62q0 40 22 61.5t62 21.5h590q40 0 62 -21.5t22 -61.5v-62q0 -40 -22 -62t-62 -22h-590q-40 0 -62 22t-22 62z" />
    <glyph glyph-name="greater" unicode="&#x3e;" horiz-adv-x="923" 
d="M82 438v78q0 37 15.5 55.5t45.5 28.5l381 133v21l-381 133q-30 10 -45.5 28.5t-15.5 55.5v78q0 56 41 75t82 2l586 -254q28 -12 39.5 -30t11.5 -49v-99q0 -58 -51 -80l-586 -254q-39 -16 -81 3t-42 75z" />
    <glyph glyph-name="question" unicode="?" horiz-adv-x="901" 
d="M61 1063v104q0 167 95.5 246.5t294.5 79.5q198 0 293.5 -79.5t95.5 -246.5v-30q0 -78 -27.5 -145t-67 -113t-78.5 -88t-66.5 -91t-27.5 -102v-61q0 -40 -22 -62t-62 -22h-77q-40 0 -62 22t-22 62v38q0 85 23 153.5t56 113t66.5 84t56.5 85t23 97.5v59q0 109 -102 109
q-103 0 -103 -109v-104q0 -40 -22 -62t-62 -22h-119q-40 0 -62 22t-22 62zM293 145q0 69 43.5 112.5t112.5 43.5t112 -43.5t43 -112.5t-43 -112t-112 -43t-112.5 43t-43.5 112z" />
    <glyph glyph-name="at" unicode="@" horiz-adv-x="1626" 
d="M82 229v713q0 301 179 445.5t552 144.5t552 -144.5t179 -445.5v-676q0 -276 -307 -276q-148 0 -221 67q-76 -67 -223 -67q-155 0 -238.5 68t-83.5 206v158q0 274 342 274h72v201q0 78 -72 78t-72 -78v-27q0 -40 -22 -62t-62 -22h-102q-40 0 -62 22t-22 62v35
q0 275 342 275t342 -275v-639q0 -71 62 -71q57 0 57 71v676q0 196 -113 290.5t-348 94.5t-348 -94.5t-113 -290.5v-713q0 -198 113 -292.5t348 -94.5h258q40 0 62 -22t22 -62v-37q0 -40 -22 -61.5t-62 -21.5h-258q-374 0 -552.5 144.5t-178.5 446.5zM741 272q0 -77 72 -77
t72 77v228h-72q-72 0 -72 -78v-150z" />
    <glyph glyph-name="A" unicode="A" horiz-adv-x="917" 
d="M23 104l196 1299q11 80 86 80h307q75 0 86 -80l197 -1299q2 -12 2 -23q-1 -31 -17 -52q-22 -29 -67 -29h-123q-76 0 -84 74l-24 205h-246l-25 -205q-8 -74 -84 -74h-123q-45 0 -67 29q-16 21 -16 52q0 11 2 23zM362 508h191l-27 233l-57 547h-20l-58 -547z" />
    <glyph glyph-name="B" unicode="B" horiz-adv-x="944" 
d="M82 84v1315q0 40 22 62t62 22h301q405 0 405 -326v-113q0 -223 -188 -292v-21q188 -72 188 -293v-112q0 -326 -405 -326h-301q-40 0 -62 22t-22 62zM385 229h82q49 0 75.5 27t26.5 70v204q0 43 -26.5 70t-75.5 27h-82v-398zM385 856h82q49 0 75.5 26.5t26.5 69.5v205
q0 43 -26.5 69.5t-75.5 26.5h-82v-397z" />
    <glyph glyph-name="C" unicode="C" horiz-adv-x="974" 
d="M82 315v852q0 326 405 326q406 0 406 -326v-206q0 -40 -22 -62t-62 -22h-135q-40 0 -62 22t-22 62v206q0 43 -27 70t-76 27t-75.5 -27t-26.5 -70v-852q0 -43 26.5 -69.5t75.5 -26.5t76 26.5t27 69.5v207q0 40 22 62t62 22h135q40 0 62 -22t22 -62v-207q0 -325 -406 -325
q-405 0 -405 325z" />
    <glyph glyph-name="D" unicode="D" horiz-adv-x="974" 
d="M82 84v1315q0 40 22 62t62 22h321q406 0 406 -326v-831q0 -326 -406 -326h-321q-40 0 -62 22t-22 62zM385 229h102q49 0 76 27t27 70v831q0 43 -27 69.5t-76 26.5h-102v-1024z" />
    <glyph glyph-name="E" unicode="E" horiz-adv-x="786" 
d="M82 84v1315q0 40 22 62t62 22h516q40 0 62 -22t22 -62v-62q0 -40 -22 -62t-62 -22h-297v-397h219q40 0 62 -22t22 -62v-61q0 -40 -22 -62t-62 -22h-219v-398h297q40 0 62 -22t22 -62v-61q0 -40 -22 -62t-62 -22h-516q-40 0 -62 22t-22 62z" />
    <glyph glyph-name="F" unicode="F" horiz-adv-x="776" 
d="M82 84v1315q0 40 22 62t62 22h516q40 0 62 -22t22 -62v-62q0 -40 -22 -62t-62 -22h-297v-397h219q40 0 62 -22t22 -62v-61q0 -40 -22 -62t-62 -22h-219v-543q0 -40 -22 -62t-62 -22h-135q-40 0 -62 22t-22 62z" />
    <glyph glyph-name="G" unicode="G" horiz-adv-x="974" 
d="M82 315v852q0 326 405 326q406 0 406 -326v-125q0 -40 -22 -62t-62 -22h-135q-40 0 -62 22t-22 62v125q0 43 -27 70t-76 27t-75.5 -27t-26.5 -70v-852q0 -43 26.5 -69.5t75.5 -26.5t76 26.5t27 69.5v244h-19q-40 0 -62 22t-22 62v62q0 40 22 61.5t62 21.5h238
q40 0 62 -21.5t22 -61.5v-390q0 -325 -406 -325q-405 0 -405 325z" />
    <glyph glyph-name="H" unicode="H" horiz-adv-x="974" 
d="M82 84v1315q0 40 22 62t62 22h135q40 0 62 -22t22 -62v-543h205v543q0 40 22 62t62 22h135q40 0 62 -22t22 -62v-1315q0 -40 -22 -62t-62 -22h-135q-40 0 -62 22t-22 62v543h-205v-543q0 -40 -22 -62t-62 -22h-135q-40 0 -62 22t-22 62z" />
    <glyph glyph-name="I" unicode="I" horiz-adv-x="466" 
d="M82 84v1315q0 40 22 62t62 22h135q40 0 62 -22t22 -62v-1315q0 -40 -22 -62t-62 -22h-135q-40 0 -62 22t-22 62z" />
    <glyph glyph-name="J" unicode="J" horiz-adv-x="933" 
d="M41 315v166q0 40 22 62t62 22h135q40 0 62 -22t22 -62v-166q0 -43 26.5 -69.5t75.5 -26.5t76 26.5t27 69.5v1084q0 40 22 62t62 22h135q40 0 62 -22t22 -62v-1084q0 -325 -406 -325q-405 0 -405 325z" />
    <glyph glyph-name="K" unicode="K" horiz-adv-x="954" 
d="M82 84v1315q0 40 22 62t62 22h135q40 0 62 -22t22 -62v-539h21l235 576q18 47 78 47h139q40 0 62 -23q22 -22 22 -48t-6 -48l-264 -623l264 -622q6 -22 6 -48t-22 -48q-22 -23 -62 -23h-139q-60 0 -78 47l-235 576h-21v-539q0 -40 -22 -62t-62 -22h-135q-40 0 -62 22
t-22 62z" />
    <glyph glyph-name="L" unicode="L" horiz-adv-x="776" 
d="M82 84v1315q0 40 22 62t62 22h135q40 0 62 -22t22 -62v-1170h297q40 0 62 -22t22 -62v-61q0 -40 -22 -62t-62 -22h-516q-40 0 -62 22t-22 62z" />
    <glyph glyph-name="M" unicode="M" horiz-adv-x="1224" 
d="M82 84v1315q0 41 22.5 62.5t61.5 21.5h227q74 0 86 -80l76 -365l47 -352h21l47 352l75 365q12 80 86 80h228q39 0 61.5 -21.5t22.5 -62.5v-1315q0 -40 -22 -62t-62 -22h-94q-40 0 -62 22t-22 62v641l20 287h-20l-115 -680q-5 -28 -26 -45t-56 -17h-143q-35 0 -56 17
t-26 45l-115 680h-20l20 -287v-641q0 -40 -22 -62t-62 -22h-94q-40 0 -62 22t-22 62z" />
    <glyph glyph-name="N" unicode="N" horiz-adv-x="995" 
d="M82 84v1315q0 40 22 62t62 22h137q63 0 84 -62l154 -442l100 -356l21 4l-31 366v406q0 40 22 62t62 22h114q40 0 62 -22t22 -62v-1315q0 -40 -22 -62t-62 -22h-137q-63 0 -84 61l-153 443l-101 356l-20 -4l31 -367v-405q0 -40 -22 -62t-62 -22h-115q-40 0 -62 22t-22 62z
" />
    <glyph glyph-name="O" unicode="O" horiz-adv-x="974" 
d="M82 315v852q0 326 405 326q406 0 406 -326v-852q0 -325 -406 -325q-405 0 -405 325zM385 315q0 -43 26.5 -69.5t75.5 -26.5t76 26.5t27 69.5v852q0 43 -27 70t-76 27t-75.5 -27t-26.5 -70v-852z" />
    <glyph glyph-name="P" unicode="P" horiz-adv-x="913" 
d="M82 84v1315q0 40 22 62t62 22h301q405 0 405 -326v-319q0 -326 -405 -326h-82v-428q0 -40 -22 -62t-62 -22h-135q-40 0 -62 22t-22 62zM385 741h82q49 0 75.5 27t26.5 70v319q0 43 -26.5 69.5t-75.5 26.5h-82v-512z" />
    <glyph glyph-name="Q" unicode="Q" horiz-adv-x="974" 
d="M82 315v852q0 326 405 326q406 0 406 -326v-852q0 -114 -51 -190l119 -207q15 -26 15 -48q0 -40 -46 -67l-119 -67q-24 -14 -47 -14q-9 0 -18 2q-30 8 -50 43l-131 227q-50 -4 -78 -4q-405 0 -405 325zM385 315q0 -43 26.5 -69.5t75.5 -26.5t76 26.5t27 69.5v852
q0 43 -27 70t-76 27t-75.5 -27t-26.5 -70v-852z" />
    <glyph glyph-name="R" unicode="R" horiz-adv-x="974" 
d="M82 84v1315q0 40 22 62t62 22h321q406 0 406 -326v-264q0 -199 -150 -277l187 -495q6 -22 6 -46q0 -30 -23 -53q-22 -22 -61 -22h-141q-63 0 -82 55l-183 512h-61v-483q0 -40 -22 -62t-62 -22h-135q-40 0 -62 22t-22 62zM385 797h102q49 0 76 26.5t27 69.5v264
q0 43 -27 69.5t-76 26.5h-102v-456z" />
    <glyph glyph-name="S" unicode="S" horiz-adv-x="933" 
d="M61 315v146q0 40 22 62t62 22h136q40 0 62 -22t22 -62v-146q0 -43 26.5 -69.5t75.5 -26.5t75.5 26.5t26.5 69.5q0 84 -19.5 133t-80.5 99l-240 203q-104 89 -136 176t-32 241q0 326 406 326q405 0 405 -326v-145q0 -40 -22 -62t-62 -22h-135q-40 0 -62 22t-22 62v145
q0 43 -26.5 70t-75.5 27t-75.5 -27t-26.5 -70q0 -83 19.5 -131.5t80.5 -99.5l240 -203q104 -89 135.5 -176.5t31.5 -241.5q0 -325 -405 -325q-406 0 -406 325z" />
    <glyph glyph-name="T" unicode="T" horiz-adv-x="860" 
d="M0 1337v62q0 40 22 62t62 22h692q40 0 62 -22t22 -62v-62q0 -40 -22 -62t-62 -22h-194v-1169q0 -40 -22 -62t-62 -22h-136q-40 0 -61.5 22t-21.5 62v1169h-195q-40 0 -62 22t-22 62z" />
    <glyph glyph-name="U" unicode="U" horiz-adv-x="974" 
d="M82 315v1084q0 40 22 62t62 22h135q40 0 62 -22t22 -62v-1084q0 -43 26.5 -69.5t75.5 -26.5t76 26.5t27 69.5v1084q0 40 22 62t62 22h135q40 0 62 -22t22 -62v-1084q0 -325 -406 -325q-405 0 -405 325z" />
    <glyph glyph-name="V" unicode="V" horiz-adv-x="917" 
d="M23 1378q-2 13 -2 24q0 31 16 52q22 29 67 29h123q76 0 84 -74l90 -668l48 -546h20l47 546l90 668q8 74 84 74h123q45 1 67 -29q17 -22 17 -53q0 -11 -2 -23l-197 -1298q-11 -80 -86 -80h-307q-75 0 -86 80z" />
    <glyph glyph-name="W" unicode="W" horiz-adv-x="1318" 
d="M23 1378q-1 9 -1 17q0 35 17 59q21 29 65 29h103q34 0 57.5 -17.5t26.5 -56.5l59 -709l27 -444h20l17 444l59 709q3 39 26.5 56.5t57.5 17.5h205q34 0 57.5 -17.5t26.5 -56.5l59 -709l17 -444h20l27 444l59 709q3 39 26.5 56.5t57.5 17.5h102q44 0 66 -29q17 -24 17 -59
q0 -8 -1 -17l-145 -1298q-8 -80 -86 -80h-246q-81 0 -86 80l-49 702l-14 383h-21l-14 -383l-49 -702q-5 -80 -86 -80h-246q-78 0 -86 80z" />
    <glyph glyph-name="X" unicode="X" horiz-adv-x="884" 
d="M23 70.5q0 26.5 6 50.5l215 620l-215 621q-6 24 -6 50.5t22 48.5t61 22h121q63 0 82 -56l66 -200l57 -281h21l57 281l65 200q19 56 82 56h121q39 0 61 -22q23 -23 23 -53q0 -24 -6 -46l-215 -621l215 -620q6 -22 6 -46q0 -30 -23 -53q-22 -22 -61 -22h-121q-63 0 -82 55
l-65 201l-57 281h-21l-57 -281l-66 -201q-19 -55 -82 -55h-121q-39 0 -61 22t-22 48.5z" />
    <glyph glyph-name="Y" unicode="Y" horiz-adv-x="905" 
d="M29 1364q-7 21 -7 39q0 24 11 44q19 36 73 36h123q66 0 82 -58l82 -323l49 -293h21l49 293l82 323q16 58 82 58h123q54 0 73 -36q12 -20 12 -44q0 -19 -7 -39l-273 -854v-426q0 -40 -22 -62t-62 -22h-135q-40 0 -62 22t-22 62v426z" />
    <glyph glyph-name="Z" unicode="Z" horiz-adv-x="815" 
d="M41 84v61q0 23 6 41l383 1067h-305q-40 0 -62 22t-22 62v62q0 40 22 62t62 22h565q40 0 62 -22t22 -62v-62q0 -23 -6 -41l-383 -1067h305q40 0 62 -22t22 -62v-61q0 -40 -22 -62t-62 -22h-565q-40 0 -62 22t-22 62z" />
    <glyph glyph-name="bracketleft" unicode="[" horiz-adv-x="688" 
d="M164 -154v1790q0 40 22 62t62 22h336q40 0 62 -22t22 -62v-61q0 -40 -22 -62t-62 -22h-117v-1499h117q40 0 62 -22t22 -62v-62q0 -40 -22 -62t-62 -22h-336q-40 0 -62 22t-22 62z" />
    <glyph glyph-name="backslash" unicode="\" horiz-adv-x="624" 
d="M-37 1606q-11 41 7.5 77.5t72.5 36.5h59q65 0 80 -53l480 -1790q11 -41 -7.5 -78t-72.5 -37h-60q-30 0 -51.5 14t-28.5 40z" />
    <glyph glyph-name="bracketright" unicode="]" horiz-adv-x="688" 
d="M20 -92q0 40 22 62t62 22h117v1499h-117q-40 0 -62 22t-22 62v61q0 40 22 62t62 22h336q40 0 62 -22t22 -62v-1790q0 -40 -22 -62t-62 -22h-336q-40 0 -62 22t-22 62v62z" />
    <glyph glyph-name="asciicircum" unicode="^" horiz-adv-x="946" 
d="M90 840l254 585q22 52 80 52h98q58 0 80 -52l254 -585q16 -39 -3 -81t-75 -42h-78q-37 0 -55.5 15.5t-28.5 45.5l-133 381h-20l-133 -381q-10 -30 -28.5 -45.5t-55.5 -15.5h-78q-57 0 -76 41t-2 82z" />
    <glyph glyph-name="underscore" unicode="_" horiz-adv-x="958" 
d="M0 -135q0 40 22 62t62 22h790q40 0 62 -22t22 -62v-41q0 -40 -22 -62t-62 -22h-790q-40 0 -62 22t-22 62v41z" />
    <glyph glyph-name="grave" unicode="`" horiz-adv-x="675" 
d="M122.5 1523.5q0.5 23.5 22.5 45.5l74 73q22 22 44.5 22.5t41.5 -22.5l225 -268q40 -50 2 -88l-30 -31q-39 -39 -88 2l-269 224q-23 19 -22.5 42.5z" />
    <glyph glyph-name="a" unicode="a" 
d="M82 219v203q0 274 342 274h72v201q0 78 -72 78t-72 -78v-27q0 -40 -22 -62t-62 -22h-102q-40 0 -62 22t-22 62v35q0 275 342 275t342 -275v-823q0 -38 -22 -60t-62 -22h-102q-40 0 -62 22t-22 60v2q-45 -44 -105 -69t-117 -25q-84 0 -138 57t-54 172zM352 293
q0 -78 72 -78t72 78v207h-72q-72 0 -72 -78v-129z" />
    <glyph glyph-name="b" unicode="b" 
d="M82 82v1474q0 38 22 60t62 22h102q40 0 62 -22t22 -60v-471q46 44 105 69.5t116 25.5q84 0 138.5 -57.5t54.5 -172.5v-731q0 -115 -54.5 -172t-138.5 -57q-57 0 -116 25t-105 69v-2q0 -38 -22 -60t-62 -22h-102q-40 0 -62 22t-22 60zM352 293q0 -78 72 -78t72 78v584
q0 77 -72 77t-72 -77v-584z" />
    <glyph glyph-name="c" unicode="c" 
d="M82 266v639q0 275 342 275t342 -275v-137q0 -40 -22 -62t-62 -22h-102q-40 0 -62 22t-22 62v129q0 78 -72 78t-72 -78v-625q0 -77 72 -77t72 77v129q0 40 22 62t62 22h102q40 0 62 -22t22 -62v-137q0 -274 -342 -274t-342 276z" />
    <glyph glyph-name="d" unicode="d" 
d="M82 219v731q0 115 54 172.5t138 57.5q57 0 116.5 -25.5t105.5 -69.5v471q0 38 22 60t62 22h102q40 0 62 -22t22 -60v-1474q0 -38 -22 -60t-62 -22h-102q-40 0 -62 22t-22 60v2q-45 -44 -105 -69t-117 -25q-84 0 -138 57t-54 172zM352 293q0 -78 72 -78t72 78v584
q0 77 -72 77t-72 -77v-584z" />
    <glyph glyph-name="e" unicode="e" 
d="M82 266v639q0 275 342 275t342 -275v-319q0 -46 -26 -72.5t-72 -26.5h-316v-215q0 -77 72 -77t72 77v27q0 40 22 62t62 22h102q40 0 62 -22t22 -62v-35q0 -274 -342 -274t-342 276zM352 684h144v213q0 78 -72 78t-72 -78v-213z" />
    <glyph glyph-name="f" unicode="f" horiz-adv-x="618" 
d="M10 1049v36q0 40 22 62t62 22h49v195q0 274 342 274h60q40 0 62 -22t22 -62v-36q0 -40 -22 -62t-62 -22h-60q-71 0 -71 -78v-187h90q40 0 62 -22t22 -62v-36q0 -40 -22 -62t-62 -22h-90v-881q0 -40 -22 -62t-62 -22h-103q-40 0 -62 22t-22 62v881h-49q-40 0 -62 22
t-22 62z" />
    <glyph glyph-name="g" unicode="g" 
d="M82 219v731q0 115 54 172.5t138 57.5q57 0 116.5 -25.5t105.5 -69.5v2q0 38 22 60t62 22h102q40 0 62 -22t22 -60v-1222q0 -275 -342 -275h-141q-40 0 -62 22t-22 62v37q0 40 22 62t62 22h141q72 0 72 78v211q-45 -44 -105 -69t-117 -25q-84 0 -138 57t-54 172zM352 293
q0 -78 72 -78t72 78v584q0 77 -72 77t-72 -77v-584z" />
    <glyph glyph-name="h" unicode="h" 
d="M82 82v1474q0 38 22 60t62 22h102q40 0 62 -22t22 -60v-471q46 44 105 69.5t116 25.5q84 0 138.5 -57.5t54.5 -172.5v-868q0 -38 -22 -60t-62 -22h-102q-40 0 -62 22t-22 60v795q0 77 -72 77t-72 -77v-795q0 -38 -22 -60t-62 -22h-102q-40 0 -62 22t-22 60z" />
    <glyph glyph-name="i" unicode="i" horiz-adv-x="434" 
d="M61 1448q0 69 43.5 112.5t112.5 43.5t112.5 -43.5t43.5 -112.5t-43.5 -112.5t-112.5 -43.5t-112.5 43.5t-43.5 112.5zM82 84v1001q0 40 22 62t62 22h102q40 0 62 -22t22 -62v-1001q0 -40 -22 -62t-62 -22h-102q-40 0 -62 22t-22 62z" />
    <glyph glyph-name="j" unicode="j" horiz-adv-x="434" 
d="M-113 -289q0 40 22 62t62 22h39q72 0 72 78v1212q0 40 22 62t62 22h102q40 0 62 -22t22 -62v-1220q0 -275 -342 -275h-39q-40 0 -62 22t-22 62v37zM61 1448q0 69 43.5 112.5t112.5 43.5t112.5 -43.5t43.5 -112.5t-43.5 -112.5t-112.5 -43.5t-112.5 43.5t-43.5 112.5z" />
    <glyph glyph-name="k" unicode="k" horiz-adv-x="825" 
d="M82 84v1470q0 40 22 62t62 22h102q40 0 62 -22t22 -62v-852h21l178 424q19 43 76 43h104q40 -1 62 -23q21 -22 21 -48q0 -27 -9 -58l-197 -454l197 -457q9 -31 9 -58t-21 -49q-22 -22 -62 -22h-104q-57 0 -76 43l-178 426h-21v-385q0 -40 -22 -62t-62 -22h-102
q-40 0 -62 22t-22 62z" />
    <glyph glyph-name="l" unicode="l" horiz-adv-x="434" 
d="M82 84v1470q0 40 22 62t62 22h102q40 0 62 -22t22 -62v-1470q0 -40 -22 -62t-62 -22h-102q-40 0 -62 22t-22 62z" />
    <glyph glyph-name="m" unicode="m" horiz-adv-x="1261" 
d="M82 82v1005q0 38 22 60t62 22h102q40 0 62 -22t22 -60v-2q46 44 105 69.5t116 25.5q113 0 164 -97q111 97 250 97q84 0 138.5 -57.5t54.5 -172.5v-868q0 -38 -22 -60t-62 -22h-103q-40 0 -62 22t-22 60v795q0 77 -71 77q-72 0 -72 -77v-795q0 -38 -22 -60t-62 -22h-102
q-40 0 -62 22t-22 60v795q0 77 -72 77t-72 -77v-795q0 -38 -22 -60t-62 -22h-102q-40 0 -62 22t-22 60z" />
    <glyph glyph-name="n" unicode="n" 
d="M82 82v1005q0 38 22 60t62 22h102q40 0 62 -22t22 -60v-2q46 44 105 69.5t116 25.5q84 0 138.5 -57.5t54.5 -172.5v-868q0 -38 -22 -60t-62 -22h-102q-40 0 -62 22t-22 60v795q0 77 -72 77t-72 -77v-795q0 -38 -22 -60t-62 -22h-102q-40 0 -62 22t-22 60z" />
    <glyph glyph-name="o" unicode="o" 
d="M82 264v641q0 275 342 275t342 -275v-641q0 -274 -342 -274t-342 274zM352 272q0 -77 72 -77t72 77v625q0 78 -72 78t-72 -78v-625z" />
    <glyph glyph-name="p" unicode="p" 
d="M82 -328v1415q0 38 22 60t62 22h102q40 0 62 -22t22 -60v-2q46 44 105 69.5t116 25.5q84 0 138.5 -57.5t54.5 -172.5v-731q0 -115 -54.5 -172t-138.5 -57q-57 0 -116 25t-105 69v-412q0 -38 -22 -60t-62 -22h-102q-40 0 -62 22t-22 60zM352 293q0 -78 72 -78t72 78v584
q0 77 -72 77t-72 -77v-584z" />
    <glyph glyph-name="q" unicode="q" 
d="M82 219v731q0 115 54 172.5t138 57.5q57 0 116.5 -25.5t105.5 -69.5v2q0 38 22 60t62 22h102q40 0 62 -22t22 -60v-1415q0 -38 -22 -60t-62 -22h-102q-40 0 -62 22t-22 60v412q-45 -44 -105 -69t-117 -25q-84 0 -138 57t-54 172zM352 293q0 -78 72 -78t72 78v584
q0 77 -72 77t-72 -77v-584z" />
    <glyph glyph-name="r" unicode="r" horiz-adv-x="806" 
d="M82 82v1005q0 38 22 60t62 22h102q40 0 62 -22t22 -60v-2q46 44 105 69.5t116 25.5q84 0 138.5 -57.5t54.5 -172.5v-243q0 -38 -22 -60t-62 -22h-102q-40 0 -62 22t-22 60v170q0 77 -72 77t-72 -77v-795q0 -38 -22 -60t-62 -22h-102q-40 0 -62 22t-22 60z" />
    <glyph glyph-name="s" unicode="s" horiz-adv-x="806" 
d="M61 264v76q0 40 22 62t62 22h103q40 0 62 -22t22 -62v-68q0 -77 71 -77q72 0 72 77q0 48 -14 74.5t-66 71.5l-178 157q-92 81 -124 147t-32 183q0 275 342 275t342 -275v-76q0 -40 -21.5 -62t-61.5 -22h-103q-40 0 -62 22t-22 62v68q0 78 -72 78q-71 0 -71 -78
q0 -48 14 -74t66 -71l178 -158q92 -80 123.5 -146.5t31.5 -183.5q0 -274 -342 -274t-342 274z" />
    <glyph glyph-name="t" unicode="t" horiz-adv-x="638" 
d="M10 1049v36q0 40 22 62t62 22h49v230q0 40 22 62t62 22h103q40 0 62 -22t22 -62v-230h90q40 0 62 -22t22 -62v-36q0 -40 -22 -62t-62 -22h-90v-682q0 -78 71 -78h60q40 0 62 -22t22 -62v-37q0 -40 -22 -62t-62 -22h-60q-342 0 -342 274v691h-49q-40 0 -62 22t-22 62z" />
    <glyph glyph-name="u" unicode="u" 
d="M82 219v868q0 38 22 60t62 22h102q40 0 62 -22t22 -60v-794q0 -78 72 -78t72 78v794q0 38 22 60t62 22h102q40 0 62 -22t22 -60v-1005q0 -38 -22 -60t-62 -22h-102q-40 0 -62 22t-22 60v2q-45 -44 -105 -69t-117 -25q-84 0 -138 57t-54 172z" />
    <glyph glyph-name="v" unicode="v" horiz-adv-x="724" 
d="M12 1067q-2 12 -2 23q0 35 20 54q26 25 64 25h96q38 0 59.5 -19t24.5 -52l52 -512l26 -391h21l26 391l52 512q3 33 24.5 52t59.5 19h96q39 0 65 -25q19 -19 19 -54q0 -11 -2 -23l-150 -991q-10 -76 -84 -76h-233q-74 0 -84 76z" />
    <glyph glyph-name="w" unicode="w" horiz-adv-x="1126" 
d="M12 1067q-2 12 -2 23q0 35 20 54q26 25 64 25h96q38 0 59.5 -19t24.5 -52l41 -555l17 -348h20l17 348l41 555q3 33 24.5 52t59.5 19h139q38 0 59.5 -19t24.5 -52l41 -555l16 -348h21l16 348l41 555q3 33 24.5 52t59.5 19h96q38 0 64 -25q19 -19 20 -54q0 -11 -2 -23
l-129 -991q-10 -76 -84 -76h-192q-74 0 -84 76l-41 426l-11 346h-20l-10 -346l-41 -426q-10 -76 -84 -76h-193q-74 0 -84 76z" />
    <glyph glyph-name="x" unicode="x" horiz-adv-x="741" 
d="M23 71.5q0 28.5 8 55.5l182 459l-182 456q-8 27 -8 55.5t22 50t61 21.5h91q69 0 84 -63l45 -182l34 -181h21l35 181l45 182q15 63 84 63h90q39 0 61.5 -21.5t22.5 -50t-8 -55.5l-183 -456l183 -459q8 -27 8 -55.5t-22.5 -50t-61.5 -21.5h-90q-69 0 -84 63l-45 183
l-35 180h-21l-34 -180l-45 -183q-15 -63 -84 -63h-91q-39 0 -61 21.5t-22 50z" />
    <glyph glyph-name="y" unicode="y" horiz-adv-x="724" 
d="M12 1067q-2 12 -2 23q0 35 20 54q25 25 64 25h96q38 0 59.5 -19t24.5 -52l52 -512l26 -391h21l26 391l52 512q3 33 24.5 52t59.5 19h96q39 0 65 -25q19 -19 19 -54q0 -11 -2 -23l-211 -1405q-10 -72 -84 -72h-96q-39 0 -64 26q-20 19 -20 54q0 11 2 23l47 307h-41
q-74 0 -84 76z" />
    <glyph glyph-name="z" unicode="z" horiz-adv-x="710" 
d="M20 84v37q0 21 7 39l352 805h-275q-40 0 -62 22t-22 62v36q0 40 22 62t62 22h502q40 0 62 -22t22 -62v-36q0 -24 -6 -39l-352 -805h274q40 0 62 -22t22 -62v-37q0 -40 -22 -62t-62 -22h-502q-40 0 -62 22t-22 62z" />
    <glyph glyph-name="braceleft" unicode="{" horiz-adv-x="706" 
d="M0 711v61q0 40 22 62t62 22q64 0 101.5 39t37.5 98v453q0 141 92.5 207.5t286.5 66.5q40 0 62 -22t22 -62v-49q0 -40 -22 -62t-62 -22q-76 0 -76 -78v-381q0 -223 -188 -292v-21q188 -72 188 -293v-381q0 -77 76 -77q40 0 62 -22t22 -62v-50q0 -40 -22 -62t-62 -22
q-194 0 -286.5 67t-92.5 208v452q0 59 -37.5 98.5t-101.5 39.5q-40 0 -62 22t-22 62z" />
    <glyph glyph-name="bar" unicode="|" horiz-adv-x="393" 
d="M82 -326v1880q0 40 22 62t62 22h61q40 0 62 -22t22 -62v-1880q0 -40 -22 -62t-62 -22h-61q-40 0 -62 22t-22 62z" />
    <glyph glyph-name="braceright" unicode="}" horiz-adv-x="706" 
d="M23 -104q0 40 21.5 62t61.5 22q76 0 76 77v381q0 224 189 293v21q-189 72 -189 292v381q0 78 -76 78q-40 0 -61.5 22t-21.5 62v49q0 40 21.5 62t61.5 22q194 0 286.5 -66.5t92.5 -207.5v-453q0 -59 38 -98t102 -39q40 0 62 -22t22 -62v-61q0 -40 -22 -62t-62 -22
q-64 0 -102 -39.5t-38 -98.5v-452q0 -141 -92.5 -208t-286.5 -67q-40 0 -61.5 22t-21.5 62v50z" />
    <glyph glyph-name="asciitilde" unicode="~" horiz-adv-x="999" 
d="M82 498v30q0 82 34 143.5t87.5 90t115 35t122 -16t102.5 -67.5l94 -101q25 -27 52.5 -16.5t27.5 43.5v33q0 73 78 73h49q35 0 54.5 -19t19.5 -54v-31q0 -82 -34 -143.5t-87.5 -90t-115 -34.5t-122 16.5t-102.5 67.5l-95 100q-26 26 -52.5 16t-26.5 -43v-32q0 -74 -78 -74
h-49q-35 0 -54.5 19.5t-19.5 54.5z" />
    <glyph glyph-name="uni00A0" unicode="&#xa0;" horiz-adv-x="471" 
 />
    <glyph glyph-name="exclamdown" unicode="&#xa1;" horiz-adv-x="589" 
d="M123 -229l51 862q6 84 84 84h74q78 0 84 -84l51 -862q3 -39 -20.5 -61.5t-63.5 -22.5h-176q-40 0 -63.5 22.5t-20.5 61.5zM139 1024q0 69 43.5 112.5t112.5 43.5t112.5 -43.5t43.5 -112.5t-43.5 -112.5t-112.5 -43.5t-112.5 43.5t-43.5 112.5z" />
    <glyph glyph-name="cent" unicode="&#xa2;" 
d="M82 580v639q0 223 229 264v133q0 40 22 62t62 22h62q40 0 62 -22t22 -62v-133q225 -42 225 -264v-138q0 -40 -22 -62t-62 -22h-102q-40 0 -62 22t-22 62v129q0 78 -72 78t-72 -78v-624q0 -78 72 -78t72 78v129q0 40 22 62t62 22h102q40 0 62 -22t22 -62v-137
q0 -225 -225 -267v-131q0 -40 -22 -62t-62 -22h-62q-40 0 -62 22t-22 62v131q-229 41 -229 269z" />
    <glyph glyph-name="sterling" unicode="&#xa3;" horiz-adv-x="954" 
d="M82 84v61q0 23 6 41l135 277q22 50 29 78h-86q-40 0 -62 22t-22 62v61q0 40 22 62t62 22h63q-13 26 -44.5 80t-50.5 91t-35.5 99t-16.5 127q0 326 405 326q406 0 406 -326v-104q0 -40 -22 -62t-62 -22h-135q-40 0 -62 22t-22 62v104q0 43 -27 70t-76 27t-75.5 -27
t-26.5 -70q0 -77 21 -143t62.5 -146t53.5 -108h170q40 0 62 -22t22 -62v-61q0 -40 -22 -62t-62 -22h-145q-18 -80 -55 -148l-86 -164h403q40 0 62 -22t22 -62v-61q0 -40 -22 -62t-62 -22h-643q-40 0 -62 22t-22 62z" />
    <glyph glyph-name="currency" unicode="&#xa4;" horiz-adv-x="978" 
d="M70 377q-58 61 0 119l82 82q-37 75 -37 176q0 99 37 174l-82 84q-57 57 0 118l43 44q61 57 118 0l84 -84q80 36 174 36q102 0 175 -36l84 84q57 57 118 0l43 -44q57 -61 0 -118l-84 -84q37 -75 37 -174q0 -92 -37 -174l84 -84q58 -58 0 -119l-43 -43q-61 -57 -118 0
l-84 82q-75 -37 -175 -37q-101 0 -176 37l-82 -82q-57 -57 -118 0zM340 754q0 -66 41.5 -108t107.5 -42t108 42t42 108t-42 107.5t-108 41.5t-107.5 -41.5t-41.5 -107.5z" />
    <glyph glyph-name="yen" unicode="&#xa5;" horiz-adv-x="905" 
d="M29 1364q-15 47 4 83t73 36h123q66 0 82 -58l82 -323l49 -293h21l49 293l82 323q16 58 82 58h123q54 0 73.5 -36t4.5 -83l-218 -676h115q40 0 62 -22t22 -62v-61q0 -40 -22 -62t-62 -22h-170v-375q0 -40 -22 -62t-62 -22h-135q-40 0 -62 22t-22 62v375h-170q-40 0 -62 22
t-22 62v61q0 40 22 62t62 22h113z" />
    <glyph glyph-name="brokenbar" unicode="&#xa6;" horiz-adv-x="393" 
d="M82 -326v662q0 40 22 62t62 22h61q40 0 62 -22t22 -62v-662q0 -40 -22 -62t-62 -22h-61q-40 0 -62 22t-22 62zM82 893v661q0 40 22 62t62 22h61q40 0 62 -22t22 -62v-661q0 -40 -22 -62t-62 -22h-61q-40 0 -62 22t-22 62z" />
    <glyph glyph-name="section" unicode="&#xa7;" horiz-adv-x="974" 
d="M82 -10q0 40 22 62t62 22h135q40 0 62 -22t22 -62v-84q0 -43 26.5 -69.5t75.5 -26.5t76 26.5t27 69.5q0 65 -101 149l-239 203q-92 78 -130 150t-38 186q0 189 133 266q-73 70 -103 137t-30 170q0 326 405 326q406 0 406 -326v-84q0 -40 -22 -62t-62 -22h-135
q-40 0 -62 22t-22 62v84q0 43 -27 70t-76 27t-75.5 -27t-26.5 -70q0 -66 100 -149l240 -203q92 -78 130 -150t38 -186q0 -187 -135 -268q73 -68 104 -136t31 -169q0 -326 -406 -326q-405 0 -405 326v84zM385 594q0 -67 100 -150l58 -49q47 32 47 84q0 66 -101 150l-57 47
q-47 -29 -47 -82z" />
    <glyph glyph-name="dieresis" unicode="&#xa8;" horiz-adv-x="913" 
d="M123 1448q0 63 38 101t101 38t101 -38t38 -101t-38 -101t-101 -38t-101 38t-38 101zM512 1448q0 63 38 101t101 38t101.5 -38t38.5 -101t-38.5 -101t-101.5 -38t-101 38t-38 101z" />
    <glyph glyph-name="copyright" unicode="&#xa9;" horiz-adv-x="1544" 
d="M20 741q0 215 96.5 387t268.5 268.5t387 96.5t387 -96.5t268.5 -268.5t96.5 -387q0 -161 -56.5 -301t-155.5 -238.5t-239 -155t-301 -56.5t-301 56.5t-239 155t-155.5 238.5t-56.5 301zM229 741q0 -248 149.5 -405.5t393.5 -157.5t393.5 157.5t149.5 405.5t-149.5 406
t-393.5 158t-393.5 -158t-149.5 -406zM516 502v479q0 207 256 207t256 -207v-102q0 -64 -61 -64h-78q-30 0 -47 17t-17 47v96q0 59 -53 59t-53 -59v-469q0 -57 53 -57t53 57v96q0 30 17 47t47 17h78q61 0 61 -64v-102q0 -205 -256 -205t-256 207z" />
    <glyph glyph-name="ordfeminine" unicode="&#xaa;" horiz-adv-x="483" 
d="M41 1014v96q0 75 53.5 111t147.5 36h26v78q0 27 -26 27q-27 0 -27 -25v-2q0 -20 -15 -33.5t-40 -13.5h-64q-55 0 -55 55q0 74 54 110t147 36q94 0 146.5 -36.5t51.5 -111.5v-397q0 -55 -55 -55h-61q-26 0 -41 14t-15 35v2q-51 -57 -123 -57q-45 0 -74.5 33t-29.5 98z
M215 1053q0 -12 7.5 -19.5t19.5 -7.5q26 0 26 27v84h-26q-12 0 -19.5 -8t-7.5 -19v-57z" />
    <glyph glyph-name="guillemotleft" unicode="&#xab;" horiz-adv-x="1046" 
d="M82 586l168 418q19 49 78 49h112q58 0 76.5 -42t1.5 -81l-149 -344l149 -344q17 -39 -1.5 -81t-76.5 -42h-112q-59 0 -78 49zM520 586l168 418q19 49 78 49h113q40 0 62 -22.5t22 -49.5t-7 -51l-149 -344l149 -344q7 -24 7 -51t-22 -49.5t-62 -22.5h-113q-59 0 -78 49z
" />
    <glyph glyph-name="logicalnot" unicode="&#xac;" horiz-adv-x="921" 
d="M82 713v61q0 40 22 62t62 22h590q40 0 62 -22t22 -62v-325q0 -40 -22 -62t-62 -22h-62q-40 0 -62 22t-22 62v180h-444q-40 0 -62 22t-22 62z" />
    <glyph glyph-name="uni00AD" unicode="&#xad;" horiz-adv-x="575" 
d="M41 555v61q0 40 22 62t62 22h326q40 0 62 -22t22 -62v-61q0 -40 -22 -62t-62 -22h-326q-40 0 -62 22t-22 62z" />
    <glyph glyph-name="registered" unicode="&#xae;" horiz-adv-x="1544" 
d="M20 741q0 215 96.5 387t268.5 268.5t387 96.5t387 -96.5t268.5 -268.5t96.5 -387q0 -161 -56.5 -301t-155.5 -238.5t-239 -155t-301 -56.5t-301 56.5t-239 155t-155.5 238.5t-56.5 301zM229 741q0 -248 149.5 -405.5t393.5 -157.5t393.5 157.5t149.5 405.5t-149.5 406
t-393.5 158t-393.5 -158t-149.5 -406zM526 367v751q0 64 64 64h192q258 0 258 -207v-131q0 -118 -86 -170l111 -275q6 -21 5.5 -42.5t-17 -37.5t-45.5 -16h-84q-46 0 -62 49l-102 285h-31v-270q0 -30 -16.5 -47t-46.5 -17h-76q-30 0 -47 17t-17 47zM729 791h53q56 0 56 59
v119q0 59 -56 59h-53v-237z" />
    <glyph glyph-name="macron" unicode="&#xaf;" horiz-adv-x="739" 
d="M123 1380v66q0 63 63 63h408q63 0 63 -63v-66q0 -63 -63 -63h-408q-63 0 -63 63z" />
    <glyph glyph-name="degree" unicode="&#xb0;" horiz-adv-x="679" 
d="M41 1194q0 132 83.5 215.5t215.5 83.5t215.5 -83.5t83.5 -215.5t-83.5 -215.5t-215.5 -83.5t-215.5 83.5t-83.5 215.5zM236 1194q0 -51 27.5 -82t76.5 -31t76.5 31t27.5 82t-27.5 82t-76.5 31t-76.5 -31t-27.5 -82z" />
    <glyph glyph-name="plusminus" unicode="&#xb1;" horiz-adv-x="921" 
d="M82 84v61q0 40 22 62t62 22h590q40 0 62 -22t22 -62v-61q0 -40 -22 -62t-62 -22h-590q-40 0 -62 22t-22 62zM82 713v61q0 40 22 62t62 22h180v180q0 40 22 62t62 22h62q40 0 61.5 -22t21.5 -62v-180h181q40 0 62 -22t22 -62v-61q0 -40 -22 -62t-62 -22h-181v-180
q0 -40 -21.5 -62t-61.5 -22h-62q-40 0 -62 22t-22 62v180h-180q-40 0 -62 22t-22 62z" />
    <glyph glyph-name="uni00B2" unicode="&#xb2;" horiz-adv-x="524" 
d="M41 1053v63q0 38 18 60l222 278q18 23 18 55v64q0 37 -37 37t-37 -37v-72q0 -55 -55 -55h-74q-55 0 -55 55v72q0 172 221 172t221 -172v-45q0 -33 -1.5 -51t-11.5 -46t-30 -53l-188 -215h176q55 0 55 -55v-55q0 -26 -14.5 -41t-40.5 -15h-332q-26 0 -40.5 15t-14.5 41z
" />
    <glyph glyph-name="uni00B3" unicode="&#xb3;" horiz-adv-x="524" 
d="M41 1163v51q0 26 14.5 41t40.5 15h74q26 0 40.5 -15t14.5 -41v-51q0 -37 37 -37t37 37v111q0 13 -8.5 21t-20.5 8h-39q-55 0 -55 55v14q0 58 55 58h39q12 0 20.5 7.5t8.5 20.5v115q0 37 -37 37t-37 -37v-51q0 -26 -14.5 -41t-40.5 -15h-74q-26 0 -40.5 15t-14.5 41v51
q0 172 221 172t221 -172v-60q0 -98 -98 -141v-14q98 -43 98 -139v-56q0 -172 -221 -172t-221 172z" />
    <glyph glyph-name="acute" unicode="&#xb4;" horiz-adv-x="675" 
d="M143 1286q-39 38 2 88l226 268q19 23 41.5 22.5t44.5 -22.5l73 -73q22 -22 22.5 -45.5t-22.5 -42.5l-268 -224q-50 -41 -88 -2z" />
    <glyph glyph-name="paragraph" unicode="&#xb6;" horiz-adv-x="997" 
d="M20 1141q0 163 86 252.5t230 89.5h577q40 0 62 -22t22 -62v-60q0 -40 -22 -62t-62 -22h-139v-1581q0 -40 -22 -62t-62 -22h-78q-40 0 -62 22t-22 62v1125h-192q-144 0 -230 89.5t-86 252.5zM266 1141q0 -52 32 -83.5t87 -31.5h143v229h-143q-55 0 -87 -31t-32 -83z" />
    <glyph glyph-name="periodcentered" unicode="&#xb7;" horiz-adv-x="516" 
d="M82 741q0 79 48.5 129t125.5 50q79 0 128.5 -49.5t49.5 -129.5q0 -77 -49.5 -125.5t-128.5 -48.5q-76 0 -125 48.5t-49 125.5z" />
    <glyph glyph-name="cedilla" unicode="&#xb8;" horiz-adv-x="604" 
d="M123 -319q0 63 63 63h80q33 0 33 18q0 19 -33 19h-59q-64 0 -64 63v54q0 14 7 32l30 70h170l-22 -68q71 -5 112 -48t41 -122q0 -172 -174 -172h-121q-63 0 -63 64v27z" />
    <glyph glyph-name="uni00B9" unicode="&#xb9;" horiz-adv-x="376" 
d="M10 1552v25q0 26 15 40.5t41 14.5h36q23 0 36.5 13t13.5 34v4q0 26 14.5 41t40.5 15h74q26 0 40.5 -15t14.5 -41v-630q0 -26 -14.5 -41t-40.5 -15h-74q-26 0 -40.5 15t-14.5 41v444h-86q-26 0 -41 14.5t-15 40.5z" />
    <glyph glyph-name="ordmasculine" unicode="&#xba;" horiz-adv-x="483" 
d="M41 1032v309q0 75 53.5 111.5t147.5 36.5q93 0 146.5 -36.5t53.5 -111.5v-309q0 -75 -53.5 -112t-146.5 -37t-147 37t-54 112zM215 1038q0 -26 27 -26q26 0 26 26v297q0 27 -26 27q-12 0 -19.5 -7.5t-7.5 -19.5v-297z" />
    <glyph glyph-name="guillemotright" unicode="&#xbb;" horiz-adv-x="1046" 
d="M90 242l150 344l-150 344q-17 39 1.5 81t76.5 42h113q58 0 77 -49l168 -418l-168 -418q-19 -49 -77 -49h-113q-58 0 -76.5 42t-1.5 81zM528 242l150 344l-150 344q-17 39 1.5 81t76.5 42h113q59 0 78 -49l168 -418l-168 -418q-19 -49 -78 -49h-113q-58 0 -76.5 42
t-1.5 81z" />
    <glyph glyph-name="onequarter" unicode="&#xbc;" horiz-adv-x="1060" 
d="M10 1296v25q0 26 15 40.5t41 14.5h36q23 0 36.5 13t13.5 34v4q0 26 14.5 41t40.5 15h74q26 0 40.5 -15t14.5 -41v-630q0 -26 -14.5 -41t-40.5 -15h-74q-26 0 -40.5 15t-14.5 41v444h-86q-26 0 -41 14.5t-15 40.5zM119 92l631 1360q16 31 57 31h70q40 0 56 -31t1 -61
l-631 -1360q-15 -31 -57 -31h-70q-40 0 -56 31t-1 61zM573 170v66q0 18 11 55l133 416q9 34 53 34h72q38 0 49.5 -27.5t3.5 -54.5l-137 -378h45v71q0 26 14.5 41t40.5 15h76q26 0 40.5 -15t14.5 -41v-71h17q26 0 40.5 -15t14.5 -41v-55q0 -55 -55 -55h-17v-60q0 -55 -55 -55
h-76q-55 0 -55 55v60h-174q-26 0 -41 14.5t-15 40.5z" />
    <glyph glyph-name="onehalf" unicode="&#xbd;" horiz-adv-x="1138" 
d="M10 1296v25q0 26 15 40.5t41 14.5h36q23 0 36.5 13t13.5 34v4q0 26 14.5 41t40.5 15h74q26 0 40.5 -15t14.5 -41v-630q0 -26 -14.5 -41t-40.5 -15h-74q-26 0 -40.5 15t-14.5 41v444h-86q-26 0 -41 14.5t-15 40.5zM119 92l631 1360q16 31 57 31h70q40 0 56 -31t1 -61
l-631 -1360q-15 -31 -57 -31h-70q-40 0 -56 31t-1 61zM655 55v64q0 35 19 59l221 279q18 23 18 55v63q0 37 -36 37q-37 0 -37 -37v-71q0 -26 -15 -40.5t-41 -14.5h-73q-26 0 -41 14.5t-15 40.5v71q0 173 222 173q221 0 221 -173v-45q0 -33 -1.5 -51t-11.5 -45.5t-30 -52.5
l-189 -215h176q26 0 41 -14.5t15 -40.5v-56q0 -26 -15 -40.5t-41 -14.5h-331q-26 0 -41 14.5t-15 40.5z" />
    <glyph glyph-name="threequarters" unicode="&#xbe;" horiz-adv-x="1146" 
d="M41 907v51q0 26 14.5 41t40.5 15h74q26 0 40.5 -15t14.5 -41v-51q0 -37 37 -37t37 37v111q0 13 -8.5 21t-20.5 8h-39q-55 0 -55 55v14q0 58 55 58h39q12 0 20.5 7.5t8.5 20.5v115q0 37 -37 37t-37 -37v-51q0 -26 -14.5 -41t-40.5 -15h-74q-26 0 -40.5 15t-14.5 41v51
q0 172 221 172t221 -172v-60q0 -98 -98 -141v-14q98 -43 98 -139v-56q0 -172 -221 -172t-221 172zM205 92l631 1360q16 31 57 31h70q40 0 56 -31t1 -61l-631 -1360q-15 -31 -57 -31h-70q-40 0 -56 31t-1 61zM659 170v66q0 18 11 55l133 416q9 34 53 34h72q38 0 49.5 -27.5
t3.5 -54.5l-137 -378h45v71q0 26 14.5 41t40.5 15h76q26 0 40.5 -15t14.5 -41v-71h17q26 0 40.5 -15t14.5 -41v-55q0 -55 -55 -55h-17v-60q0 -55 -55 -55h-76q-55 0 -55 55v60h-174q-26 0 -41 14.5t-15 40.5z" />
    <glyph glyph-name="questiondown" unicode="&#xbf;" horiz-adv-x="901" 
d="M61 2v31q0 66 20 124.5t49.5 98t64 80t64 73t49.5 75t20 87.5v62q0 40 22 62t62 22h77q40 0 62 -22t22 -62v-39q0 -85 -23 -153.5t-56 -113t-66.5 -84t-56.5 -85t-23 -97.5v-59q0 -108 103 -108q102 0 102 108v104q0 40 22 62t62 22h119q40 0 62 -22t22 -62v-104
q0 -167 -95.5 -246.5t-293.5 -79.5q-199 0 -294.5 79.5t-95.5 246.5zM297 1024q0 69 43.5 112.5t112.5 43.5t112 -43.5t43 -112.5t-43 -112.5t-112 -43.5t-112.5 43.5t-43.5 112.5z" />
    <glyph glyph-name="Agrave" unicode="&#xc0;" horiz-adv-x="917" 
d="M23 104l196 1299q11 80 86 80h307q75 0 86 -80l197 -1299q8 -46 -14.5 -75t-67.5 -29h-123q-76 0 -84 74l-24 205h-246l-25 -205q-8 -74 -84 -74h-123q-45 0 -67 29t-14 75zM188.5 1728.5q-7.5 23.5 6.5 51.5l43 94q29 59 81 29l334 -191q54 -33 33 -82l-18 -41
q-23 -48 -84 -26l-361 133q-27 9 -34.5 32.5zM362 508h191l-27 233l-57 547h-20l-58 -547z" />
    <glyph glyph-name="Aacute" unicode="&#xc1;" horiz-adv-x="917" 
d="M23 104l196 1299q11 80 86 80h307q75 0 86 -80l197 -1299q8 -46 -14.5 -75t-67.5 -29h-123q-76 0 -84 74l-24 205h-246l-25 -205q-8 -74 -84 -74h-123q-45 0 -67 29t-14 75zM231 1630q-21 49 33 82l334 191q53 30 82 -29l43 -94q14 -28 6 -51.5t-35 -32.5l-360 -133
q-61 -22 -84 26zM362 508h191l-27 233l-57 547h-20l-58 -547z" />
    <glyph glyph-name="Acircumflex" unicode="&#xc2;" horiz-adv-x="917" 
d="M23 104l196 1299q11 80 86 80h307q75 0 86 -80l197 -1299q8 -46 -14.5 -75t-67.5 -29h-123q-76 0 -84 74l-24 205h-246l-25 -205q-8 -74 -84 -74h-123q-45 0 -67 29t-14 75zM96 1624q-24 47 27 84l239 168q36 25 64 25h66q24 0 63 -25l240 -166q51 -36 26 -84l-22 -39
q-26 -45 -86 -20l-254 108l-254 -110q-60 -26 -86 20zM362 508h191l-27 233l-57 547h-20l-58 -547z" />
    <glyph glyph-name="Atilde" unicode="&#xc3;" horiz-adv-x="917" 
d="M23 104l196 1299q11 80 86 80h307q75 0 86 -80l197 -1299q8 -46 -14.5 -75t-67.5 -29h-123q-76 0 -84 74l-24 205h-246l-25 -205q-8 -74 -84 -74h-123q-45 0 -67 29t-14 75zM119 1640v43q0 77 40 128.5t97 67.5t119.5 4t105.5 -52l90 -84q22 -19 42 -12t20 32v25
q0 55 57 55h53q26 0 41 -14.5t15 -40.5v-45q0 -77 -40.5 -127.5t-97 -66t-119.5 -3t-106 51.5l-90 81q-22 18 -41.5 12t-19.5 -30v-25q0 -55 -58 -55h-53q-55 0 -55 55zM362 508h191l-27 233l-57 547h-20l-58 -547z" />
    <glyph glyph-name="Adieresis" unicode="&#xc4;" horiz-adv-x="917" 
d="M23 104l196 1299q11 80 86 80h307q75 0 86 -80l197 -1299q8 -46 -14.5 -75t-67.5 -29h-123q-76 0 -84 74l-24 205h-246l-25 -205q-8 -74 -84 -74h-123q-45 0 -67 29t-14 75zM104 1743q0 63 38.5 101t101.5 38t101 -38t38 -101t-38 -101t-101 -38t-101.5 38t-38.5 101z
M362 508h191l-27 233l-57 547h-20l-58 -547zM535 1743q0 63 38 101t101 38t101 -38t38 -101t-38 -101t-101 -38t-101 38t-38 101z" />
    <glyph glyph-name="Aring" unicode="&#xc5;" horiz-adv-x="917" 
d="M23 104l196 1299q11 80 86 80h307q75 0 86 -80l197 -1299q8 -46 -14.5 -75t-67.5 -29h-123q-76 0 -84 74l-24 205h-246l-25 -205q-8 -74 -84 -74h-123q-45 0 -67 29t-14 75zM244 1726q0 95 60 155.5t155 60.5t155 -60.5t60 -155.5t-60 -155t-155 -60t-155 60t-60 155z
M362 508h191l-27 233l-57 547h-20l-58 -547zM385 1726q0 -34 20.5 -55.5t53.5 -21.5t53 21.5t20 55.5t-20 56t-53 22t-53.5 -22t-20.5 -56z" />
    <glyph glyph-name="AE" unicode="&#xc6;" horiz-adv-x="1271" 
d="M4 109l322 1318q13 56 80 56h761q40 0 62 -22t22 -62v-62q0 -40 -22 -62t-62 -22h-297v-397h220q40 0 62 -22t22 -62v-61q0 -40 -22 -62t-62 -22h-220v-398h297q40 0 62 -22t22 -62v-61q0 -40 -22 -62t-62 -22h-516q-40 0 -62 22t-22 62v195h-231l-49 -211
q-9 -36 -28.5 -52t-55.5 -16h-117q-52 0 -71.5 34.5t-10.5 74.5zM389 508h178v760h-20l-105 -527z" />
    <glyph glyph-name="Ccedilla" unicode="&#xc7;" horiz-adv-x="974" 
d="M82 315v852q0 326 405 326q406 0 406 -326v-206q0 -40 -22 -62t-62 -22h-135q-40 0 -62 22t-22 62v206q0 43 -27 70t-76 27t-75.5 -27t-26.5 -70v-852q0 -43 26.5 -69.5t75.5 -26.5t76 26.5t27 69.5v207q0 40 22 62t62 22h135q40 0 62 -22t22 -62v-207q0 -293 -328 -321
l-20 -62q71 -5 112 -48t41 -122q0 -172 -174 -172h-121q-63 0 -63 64v27q0 63 63 63h80q33 0 33 18q0 19 -33 19h-59q-64 0 -64 63v54q0 14 7 32l28 66q-313 31 -313 319z" />
    <glyph glyph-name="Egrave" unicode="&#xc8;" horiz-adv-x="786" 
d="M82 84v1315q0 40 22 62t62 22h516q40 0 62 -22t22 -62v-62q0 -40 -22 -62t-62 -22h-297v-397h219q40 0 62 -22t22 -62v-61q0 -40 -22 -62t-62 -22h-219v-398h297q40 0 62 -22t22 -62v-61q0 -40 -22 -62t-62 -22h-516q-40 0 -62 22t-22 62zM123 1728.5q-8 23.5 6 51.5
l43 94q29 59 82 29l334 -191q54 -33 33 -82l-19 -41q-23 -48 -84 -26l-360 133q-27 9 -35 32.5z" />
    <glyph glyph-name="Eacute" unicode="&#xc9;" horiz-adv-x="786" 
d="M82 84v1315q0 40 22 62t62 22h516q40 0 62 -22t22 -62v-62q0 -40 -22 -62t-62 -22h-297v-397h219q40 0 62 -22t22 -62v-61q0 -40 -22 -62t-62 -22h-219v-398h297q40 0 62 -22t22 -62v-61q0 -40 -22 -62t-62 -22h-516q-40 0 -62 22t-22 62zM188 1630q-21 49 33 82l334 191
q53 30 82 -29l43 -94q14 -28 6 -51.5t-35 -32.5l-360 -133q-61 -22 -84 26z" />
    <glyph glyph-name="Ecircumflex" unicode="&#xca;" horiz-adv-x="786" 
d="M51 1624q-24 47 27 84l239 168q36 25 64 25h65q25 0 64 -25l240 -166q51 -36 26 -84l-22 -39q-26 -45 -86 -20l-254 108l-254 -110q-60 -26 -86 20zM82 84v1315q0 40 22 62t62 22h516q40 0 62 -22t22 -62v-62q0 -40 -22 -62t-62 -22h-297v-397h219q40 0 62 -22t22 -62
v-61q0 -40 -22 -62t-62 -22h-219v-398h297q40 0 62 -22t22 -62v-61q0 -40 -22 -62t-62 -22h-516q-40 0 -62 22t-22 62z" />
    <glyph glyph-name="Edieresis" unicode="&#xcb;" horiz-adv-x="786" 
d="M59 1743q0 63 38.5 101t101.5 38t101 -38t38 -101t-38 -101t-101 -38t-101.5 38t-38.5 101zM82 84v1315q0 40 22 62t62 22h516q40 0 62 -22t22 -62v-62q0 -40 -22 -62t-62 -22h-297v-397h219q40 0 62 -22t22 -62v-61q0 -40 -22 -62t-62 -22h-219v-398h297q40 0 62 -22
t22 -62v-61q0 -40 -22 -62t-62 -22h-516q-40 0 -62 22t-22 62zM489 1743q0 63 38.5 101t101.5 38t101 -38t38 -101t-38 -101t-101 -38t-101.5 38t-38.5 101z" />
    <glyph glyph-name="Igrave" unicode="&#xcc;" horiz-adv-x="466" 
d="M-78 1728.5q-8 23.5 6 51.5l43 94q29 59 82 29l334 -191q54 -33 33 -82l-19 -41q-23 -48 -84 -26l-360 133q-27 9 -35 32.5zM82 84v1315q0 40 22 62t62 22h135q40 0 62 -22t22 -62v-1315q0 -40 -22 -62t-62 -22h-135q-40 0 -62 22t-22 62z" />
    <glyph glyph-name="Iacute" unicode="&#xcd;" horiz-adv-x="466" 
d="M49 1630q-21 49 33 82l334 191q53 30 82 -29l43 -94q14 -28 6 -51.5t-35 -32.5l-360 -133q-61 -22 -84 26zM82 84v1315q0 40 22 62t62 22h135q40 0 62 -22t22 -62v-1315q0 -40 -22 -62t-62 -22h-135q-40 0 -62 22t-22 62z" />
    <glyph glyph-name="Icircumflex" unicode="&#xce;" horiz-adv-x="466" 
d="M-129 1624q-24 47 27 84l239 168q36 25 64 25h65q25 0 64 -25l239 -166q51 -37 27 -84l-23 -39q-26 -45 -86 -20l-254 108l-253 -110q-60 -26 -86 20zM82 84v1315q0 40 22 62t62 22h135q40 0 62 -22t22 -62v-1315q0 -40 -22 -62t-62 -22h-135q-40 0 -62 22t-22 62z" />
    <glyph glyph-name="Idieresis" unicode="&#xcf;" horiz-adv-x="466" 
d="M-121 1743q0 63 38 101t101 38t101.5 -38t38.5 -101t-38.5 -101t-101.5 -38t-101 38t-38 101zM82 84v1315q0 40 22 62t62 22h135q40 0 62 -22t22 -62v-1315q0 -40 -22 -62t-62 -22h-135q-40 0 -62 22t-22 62zM309 1743q0 63 38.5 101t101.5 38t101 -38t38 -101t-38 -101
t-101 -38t-101.5 38t-38.5 101z" />
    <glyph glyph-name="Eth" unicode="&#xd0;" horiz-adv-x="974" 
d="M-20 702v76q0 64 63 64h39v557q0 40 22 62t62 22h321q406 0 406 -326v-831q0 -326 -406 -326h-321q-40 0 -62 22t-22 62v555h-39q-63 0 -63 63zM385 229h102q49 0 76 27t27 70v831q0 43 -27 69.5t-76 26.5h-102v-411h51q64 0 64 -64v-76q0 -63 -64 -63h-51v-410z" />
    <glyph glyph-name="Ntilde" unicode="&#xd1;" horiz-adv-x="995" 
d="M82 84v1315q0 40 22 62t62 22h137q63 0 84 -62l154 -442l100 -356l21 4l-31 366v406q0 40 22 62t62 22h114q40 0 62 -22t22 -62v-1315q0 -40 -22 -62t-62 -22h-137q-63 0 -84 61l-153 443l-101 356l-20 -4l31 -367v-405q0 -40 -22 -62t-62 -22h-115q-40 0 -62 22t-22 62z
M158 1640v43q0 77 40 128.5t97 67.5t119.5 4t105.5 -52l90 -84q22 -19 42 -12t20 32v25q0 55 57 55h53q26 0 41 -14.5t15 -40.5v-45q0 -77 -40.5 -127.5t-97 -66t-119.5 -3t-106 51.5l-90 81q-22 18 -41.5 12t-19.5 -30v-25q0 -55 -58 -55h-53q-55 0 -55 55z" />
    <glyph glyph-name="Ograve" unicode="&#xd2;" horiz-adv-x="974" 
d="M82 315v852q0 326 405 326q406 0 406 -326v-852q0 -325 -406 -325q-405 0 -405 325zM217 1728.5q-8 23.5 6 51.5l43 94q29 59 82 29l334 -191q54 -33 33 -82l-19 -41q-23 -48 -84 -26l-360 133q-27 9 -35 32.5zM385 315q0 -43 26.5 -69.5t75.5 -26.5t76 26.5t27 69.5v852
q0 43 -27 70t-76 27t-75.5 -27t-26.5 -70v-852z" />
    <glyph glyph-name="Oacute" unicode="&#xd3;" horiz-adv-x="974" 
d="M82 315v852q0 326 405 326q406 0 406 -326v-852q0 -325 -406 -325q-405 0 -405 325zM262 1630q-21 49 33 82l334 191q53 30 82 -29l43 -94q14 -28 6 -51.5t-35 -32.5l-360 -133q-61 -22 -84 26zM385 315q0 -43 26.5 -69.5t75.5 -26.5t76 26.5t27 69.5v852q0 43 -27 70
t-76 27t-75.5 -27t-26.5 -70v-852z" />
    <glyph glyph-name="Ocircumflex" unicode="&#xd4;" horiz-adv-x="974" 
d="M82 315v852q0 326 405 326q406 0 406 -326v-852q0 -325 -406 -325q-405 0 -405 325zM125 1624q-24 47 27 84l239 168q36 25 64 25h65q25 0 64 -25l239 -166q51 -37 27 -84l-23 -39q-26 -45 -86 -20l-254 108l-254 -110q-60 -26 -86 20zM385 315q0 -43 26.5 -69.5
t75.5 -26.5t76 26.5t27 69.5v852q0 43 -27 70t-76 27t-75.5 -27t-26.5 -70v-852z" />
    <glyph glyph-name="Otilde" unicode="&#xd5;" horiz-adv-x="974" 
d="M82 315v852q0 326 405 326q406 0 406 -326v-852q0 -325 -406 -325q-405 0 -405 325zM147 1640v43q0 77 40.5 128.5t97 67.5t119.5 4t106 -52l90 -84q22 -19 42 -12t20 32v25q0 55 57 55h53q55 0 55 -55v-45q0 -77 -40 -127.5t-97 -66t-119.5 -3t-105.5 51.5l-90 81
q-22 18 -42 12t-20 -30v-25q0 -55 -57 -55h-53q-56 0 -56 55zM385 315q0 -43 26.5 -69.5t75.5 -26.5t76 26.5t27 69.5v852q0 43 -27 70t-76 27t-75.5 -27t-26.5 -70v-852z" />
    <glyph glyph-name="Odieresis" unicode="&#xd6;" horiz-adv-x="974" 
d="M82 315v852q0 326 405 326q406 0 406 -326v-852q0 -325 -406 -325q-405 0 -405 325zM133 1743q0 63 38 101t101 38t101.5 -38t38.5 -101t-38.5 -101t-101.5 -38t-101 38t-38 101zM385 315q0 -43 26.5 -69.5t75.5 -26.5t76 26.5t27 69.5v852q0 43 -27 70t-76 27t-75.5 -27
t-26.5 -70v-852zM563 1743q0 63 38 101t101 38t101.5 -38t38.5 -101t-38.5 -101t-101.5 -38t-101 38t-38 101z" />
    <glyph glyph-name="multiply" unicode="&#xd7;" horiz-adv-x="921" 
d="M141 469q-58 58 0 119l158 155l-158 156q-58 61 0 119l45 45q58 58 119 0l156 -158l155 158q61 58 119 0l45 -45q58 -58 0 -119l-157 -156l157 -155q58 -61 0 -119l-45 -45q-58 -58 -119 0l-155 158l-156 -158q-61 -58 -119 0z" />
    <glyph glyph-name="Oslash" unicode="&#xd8;" horiz-adv-x="974" 
d="M82 315v852q0 326 405 326q83 0 158 -16l37 102q13 38 41 51.5t65 -0.5l39 -14q37 -13 50.5 -42t1.5 -67l-50 -133q64 -80 64 -207v-852q0 -325 -406 -325q-78 0 -157 14l-37 -100q-13 -38 -41.5 -51.5t-65.5 0.5l-39 14q-76 28 -51 108l49 134q-63 75 -63 206zM362 662
l21 -5l78 318l98 266q-30 23 -72 23q-49 0 -75.5 -27t-26.5 -70v-178zM414 242q30 -23 71 -23q49 0 76 26.5t27 69.5v179l22 327l-20 4l-78 -317z" />
    <glyph glyph-name="Ugrave" unicode="&#xd9;" horiz-adv-x="974" 
d="M82 315v1084q0 40 22 62t62 22h135q40 0 62 -22t22 -62v-1084q0 -43 26.5 -69.5t75.5 -26.5t76 26.5t27 69.5v1084q0 40 22 62t62 22h135q40 0 62 -22t22 -62v-1084q0 -325 -406 -325q-405 0 -405 325zM196.5 1728.5q-7.5 23.5 6.5 51.5l43 94q29 59 82 29l334 -191
q53 -33 32 -82l-18 -41q-23 -48 -84 -26l-361 133q-27 9 -34.5 32.5z" />
    <glyph glyph-name="Uacute" unicode="&#xda;" horiz-adv-x="974" 
d="M82 315v1084q0 40 22 62t62 22h135q40 0 62 -22t22 -62v-1084q0 -43 26.5 -69.5t75.5 -26.5t76 26.5t27 69.5v1084q0 40 22 62t62 22h135q40 0 62 -22t22 -62v-1084q0 -325 -406 -325q-405 0 -405 325zM283 1630q-21 49 32 82l334 191q53 30 82 -29l43 -94
q14 -28 6 -51.5t-35 -32.5l-360 -133q-61 -22 -84 26z" />
    <glyph glyph-name="Ucircumflex" unicode="&#xdb;" horiz-adv-x="974" 
d="M82 315v1084q0 40 22 62t62 22h135q40 0 62 -22t22 -62v-1084q0 -43 26.5 -69.5t75.5 -26.5t76 26.5t27 69.5v1084q0 40 22 62t62 22h135q40 0 62 -22t22 -62v-1084q0 -325 -406 -325q-405 0 -405 325zM125 1624q-24 47 27 84l239 168q36 25 64 25h65q25 0 64 -25
l239 -166q51 -37 27 -84l-23 -39q-26 -45 -86 -20l-254 108l-254 -110q-60 -26 -86 20z" />
    <glyph glyph-name="Udieresis" unicode="&#xdc;" horiz-adv-x="974" 
d="M82 315v1084q0 40 22 62t62 22h135q40 0 62 -22t22 -62v-1084q0 -43 26.5 -69.5t75.5 -26.5t76 26.5t27 69.5v1084q0 40 22 62t62 22h135q40 0 62 -22t22 -62v-1084q0 -325 -406 -325q-405 0 -405 325zM133 1743q0 63 38 101t101 38t101.5 -38t38.5 -101t-38.5 -101
t-101.5 -38t-101 38t-38 101zM563 1743q0 63 38 101t101 38t101.5 -38t38.5 -101t-38.5 -101t-101.5 -38t-101 38t-38 101z" />
    <glyph glyph-name="Yacute" unicode="&#xdd;" horiz-adv-x="905" 
d="M29 1364q-15 47 4 83t73 36h123q66 0 82 -58l82 -323l49 -293h21l49 293l82 323q16 58 82 58h123q54 0 73.5 -36t4.5 -83l-273 -854v-426q0 -40 -22 -62t-62 -22h-135q-40 0 -62 22t-22 62v426zM268 1630q-21 49 33 82l334 191q53 30 82 -29l43 -94q14 -28 6 -51.5
t-35 -32.5l-360 -133q-61 -22 -84 26z" />
    <glyph glyph-name="Thorn" unicode="&#xde;" horiz-adv-x="913" 
d="M82 84v1315q0 40 22 62t62 22h135q40 0 62 -22t22 -62v-205h82q405 0 405 -326v-252q0 -325 -405 -325h-82v-207q0 -40 -22 -62t-62 -22h-135q-40 0 -62 22t-22 62zM385 520h82q49 0 75.5 26.5t26.5 69.5v252q0 43 -26.5 70t-75.5 27h-82v-445z" />
    <glyph glyph-name="germandbls" unicode="&#xdf;" horiz-adv-x="892" 
d="M82 84v1257q0 158 88.5 233t273.5 75q187 0 277 -75t90 -233v-190q0 -176 -137 -238v-20q137 -65 137 -238v-381q0 -274 -332 -274h-2q-40 0 -62 22t-22 62v37q0 40 22 62t62 22h2q62 0 62 78v440q0 39 -16.5 58.5t-45.5 19.5h-2q-40 0 -62 22t-22 62v37q0 40 22 62
t62 22h2q62 0 62 77v258q0 103 -97 103q-92 0 -92 -103v-1257q0 -40 -22 -62t-62 -22h-102q-40 0 -62 22t-22 62z" />
    <glyph glyph-name="agrave" unicode="&#xe0;" 
d="M82 219v203q0 274 342 274h72v201q0 78 -72 78t-72 -78v-27q0 -40 -22 -62t-62 -22h-102q-40 0 -62 22t-22 62v35q0 275 342 275t342 -275v-823q0 -38 -22 -60t-62 -22h-102q-40 0 -62 22t-22 60v2q-45 -44 -105 -69t-117 -25q-84 0 -138 57t-54 172zM190.5 1523.5
q0.5 23.5 22.5 45.5l74 73q22 22 44.5 22.5t41.5 -22.5l225 -268q40 -50 2 -88l-31 -31q-39 -39 -88 2l-268 224q-23 19 -22.5 42.5zM352 293q0 -78 72 -78t72 78v207h-72q-72 0 -72 -78v-129z" />
    <glyph glyph-name="aacute" unicode="&#xe1;" 
d="M82 219v203q0 274 342 274h72v201q0 78 -72 78t-72 -78v-27q0 -40 -22 -62t-62 -22h-102q-40 0 -62 22t-22 62v35q0 275 342 275t342 -275v-823q0 -38 -22 -60t-62 -22h-102q-40 0 -62 22t-22 60v2q-45 -44 -105 -69t-117 -25q-84 0 -138 57t-54 172zM250 1286
q-38 38 2 88l225 268q19 23 41.5 22.5t44.5 -22.5l74 -73q22 -22 22.5 -45.5t-22.5 -42.5l-268 -224q-49 -41 -88 -2zM352 293q0 -78 72 -78t72 78v207h-72q-72 0 -72 -78v-129z" />
    <glyph glyph-name="acircumflex" unicode="&#xe2;" 
d="M82 219v203q0 274 342 274h72v201q0 78 -72 78t-72 -78v-27q0 -40 -22 -62t-62 -22h-102q-40 0 -62 22t-22 62v35q0 275 342 275t342 -275v-823q0 -38 -22 -60t-62 -22h-102q-40 0 -62 22t-22 60v2q-45 -44 -105 -69t-117 -25q-84 0 -138 57t-54 172zM139 1307
q-42 39 0 88l195 231q26 33 65 33h50q39 0 65 -33l195 -231q42 -49 0 -88l-25 -27q-42 -42 -90 2l-170 145l-170 -145q-48 -44 -90 -2zM352 293q0 -78 72 -78t72 78v207h-72q-72 0 -72 -78v-129z" />
    <glyph glyph-name="atilde" unicode="&#xe3;" 
d="M82 219v203q0 274 342 274h72v201q0 78 -72 78t-72 -78v-27q0 -40 -22 -62t-62 -22h-102q-40 0 -62 22t-22 62v35q0 275 342 275t342 -275v-823q0 -38 -22 -60t-62 -22h-102q-40 0 -62 22t-22 60v2q-45 -44 -105 -69t-117 -25q-84 0 -138 57t-54 172zM94 1362v43
q0 77 42 128.5t99.5 66.5t120 1t101.5 -57l69 -76q19 -21 40.5 -12.5t21.5 33.5v24q0 56 57 56h53q26 0 41 -15t15 -41v-45q0 -77 -41.5 -128t-99 -66t-120 -0.5t-102.5 57.5l-69 74q-20 20 -41 12.5t-21 -31.5v-24q0 -55 -57 -55h-53q-56 0 -56 55zM352 293q0 -78 72 -78
t72 78v207h-72q-72 0 -72 -78v-129z" />
    <glyph glyph-name="adieresis" unicode="&#xe4;" 
d="M82 219v203q0 274 342 274h72v201q0 78 -72 78t-72 -78v-27q0 -40 -22 -62t-62 -22h-102q-40 0 -62 22t-22 62v35q0 275 342 275t342 -275v-823q0 -38 -22 -60t-62 -22h-102q-40 0 -62 22t-22 60v2q-45 -44 -105 -69t-117 -25q-84 0 -138 57t-54 172zM90 1448
q0 63 38 101t101 38t101.5 -38t38.5 -101t-38.5 -101t-101.5 -38t-101 38t-38 101zM352 293q0 -78 72 -78t72 78v207h-72q-72 0 -72 -78v-129zM479 1448q0 63 38 101t101 38t101.5 -38t38.5 -101t-38.5 -101t-101.5 -38t-101 38t-38 101z" />
    <glyph glyph-name="aring" unicode="&#xe5;" 
d="M82 219v203q0 274 342 274h72v201q0 78 -72 78t-72 -78v-27q0 -40 -22 -62t-62 -22h-102q-40 0 -62 22t-22 62v35q0 275 342 275t342 -275v-823q0 -38 -22 -60t-62 -22h-102q-40 0 -62 22t-22 60v2q-45 -44 -105 -69t-117 -25q-84 0 -138 57t-54 172zM209 1458
q0 95 60 155t155 60t155 -60t60 -155t-60 -155t-155 -60t-155 60t-60 155zM350 1458q0 -34 20.5 -56t53.5 -22t53.5 22t20.5 56t-20.5 56t-53.5 22t-53.5 -22t-20.5 -56zM352 293q0 -78 72 -78t72 78v207h-72q-72 0 -72 -78v-129z" />
    <glyph glyph-name="ae" unicode="&#xe6;" horiz-adv-x="1261" 
d="M82 219v203q0 274 342 274h72v201q0 78 -72 78t-72 -78v-27q0 -40 -22 -62t-62 -22h-102q-40 0 -62 22t-22 62v35q0 138 83.5 206.5t237.5 68.5q140 0 228 -76q88 76 227 76q154 0 238 -68.5t84 -206.5v-319q0 -46 -26.5 -72.5t-72.5 -26.5h-315v-215q0 -77 72 -77
q71 0 71 77v27q0 40 22 62t62 22h103q40 0 62 -22t22 -62v-35q0 -274 -342 -274q-222 0 -299 114q-45 -53 -113 -83.5t-137 -30.5q-90 0 -148.5 57t-58.5 172zM352 293q0 -78 72 -78t72 78v207h-72q-72 0 -72 -78v-129zM766 684h143v213q0 78 -71 78q-72 0 -72 -78v-213z
" />
    <glyph glyph-name="ccedilla" unicode="&#xe7;" 
d="M82 266v639q0 275 342 275t342 -275v-137q0 -40 -22 -62t-62 -22h-102q-40 0 -62 22t-22 62v129q0 78 -72 78t-72 -78v-625q0 -77 72 -77t72 77v129q0 40 22 62t62 22h102q40 0 62 -22t22 -62v-137q0 -242 -264 -270l-21 -62q71 -5 112.5 -48t41.5 -122q0 -172 -174 -172
h-121q-64 0 -64 64v27q0 63 64 63h80q33 0 33 18q0 19 -33 19h-60q-63 0 -63 63v54q0 17 6 32l29 66q-250 35 -250 270z" />
    <glyph glyph-name="egrave" unicode="&#xe8;" 
d="M82 266v639q0 275 342 275t342 -275v-319q0 -46 -26 -72.5t-72 -26.5h-316v-215q0 -77 72 -77t72 77v27q0 40 22 62t62 22h102q40 0 62 -22t22 -62v-35q0 -274 -342 -274t-342 276zM190.5 1523.5q0.5 23.5 22.5 45.5l74 73q22 22 44.5 22.5t41.5 -22.5l225 -268
q40 -50 2 -88l-31 -31q-39 -39 -88 2l-268 224q-23 19 -22.5 42.5zM352 684h144v213q0 78 -72 78t-72 -78v-213z" />
    <glyph glyph-name="eacute" unicode="&#xe9;" 
d="M82 266v639q0 275 342 275t342 -275v-319q0 -46 -26 -72.5t-72 -26.5h-316v-215q0 -77 72 -77t72 77v27q0 40 22 62t62 22h102q40 0 62 -22t22 -62v-35q0 -274 -342 -274t-342 276zM258 1286q-38 38 2 88l225 268q19 23 41.5 22.5t44.5 -22.5l74 -73q22 -22 22.5 -45.5
t-22.5 -42.5l-268 -224q-49 -41 -88 -2zM352 684h144v213q0 78 -72 78t-72 -78v-213z" />
    <glyph glyph-name="ecircumflex" unicode="&#xea;" 
d="M82 266v639q0 275 342 275t342 -275v-319q0 -46 -26 -72.5t-72 -26.5h-316v-215q0 -77 72 -77t72 77v27q0 40 22 62t62 22h102q40 0 62 -22t22 -62v-35q0 -274 -342 -274t-342 276zM139 1307q-42 39 0 88l195 231q26 33 65 33h50q39 0 65 -33l195 -231q42 -49 0 -88
l-25 -27q-42 -42 -90 2l-170 145l-170 -145q-48 -44 -90 -2zM352 684h144v213q0 78 -72 78t-72 -78v-213z" />
    <glyph glyph-name="edieresis" unicode="&#xeb;" 
d="M82 266v639q0 275 342 275t342 -275v-319q0 -46 -26 -72.5t-72 -26.5h-316v-215q0 -77 72 -77t72 77v27q0 40 22 62t62 22h102q40 0 62 -22t22 -62v-35q0 -274 -342 -274t-342 276zM90 1448q0 63 38 101t101 38t101.5 -38t38.5 -101t-38.5 -101t-101.5 -38t-101 38
t-38 101zM352 684h144v213q0 78 -72 78t-72 -78v-213zM479 1448q0 63 38 101t101 38t101.5 -38t38.5 -101t-38.5 -101t-101.5 -38t-101 38t-38 101z" />
    <glyph glyph-name="igrave" unicode="&#xec;" horiz-adv-x="434" 
d="M-38.5 1523.5q0.5 23.5 22.5 45.5l73 73q22 22 44.5 22.5t41.5 -22.5l226 -268q41 -50 2 -88l-31 -31q-38 -39 -88 2l-268 224q-23 19 -22.5 42.5zM82 84v1001q0 40 22 62t62 22h102q40 0 62 -22t22 -62v-1001q0 -40 -22 -62t-62 -22h-102q-40 0 -62 22t-22 62z" />
    <glyph glyph-name="iacute" unicode="&#xed;" horiz-adv-x="434" 
d="M63 1286q-38 38 3 88l225 268q19 23 41.5 22.5t44.5 -22.5l74 -73q22 -22 22.5 -45.5t-22.5 -42.5l-269 -224q-50 -41 -88 -2zM82 84v1001q0 40 22 62t62 22h102q40 0 62 -22t22 -62v-1001q0 -40 -22 -62t-62 -22h-102q-40 0 -62 22t-22 62z" />
    <glyph glyph-name="icircumflex" unicode="&#xee;" horiz-adv-x="434" 
d="M-68 1307q-42 39 0 88l195 231q26 33 66 33h49q39 0 65 -33l195 -231q42 -49 0 -88l-25 -27q-42 -42 -90 2l-170 145l-170 -145q-48 -44 -90 -2zM82 84v1001q0 40 22 62t62 22h102q40 0 62 -22t22 -62v-1001q0 -40 -22 -62t-62 -22h-102q-40 0 -62 22t-22 62z" />
    <glyph glyph-name="idieresis" unicode="&#xef;" horiz-adv-x="434" 
d="M-117 1448q0 63 38.5 101t101.5 38t101 -38t38 -101t-38 -101t-101 -38t-101.5 38t-38.5 101zM82 84v1001q0 40 22 62t62 22h102q40 0 62 -22t22 -62v-1001q0 -40 -22 -62t-62 -22h-102q-40 0 -62 22t-22 62zM272 1448q0 63 38.5 101t101.5 38t101 -38t38 -101t-38 -101
t-101 -38t-101.5 38t-38.5 101z" />
    <glyph glyph-name="eth" unicode="&#xf0;" 
d="M82 264v686q0 64 17 110.5t46 71.5t61 36.5t68 11.5q55 0 98 -17t101 -59q-19 95 -51 180l-105 -39q-57 -22 -79 39l-17 41q-22 60 39 82l90 33l-49 82q-25 40 -8.5 78t61.5 38h121q64 0 100 -57l29 -49l111 41q58 22 80 -39l16 -41q22 -60 -39 -82l-96 -35
q90 -253 90 -557v-555q0 -274 -342 -274t-342 274zM352 272q0 -77 72 -77t72 77v605q0 77 -72 77t-72 -77v-605z" />
    <glyph glyph-name="ntilde" unicode="&#xf1;" 
d="M82 82v1005q0 38 22 60t62 22h102q40 0 62 -22t22 -60v-2q46 44 105 69.5t116 25.5q84 0 138.5 -57.5t54.5 -172.5v-868q0 -38 -22 -60t-62 -22h-102q-40 0 -62 22t-22 60v795q0 77 -72 77t-72 -77v-795q0 -38 -22 -60t-62 -22h-102q-40 0 -62 22t-22 60zM94 1362v43
q0 77 42 128.5t99.5 66.5t120 1t101.5 -57l69 -76q19 -21 40.5 -12.5t21.5 33.5v24q0 56 57 56h53q26 0 41 -15t15 -41v-45q0 -77 -41.5 -128t-99 -66t-120 -0.5t-102.5 57.5l-69 74q-20 20 -41 12.5t-21 -31.5v-24q0 -55 -57 -55h-53q-56 0 -56 55z" />
    <glyph glyph-name="ograve" unicode="&#xf2;" 
d="M82 264v641q0 275 342 275t342 -275v-641q0 -274 -342 -274t-342 274zM188.5 1523.5q0.5 23.5 22.5 45.5l74 73q22 22 44.5 22.5t41.5 -22.5l225 -268q40 -50 2 -88l-31 -31q-39 -39 -88 2l-268 224q-23 19 -22.5 42.5zM352 272q0 -77 72 -77t72 77v625q0 78 -72 78
t-72 -78v-625z" />
    <glyph glyph-name="oacute" unicode="&#xf3;" 
d="M82 264v641q0 275 342 275t342 -275v-641q0 -274 -342 -274t-342 274zM250 1286q-38 38 2 88l225 268q19 23 41.5 22.5t44.5 -22.5l74 -73q22 -22 22.5 -45.5t-22.5 -42.5l-268 -224q-49 -41 -88 -2zM352 272q0 -77 72 -77t72 77v625q0 78 -72 78t-72 -78v-625z" />
    <glyph glyph-name="ocircumflex" unicode="&#xf4;" 
d="M82 264v641q0 275 342 275t342 -275v-641q0 -274 -342 -274t-342 274zM139 1307q-42 39 0 88l195 231q26 33 65 33h50q39 0 65 -33l195 -231q42 -49 0 -88l-25 -27q-42 -42 -90 2l-170 145l-170 -145q-48 -44 -90 -2zM352 272q0 -77 72 -77t72 77v625q0 78 -72 78
t-72 -78v-625z" />
    <glyph glyph-name="otilde" unicode="&#xf5;" 
d="M82 264v641q0 275 342 275t342 -275v-641q0 -274 -342 -274t-342 274zM94 1362v43q0 77 42 128.5t99.5 66.5t120 1t101.5 -57l69 -76q19 -21 40.5 -12.5t21.5 33.5v24q0 56 57 56h53q26 0 41 -15t15 -41v-45q0 -77 -41.5 -128t-99 -66t-120 -0.5t-102.5 57.5l-69 74
q-20 20 -41 12.5t-21 -31.5v-24q0 -55 -57 -55h-53q-56 0 -56 55zM352 272q0 -77 72 -77t72 77v625q0 78 -72 78t-72 -78v-625z" />
    <glyph glyph-name="odieresis" unicode="&#xf6;" 
d="M82 264v641q0 275 342 275t342 -275v-641q0 -274 -342 -274t-342 274zM90 1448q0 63 38 101t101 38t101.5 -38t38.5 -101t-38.5 -101t-101.5 -38t-101 38t-38 101zM352 272q0 -77 72 -77t72 77v625q0 78 -72 78t-72 -78v-625zM479 1448q0 63 38 101t101 38t101.5 -38
t38.5 -101t-38.5 -101t-101.5 -38t-101 38t-38 101z" />
    <glyph glyph-name="divide" unicode="&#xf7;" horiz-adv-x="921" 
d="M82 713v61q0 40 22 62t62 22h590q40 0 62 -22t22 -62v-61q0 -40 -22 -62t-62 -22h-590q-40 0 -62 22t-22 62zM305 334q0 69 43.5 112t112.5 43t112 -43t43 -112t-43 -112.5t-112 -43.5t-112.5 43.5t-43.5 112.5zM305 1153q0 69 43.5 112.5t112.5 43.5t112 -43.5
t43 -112.5t-43 -112.5t-112 -43.5t-112.5 43.5t-43.5 112.5z" />
    <glyph glyph-name="oslash" unicode="&#xf8;" 
d="M82 264v641q0 275 342 275q47 0 111 -11l32 93q14 37 42.5 49.5t66.5 -0.5l18 -6q37 -14 49.5 -42.5t-0.5 -66.5l-38 -106q61 -67 61 -185v-641q0 -274 -342 -274q-57 0 -115 10l-33 -92q-28 -77 -108 -49l-18 6q-38 13 -52 42t0 66l41 111q-57 66 -57 180zM326 565
l20 -4l68 246l49 160q-13 8 -39 8q-72 0 -72 -78v-82zM385 203q13 -8 39 -8q72 0 72 77v82l26 250l-20 4l-68 -246z" />
    <glyph glyph-name="ugrave" unicode="&#xf9;" 
d="M82 219v868q0 38 22 60t62 22h102q40 0 62 -22t22 -60v-794q0 -78 72 -78t72 78v794q0 38 22 60t62 22h102q40 0 62 -22t22 -60v-1005q0 -38 -22 -60t-62 -22h-102q-40 0 -62 22t-22 60v2q-45 -44 -105 -69t-117 -25q-84 0 -138 57t-54 172zM170.5 1523.5
q0.5 23.5 22.5 45.5l73 73q22 22 44.5 22.5t41.5 -22.5l226 -268q40 -50 2 -88l-31 -31q-39 -39 -88 2l-268 224q-23 19 -22.5 42.5z" />
    <glyph glyph-name="uacute" unicode="&#xfa;" 
d="M82 219v868q0 38 22 60t62 22h102q40 0 62 -22t22 -60v-794q0 -78 72 -78t72 78v794q0 38 22 60t62 22h102q40 0 62 -22t22 -60v-1005q0 -38 -22 -60t-62 -22h-102q-40 0 -62 22t-22 60v2q-45 -44 -105 -69t-117 -25q-84 0 -138 57t-54 172zM270 1286q-38 38 2 88
l226 268q19 23 41.5 22.5t44.5 -22.5l73 -73q22 -22 22.5 -45.5t-22.5 -42.5l-268 -224q-50 -41 -88 -2z" />
    <glyph glyph-name="ucircumflex" unicode="&#xfb;" 
d="M82 219v868q0 38 22 60t62 22h102q40 0 62 -22t22 -60v-794q0 -78 72 -78t72 78v794q0 38 22 60t62 22h102q40 0 62 -22t22 -60v-1005q0 -38 -22 -60t-62 -22h-102q-40 0 -62 22t-22 60v2q-45 -44 -105 -69t-117 -25q-84 0 -138 57t-54 172zM139 1307q-42 39 0 88
l195 231q26 33 65 33h50q39 0 65 -33l195 -231q42 -49 0 -88l-25 -27q-42 -42 -90 2l-170 145l-170 -145q-48 -44 -90 -2z" />
    <glyph glyph-name="udieresis" unicode="&#xfc;" 
d="M82 219v868q0 38 22 60t62 22h102q40 0 62 -22t22 -60v-794q0 -78 72 -78t72 78v794q0 38 22 60t62 22h102q40 0 62 -22t22 -60v-1005q0 -38 -22 -60t-62 -22h-102q-40 0 -62 22t-22 60v2q-45 -44 -105 -69t-117 -25q-84 0 -138 57t-54 172zM90 1448q0 63 38 101t101 38
t101.5 -38t38.5 -101t-38.5 -101t-101.5 -38t-101 38t-38 101zM479 1448q0 63 38 101t101 38t101.5 -38t38.5 -101t-38.5 -101t-101.5 -38t-101 38t-38 101z" />
    <glyph glyph-name="yacute" unicode="&#xfd;" horiz-adv-x="724" 
d="M12 1067q-8 52 17.5 77t64.5 25h96q38 0 59.5 -19t24.5 -52l52 -512l26 -391h21l26 391l52 512q3 33 24.5 52t59.5 19h96q39 0 64.5 -25t17.5 -77l-211 -1405q-10 -72 -84 -72h-96q-39 0 -64.5 25.5t-17.5 77.5l47 307h-41q-74 0 -84 76zM227 1286q-39 38 2 88l226 268
q19 23 41.5 22.5t44.5 -22.5l73 -73q22 -22 22.5 -45.5t-22.5 -42.5l-268 -224q-50 -41 -88 -2z" />
    <glyph glyph-name="thorn" unicode="&#xfe;" 
d="M82 -328v1884q0 38 22 60t62 22h102q40 0 62 -22t22 -60v-471q46 44 105 69.5t116 25.5q84 0 138.5 -57.5t54.5 -172.5v-731q0 -115 -54.5 -172t-138.5 -57q-57 0 -116 25t-105 69v-412q0 -38 -22 -60t-62 -22h-102q-40 0 -62 22t-22 60zM352 293q0 -78 72 -78t72 78v584
q0 77 -72 77t-72 -77v-584z" />
    <glyph glyph-name="ydieresis" unicode="&#xff;" horiz-adv-x="724" 
d="M12 1067q-8 52 17.5 77t64.5 25h96q38 0 59.5 -19t24.5 -52l52 -512l26 -391h21l26 391l52 512q3 33 24.5 52t59.5 19h96q39 0 64.5 -25t17.5 -77l-211 -1405q-10 -72 -84 -72h-96q-39 0 -64.5 25.5t-17.5 77.5l47 307h-41q-74 0 -84 76zM29 1448q0 63 38 101t101 38
t101 -38t38 -101t-38 -101t-101 -38t-101 38t-38 101zM418 1448q0 63 38 101t101 38t101 -38t38 -101t-38 -101t-101 -38t-101 38t-38 101z" />
    <glyph glyph-name="OE" unicode="&#x152;" horiz-adv-x="1294" 
d="M82 315v852q0 326 405 326q66 0 131 -10h572q40 0 62 -22t22 -62v-62q0 -40 -22 -62t-62 -22h-305q8 -36 8 -86v-311h219q40 0 62 -22t22 -62v-61q0 -40 -22 -62t-62 -22h-219v-312q0 -50 -8 -86h305q40 0 62 -22t22 -62v-61q0 -40 -22 -62t-62 -22h-572
q-65 -10 -131 -10q-405 0 -405 325zM385 315q0 -43 26.5 -69.5t75.5 -26.5t76 26.5t27 69.5v852q0 43 -27 70t-76 27t-75.5 -27t-26.5 -70v-852z" />
    <glyph glyph-name="oe" unicode="&#x153;" horiz-adv-x="1261" 
d="M82 264v641q0 138 83.5 206.5t237.5 68.5q140 0 228 -76q88 76 227 76q154 0 238 -68.5t84 -206.5v-319q0 -46 -26.5 -72.5t-72.5 -26.5h-315v-215q0 -77 72 -77q71 0 71 77v27q0 40 22 62t62 22h103q40 0 62 -22t22 -62v-35q0 -138 -83.5 -206t-238.5 -68
q-139 0 -227 76q-88 -76 -228 -76q-154 0 -237.5 68t-83.5 206zM352 272q0 -77 72 -77t72 77v625q0 78 -72 78t-72 -78v-625zM766 684h143v213q0 78 -71 78q-72 0 -72 -78v-213z" />
    <glyph glyph-name="Ydieresis" unicode="&#x178;" horiz-adv-x="905" 
d="M29 1364q-15 47 4 83t73 36h123q66 0 82 -58l82 -323l49 -293h21l49 293l82 323q16 58 82 58h123q54 0 73.5 -36t4.5 -83l-273 -854v-426q0 -40 -22 -62t-62 -22h-135q-40 0 -62 22t-22 62v426zM98 1743q0 63 38.5 101t101.5 38t101 -38t38 -101t-38 -101t-101 -38
t-101.5 38t-38.5 101zM528 1743q0 63 38.5 101t101.5 38t101 -38t38 -101t-38 -101t-101 -38t-101.5 38t-38.5 101z" />
    <glyph glyph-name="circumflex" unicode="&#x2c6;" horiz-adv-x="860" 
d="M145 1307q-42 39 0 88l195 231q26 33 66 33h49q39 0 65 -33l195 -231q42 -49 0 -88l-25 -27q-42 -42 -90 2l-170 145l-170 -145q-48 -44 -90 -2z" />
    <glyph glyph-name="tilde" unicode="&#x2dc;" horiz-adv-x="905" 
d="M123 1362v43q0 77 42 128.5t99.5 66.5t119.5 1t101 -57l70 -76q19 -21 40 -12.5t21 33.5v24q0 56 58 56h53q26 0 40.5 -15t14.5 -41v-45q0 -77 -41.5 -128t-98.5 -66t-119.5 -0.5t-102.5 57.5l-70 74q-20 20 -40.5 12.5t-20.5 -31.5v-24q0 -55 -58 -55h-53q-55 0 -55 55z
" />
    <glyph glyph-name="uni2000" unicode="&#x2000;" horiz-adv-x="971" 
 />
    <glyph glyph-name="uni2001" unicode="&#x2001;" horiz-adv-x="1942" 
 />
    <glyph glyph-name="uni2002" unicode="&#x2002;" horiz-adv-x="971" 
 />
    <glyph glyph-name="uni2003" unicode="&#x2003;" horiz-adv-x="1942" 
 />
    <glyph glyph-name="uni2004" unicode="&#x2004;" horiz-adv-x="647" 
 />
    <glyph glyph-name="uni2005" unicode="&#x2005;" horiz-adv-x="485" 
 />
    <glyph glyph-name="uni2006" unicode="&#x2006;" horiz-adv-x="323" 
 />
    <glyph glyph-name="uni2007" unicode="&#x2007;" horiz-adv-x="323" 
 />
    <glyph glyph-name="uni2008" unicode="&#x2008;" horiz-adv-x="242" 
 />
    <glyph glyph-name="uni2009" unicode="&#x2009;" horiz-adv-x="388" 
 />
    <glyph glyph-name="uni200A" unicode="&#x200a;" horiz-adv-x="107" 
 />
    <glyph glyph-name="uni2010" unicode="&#x2010;" horiz-adv-x="575" 
d="M41 555v61q0 40 22 62t62 22h326q40 0 62 -22t22 -62v-61q0 -40 -22 -62t-62 -22h-326q-40 0 -62 22t-22 62z" />
    <glyph glyph-name="uni2011" unicode="&#x2011;" horiz-adv-x="575" 
d="M41 555v61q0 40 22 62t62 22h326q40 0 62 -22t22 -62v-61q0 -40 -22 -62t-62 -22h-326q-40 0 -62 22t-22 62z" />
    <glyph glyph-name="figuredash" unicode="&#x2012;" horiz-adv-x="575" 
d="M41 555v61q0 40 22 62t62 22h326q40 0 62 -22t22 -62v-61q0 -40 -22 -62t-62 -22h-326q-40 0 -62 22t-22 62z" />
    <glyph glyph-name="endash" unicode="&#x2013;" horiz-adv-x="1134" 
d="M41 555v61q0 40 22 62t62 22h885q40 0 62 -22t22 -62v-61q0 -40 -22 -62t-62 -22h-885q-40 0 -62 22t-22 62z" />
    <glyph glyph-name="emdash" unicode="&#x2014;" horiz-adv-x="2152" 
d="M41 555v61q0 40 22 62t62 22h1903q40 0 61.5 -22t21.5 -62v-61q0 -40 -21.5 -62t-61.5 -22h-1903q-40 0 -62 22t-22 62z" />
    <glyph glyph-name="quoteleft" unicode="&#x2018;" horiz-adv-x="516" 
d="M98 1161l148 447q19 69 82 69h30q39 0 62 -24.5t20 -69.5l-28 -459q-6 -75 -84 -75h-150q-50 0 -71 32.5t-9 79.5z" />
    <glyph glyph-name="quoteright" unicode="&#x2019;" horiz-adv-x="516" 
d="M94 1143l29 459q6 75 84 75h149q50 0 71 -32.5t9 -79.5l-147 -447q-19 -69 -82 -69h-31q-39 0 -62 24.5t-20 69.5z" />
    <glyph glyph-name="quotesinglbase" unicode="&#x201a;" horiz-adv-x="516" 
d="M94 -193l29 459q3 38 25.5 57t58.5 19h149q49 0 70.5 -33t9.5 -80l-147 -446q-19 -70 -82 -70h-31q-39 0 -62 24.5t-20 69.5z" />
    <glyph glyph-name="quotedblleft" unicode="&#x201c;" horiz-adv-x="903" 
d="M98 1161l148 447q19 69 82 69h30q39 0 62 -24.5t20 -69.5l-28 -459q-6 -75 -84 -75h-150q-50 0 -71 32.5t-9 79.5zM485 1161l148 447q19 69 82 69h30q39 0 62 -24.5t20 -69.5l-28 -459q-6 -75 -84 -75h-150q-50 0 -71 32.5t-9 79.5z" />
    <glyph glyph-name="quotedblright" unicode="&#x201d;" horiz-adv-x="903" 
d="M94 1143l29 459q6 75 84 75h149q50 0 71 -32.5t9 -79.5l-147 -447q-19 -69 -82 -69h-31q-39 0 -62 24.5t-20 69.5zM481 1143l29 459q6 75 84 75h149q50 0 71 -32.5t9 -79.5l-147 -447q-19 -69 -82 -69h-31q-39 0 -62 24.5t-20 69.5z" />
    <glyph glyph-name="quotedblbase" unicode="&#x201e;" horiz-adv-x="903" 
d="M94 -193l29 459q3 38 25.5 57t58.5 19h149q49 0 70.5 -33t9.5 -80l-147 -446q-19 -70 -82 -70h-31q-39 0 -62 24.5t-20 69.5zM481 -193l29 459q3 38 25.5 57t58.5 19h149q49 0 70.5 -33t9.5 -80l-147 -446q-19 -70 -82 -70h-31q-39 0 -62 24.5t-20 69.5z" />
    <glyph glyph-name="bullet" unicode="&#x2022;" horiz-adv-x="643" 
d="M82 741q0 106 67 173t173 67t172.5 -67t66.5 -173t-66.5 -172.5t-172.5 -66.5t-173 66.5t-67 172.5z" />
    <glyph glyph-name="ellipsis" unicode="&#x2026;" horiz-adv-x="1794" 
d="M82 164q0 79 48.5 128.5t125.5 49.5q80 0 129 -49t49 -129q0 -77 -49.5 -125.5t-128.5 -48.5q-76 0 -125 49t-49 125zM721 164q0 79 48.5 128.5t125.5 49.5q79 0 128.5 -49t49.5 -129q0 -77 -49.5 -125.5t-128.5 -48.5q-77 0 -125.5 49t-48.5 125zM1360 164
q0 79 48.5 128.5t125.5 49.5q80 0 129 -49t49 -129q0 -77 -49.5 -125.5t-128.5 -48.5q-76 0 -125 49t-49 125z" />
    <glyph glyph-name="uni202F" unicode="&#x202f;" horiz-adv-x="388" 
 />
    <glyph glyph-name="guilsinglleft" unicode="&#x2039;" horiz-adv-x="608" 
d="M82 586l168 418q19 49 78 49h112q58 0 76.5 -42t1.5 -81l-149 -344l149 -344q17 -39 -1.5 -81t-76.5 -42h-112q-59 0 -78 49z" />
    <glyph glyph-name="guilsinglright" unicode="&#x203a;" horiz-adv-x="608" 
d="M90 242l150 344l-150 344q-17 39 1.5 81t76.5 42h113q58 0 77 -49l168 -418l-168 -418q-19 -49 -77 -49h-113q-58 0 -76.5 42t-1.5 81z" />
    <glyph glyph-name="uni205F" unicode="&#x205f;" horiz-adv-x="485" 
 />
    <glyph glyph-name="Euro" unicode="&#x20ac;" horiz-adv-x="1062" 
d="M41 555v61q0 40 22 62t62 22h45v82h-45q-40 0 -62 22t-22 62v62q0 40 22 62t62 22h45v155q0 326 405 326q406 0 406 -326v-84q0 -40 -22 -62t-62 -22h-135q-40 0 -62 22t-22 62v84q0 43 -27 70t-76 27t-75.5 -27t-26.5 -70v-155h152q40 0 62 -22t22 -62v-62
q0 -40 -22 -62t-62 -22h-152v-82h152q40 0 62 -22t22 -62v-61q0 -40 -22 -62t-62 -22h-152v-156q0 -43 26.5 -69.5t75.5 -26.5t76 26.5t27 69.5v84q0 40 22 62t62 22h135q40 0 62 -22t22 -62v-84q0 -325 -406 -325q-405 0 -405 325v156h-45q-40 0 -62 22t-22 62z" />
    <glyph glyph-name="trademark" unicode="&#x2122;" horiz-adv-x="1171" 
d="M0 1395v32q0 26 14.5 41t40.5 15h365q26 0 40.5 -15t14.5 -41v-32q0 -26 -14.5 -41t-40.5 -15h-84v-542q0 -26 -14.5 -41t-40.5 -15h-86q-26 0 -41 15t-15 41v542h-84q-26 0 -40.5 15t-14.5 41zM516 797v630q0 27 15 41.5t40 14.5h140q49 0 55 -51l29 -107l22 -178h12
l23 178l29 107q9 51 55 51h139q55 0 55 -56v-630q0 -26 -14.5 -41t-40.5 -15h-53q-26 0 -40.5 15t-14.5 41v254l12 141h-14l-50 -287q-7 -39 -53 -39h-78q-23 0 -36 10.5t-15 28.5l-51 287h-14l12 -141v-254q0 -26 -14.5 -41t-40.5 -15h-54q-26 0 -40.5 15t-14.5 41z" />
    <glyph glyph-name="uniE000" unicode="&#xe000;" horiz-adv-x="1167" 
d="M0 0v1167h1167v-1167h-1167z" />
  </font>
</defs>
</svg>
